<?xml version="1.0" encoding="UTF-8"?>
<svg xmlns="http://www.w3.org/2000/svg" id="a" width="865.76" height="682.89" viewBox="0 0 865.76 682.89">
  <g>
    <g>
      <path d="M332.76,164.59c1.76,24.79-16.91,46.31-41.71,48.07-24.79,1.76-46.31-16.91-48.07-41.71-1.76-24.79,16.91-46.31,41.71-48.07h.07c24.77-1.72,46.24,16.95,48,41.71h0Z" fill="#c39ad5"></path>
      <path d="M287.84,213.27c-23.64,0-43.66-18.35-45.36-42.28-1.77-25.03,17.14-46.83,42.17-48.6,25.07-1.74,46.83,17.18,48.6,42.17h0c1.77,25.03-17.14,46.83-42.17,48.6-1.09,.08-2.17,.12-3.25,.12h0Zm.06-90.01c-1.03,0-2.06,.04-3.1,.11-24.54,1.74-43.04,23.06-41.31,47.54,1.74,24.48,23.09,42.96,47.54,41.24,24.47-1.74,42.97-23.06,41.24-47.54h0c-1.66-23.4-21.25-41.35-44.36-41.35h0Z" fill="#002346"></path>
    </g>
    <g opacity=".1">
      <path d="M284.75,122.88c-24.76,1.76-43.42,23.24-41.7,48,0,0,31.61-.79,38.3-14s3.4-34,3.4-34Z" fill="#fff"></path>
    </g>
    <g>
      <path d="M321.51,165.45c1.28,18.58-12.74,34.68-31.32,35.96-18.58,1.28-34.68-12.74-35.96-31.32-1.28-18.56,12.72-34.65,31.28-35.95,18.58-1.3,34.69,12.7,36,31.28v.04h0Z" fill="#fff"></path>
      <path d="M287.85,201.99c-17.81,0-32.87-13.84-34.12-31.87-1.29-18.8,12.95-35.17,31.75-36.49,18.81-1.32,35.21,12.92,36.53,31.74v.04c1.3,18.82-12.96,35.19-31.79,36.49-.8,.05-1.59,.08-2.38,.08h.01Zm.05-67.43c-.78,0-1.56,.03-2.35,.08-18.25,1.28-32.07,17.17-30.82,35.42,1.26,18.27,17.14,32.12,35.42,30.86,18.27-1.26,32.12-17.15,30.86-35.42v-.04c-1.23-17.48-15.85-30.9-33.12-30.9h.01Z" fill="#002346"></path>
    </g>
    <g id="b">
      <path d="M289.79,165.39l-.59-8.6h0c1.58,.08,3.15,.37,4.65,.87,.78,.33,1.53,.73,2.23,1.2l.1-.27,1.11-3.2,.26-.73-1.65-1.51-.71,.39c-2-.89-4.17-1.35-6.36-1.36l-.33-4.74-1.47-1.09v1.2l-2,.07,.33,4.83c-6.6,1.11-9.49,5.12-9.19,9.46,.41,5.91,5.61,7.11,10.42,7.93l.59,8.53c-3.11-.03-6.15-.96-8.75-2.66l-1.62,4.5c3.22,1.99,6.96,2.95,10.74,2.76l.25,3.58-1.66,.15,1.74,1,3.5-.26-.34-4.77c6.65-1.15,9.58-5.14,9.28-9.48-.44-5.84-5.71-6.98-10.53-7.8h0Zm-3.56-.61c-2.52-.55-4.41-1.32-4.56-3.41s1.05-3.5,4-4.18l.56,7.59Zm4.45,13.35l-.53-7.53c2.61,.54,4.57,1.32,4.72,3.48,.12,1.83-1.1,3.37-4.19,4.05Z" fill="#002346"></path>
    </g>
    <g id="c">
      <path d="M289.49,181.68l.33,4.78-3.5,.24-.29-4.72c-3.77,.15-7.49-.83-10.7-2.81l1.62-4.5c2.61,1.69,5.65,2.61,8.76,2.65l-.68-8.54c-4.81-.81-10-2-10.41-7.91-.32-4.43,2.58-8.37,9.19-9.48l-.34-4.83,3.5-.24,.33,4.74c3.07-.08,6.11,.61,8.84,2l-1.45,4.49c-2.2-1.09-4.61-1.71-7.07-1.82l.62,8.61c4.81,.82,10.08,2,10.49,7.88,.3,4.34-2.6,8.3-9.24,9.46h0Zm-4.78-18l-.53-7.59c-2.94,.68-4.17,2.3-4,4.18,.13,1.46-.19,2.2,1.08,2.93,.8,.46,1.74,.62,2.66,.54l.79-.07h0Zm8.62,9.31c-.14-2.09-2.08-2.89-4.69-3.48l.53,7.55c3.07-.69,4.29-2.24,4.16-4.07Z" fill="#c39ad5"></path>
      <path d="M285.85,187.23l-.29-4.74c-3.7,.06-7.33-.94-10.49-2.9l-.34-.21,1.97-5.47,.53,.34c2.38,1.54,5.12,2.42,7.95,2.55l-.6-7.6c-4.12-.7-10-1.88-10.44-8.3-.36-4.99,3.14-8.77,9.16-9.93l-.34-4.88,4.5-.31,.33,4.77c2.98,0,5.94,.71,8.6,2.06l.38,.19-1.76,5.45-.52-.26c-1.99-.98-4.11-1.57-6.31-1.73l.55,7.65c4.15,.71,10.08,1.91,10.52,8.27,.34,4.94-3.18,8.7-9.21,9.9l.33,4.83-4.5,.31h-.02Zm.65-5.76l.29,4.71,2.5-.17-.33-4.73,.44-.08c5.84-1.02,9.14-4.36,8.83-8.93-.37-5.33-4.98-6.55-10.08-7.42l-.39-.07-.69-9.56,.56,.02c2.35,.1,4.62,.65,6.75,1.62l1.14-3.54c-2.55-1.22-5.39-1.84-8.22-1.76h-.48l-.33-4.71-2.5,.17,.34,4.78-.45,.08c-5.83,.98-9.11,4.32-8.77,8.95,.37,5.39,4.94,6.6,9.99,7.45l.38,.06,.75,9.48h-.55c-3-.05-5.92-.87-8.49-2.41l-1.27,3.53c3.05,1.79,6.52,2.66,10.07,2.53l.49-.02,.02,.02Zm2.21-3.8l-.62-8.8,.66,.15c2.54,.57,4.91,1.45,5.08,3.93,.09,1.31-.38,3.65-4.55,4.59l-.57,.13h0Zm.48-7.52l.44,6.27c1.65-.47,3.34-1.43,3.2-3.4h0c-.09-1.41-1.1-2.21-3.64-2.87h0Zm-5.71-5.88c-.9,0-1.75-.21-2.47-.63-1.24-.71-1.26-1.54-1.29-2.51,0-.24-.01-.51-.04-.81-.21-2.3,1.39-4.02,4.39-4.71l.57-.13,.6,8.67-1.29,.11c-.16,0-.32,.02-.48,.02h.01Zm.25-7.55c-2.12,.63-3.19,1.86-3.04,3.5,.03,.32,.04,.61,.04,.88,.02,.9,.03,1.23,.79,1.67,.67,.39,1.49,.55,2.37,.48l.3-.02-.45-6.49v-.02Z" fill="#002346"></path>
    </g>
    <path d="M251.18,191.46c-.09-.1-.17-.21-.24-.33l-.61-1c-.26-.42-.58-1-.91-1.59s-.73-1.36-1.09-2.19c-.17-.42-.37-.84-.57-1.3s-.36-.93-.56-1.46c-.4-1-.72-2.08-1.07-3.22-1.47-4.99-2.04-10.21-1.7-15.4,.06-1.13,.18-2.26,.36-3.38,.05-.5,.13-1,.23-1.49,.1-.44,.18-1,.29-1.4,.14-.88,.4-1.67,.57-2.36,.15-.6,.33-1.18,.54-1.76,.18-.48,.28-.81,.38-1.1,.03-.13,.09-.26,.16-.37,0,.14-.04,.27-.09,.4-.09,.28-.2,.66-.33,1.11s-.32,1.07-.47,1.76-.39,1.49-.54,2.37c-.08,.45-.17,.91-.26,1.39s-.13,1-.22,1.49c-.15,1-.22,2.17-.32,3.36-.12,2.57-.06,5.15,.19,7.72,.31,2.56,.81,5.09,1.5,7.58,.35,1.12,.65,2.21,1,3.2,.18,.5,.35,1,.54,1.47l.55,1.29c.34,.84,.72,1.55,1,2.19s.61,1.19,.86,1.63l.55,1c.11,.11,.2,.24,.26,.39h0Z" fill="#fff"></path>
    <path d="M277.82,164.27c-.42-.21-.79-.53-1.06-.91-.72-.9-1.14-2.01-1.19-3.16-.02-1.16,.33-2.29,1-3.23,.24-.42,.58-.76,1-1-.3,.35-.57,.72-.8,1.12-1.18,1.9-1.09,4.32,.21,6.13,.45,.68,.88,1,.84,1.05Z" fill="#fff"></path>
    <path d="M284.52,150.67c-.3-.92-.37-1.9-.2-2.86,.1,0,.21,.61,.27,1.39,.1,.49,.08,.99-.07,1.47h0Z" fill="#fff"></path>
    <path d="M296.35,209.9c-.25,.11-.51,.2-.78,.27-.72,.22-1.46,.4-2.2,.53-2.43,.49-4.91,.69-7.39,.62-2.51-.08-5.01-.45-7.44-1.09-.91-.27-1.66-.49-2.16-.7-.26-.08-.52-.18-.76-.31,.27,.03,.54,.1,.8,.19,.51,.16,1.26,.36,2.19,.58,2.4,.58,4.86,.91,7.33,1,2.47,.07,4.95-.1,7.39-.51,.94-.17,1.69-.32,2.22-.43,.26-.09,.53-.14,.8-.15h0Z" fill="#fff"></path>
    <g>
      <polygon points="701.16 98.75 651.04 343.58 436.01 343.58 487.89 98.75 701.16 98.75" fill="#e6e7e8"></polygon>
      <path d="M651.44,344.08h-216.05l52.09-245.83h214.29l-.12,.6-50.2,245.23h-.01Zm-214.82-1h214l49.92-243.83h-212.25l-51.67,243.83Z" fill="#002346"></path>
    </g>
    <g>
      <rect x="369.99" y="288" width="209.67" height="270.18" rx="6.43" ry="6.43" fill="#fff"></rect>
      <path d="M573.23,558.68h-196.81c-3.82,0-6.93-3.11-6.93-6.93V294.43c0-3.82,3.11-6.93,6.93-6.93h196.81c3.82,0,6.93,3.11,6.93,6.93v257.32c0,3.82-3.11,6.93-6.93,6.93Zm-196.81-270.18c-3.27,0-5.93,2.66-5.93,5.93v257.32c0,3.27,2.66,5.93,5.93,5.93h196.81c3.27,0,5.93-2.66,5.93-5.93V294.43c0-3.27-2.66-5.93-5.93-5.93h-196.81Z" fill="#002346"></path>
    </g>
    <g>
      <rect x="353.7" y="288" width="209.67" height="270.18" rx="6.43" ry="6.43" fill="#59cf8c"></rect>
      <path d="M556.94,558.68h-196.81c-3.82,0-6.93-3.11-6.93-6.93V294.43c0-3.82,3.11-6.93,6.93-6.93h196.81c3.82,0,6.93,3.11,6.93,6.93v257.32c0,3.82-3.11,6.93-6.93,6.93Zm-196.81-270.18c-3.27,0-5.93,2.66-5.93,5.93v257.32c0,3.27,2.66,5.93,5.93,5.93h196.81c3.27,0,5.93-2.66,5.93-5.93V294.43c0-3.27-2.66-5.93-5.93-5.93h-196.81Z" fill="#002346"></path>
    </g>
    <g>
      <rect x="367.18" y="307.91" width="183.29" height="39.19" rx="2.41" ry="2.41" fill="#fff"></rect>
      <path d="M548.06,347.6h-178.47c-1.6,0-2.91-1.31-2.91-2.91v-34.37c0-1.6,1.31-2.91,2.91-2.91h178.47c1.6,0,2.91,1.31,2.91,2.91v34.37c0,1.6-1.31,2.91-2.91,2.91Zm-178.47-39.19c-1.05,0-1.91,.86-1.91,1.91v34.37c0,1.05,.86,1.91,1.91,1.91h178.47c1.05,0,1.91-.86,1.91-1.91v-34.37c0-1.05-.86-1.91-1.91-1.91h-178.47Z" fill="#002346"></path>
    </g>
    <g opacity=".2">
      <rect x="462.39" y="371.95" width="36.24" height="36.24" rx="2.41" ry="2.41" fill="#fff"></rect>
    </g>
    <g>
      <rect x="458.53" y="371.95" width="36.24" height="36.24" rx="2.41" ry="2.41" fill="#59cf8c"></rect>
      <path d="M492.36,408.69h-31.42c-1.6,0-2.91-1.31-2.91-2.91v-31.42c0-1.6,1.31-2.91,2.91-2.91h31.42c1.6,0,2.91,1.31,2.91,2.91v31.42c0,1.6-1.31,2.91-2.91,2.91Zm-31.42-36.24c-1.05,0-1.91,.86-1.91,1.91v31.42c0,1.05,.86,1.91,1.91,1.91h31.42c1.05,0,1.91-.86,1.91-1.91v-31.42c0-1.05-.86-1.91-1.91-1.91h-31.42Z" fill="#002346"></path>
    </g>
    <g id="d">
      <path d="M478.65,332.97c.58,.42,1.29,.63,2,.59,.96,.06,1.88-.43,2.36-1.27,.6-1.36,.86-2.85,.75-4.34-.38,.54-.92,.95-1.53,1.19-.68,.28-1.41,.43-2.15,.42-.93,.01-1.85-.19-2.68-.6-.79-.4-1.46-1.02-1.9-1.79-.48-.89-.72-1.89-.69-2.9-.21-2.81,1.9-5.27,4.71-5.48,.26-.02,.53-.02,.79,0,1.73-.16,3.41,.63,4.4,2.06,.87,1.37,1.31,3.48,1.3,6.31,.04,1.61-.13,3.22-.49,4.79-.23,1.1-.83,2.09-1.69,2.82-.97,.68-2.15,1.02-3.34,.95-1.37,.09-2.72-.37-3.75-1.27-.88-.84-1.4-1.99-1.47-3.2h2.38c.11,.68,.47,1.29,1,1.72h0Zm4.05-6.44c.55-.62,.83-1.43,.79-2.26,.05-.89-.24-1.77-.83-2.44-.6-.6-1.42-.92-2.26-.88-.85-.04-1.67,.28-2.26,.9-1.09,1.36-1.09,3.28,0,4.64,.65,.63,1.54,.96,2.45,.89,.79,.04,1.56-.27,2.11-.85h0Z" fill="#002346"></path>
    </g>
    <g id="e">
      <path d="M490.2,321.1c.89-1.48,2.41-2.22,4.58-2.22s3.69,.74,4.58,2.22c.98,1.9,1.44,4.02,1.33,6.15,.12,2.15-.34,4.29-1.33,6.21-1.97,2.53-5.61,2.99-8.14,1.02-.38-.3-.72-.64-1.02-1.02-.98-1.92-1.44-4.06-1.33-6.21-.11-2.13,.35-4.25,1.33-6.15h0Zm7.71,3c-.13-.77-.48-1.49-1-2.08-1.24-1.06-3.08-1.06-4.32,0-.52,.59-.86,1.31-1,2.08-.17,1.03-.25,2.07-.24,3.12-.02,1.07,.06,2.14,.23,3.2,.12,.78,.47,1.51,1,2.09,1.25,1.07,3.09,1.07,4.34,0,.53-.58,.88-1.31,1-2.09,.16-1.06,.24-2.13,.22-3.2,.02-1.03-.06-2.07-.23-3.09v-.03Z" fill="#002346"></path>
    </g>
    <path d="M506.62,332.63l-2.75,6.27h-1.68l1.61-6.27h2.82Z" fill="#002346"></path>
    <g id="f">
      <path d="M509.88,321.1c.89-1.48,2.41-2.22,4.58-2.22,1.82-.17,3.59,.68,4.58,2.22,.98,1.9,1.44,4.02,1.33,6.15,.11,2.15-.35,4.29-1.33,6.21-1.97,2.53-5.61,2.99-8.14,1.02-.38-.3-.72-.64-1.02-1.02-.99-1.92-1.45-4.06-1.33-6.21-.11-2.13,.35-4.25,1.33-6.15h0Zm7.7,3c-.14-.77-.48-1.49-1-2.08-.57-.56-1.36-.86-2.16-.8-.8-.06-1.59,.23-2.16,.8-.52,.59-.86,1.31-1,2.08-.17,1.03-.24,2.08-.23,3.12-.02,1.07,.06,2.14,.22,3.2,.12,.78,.47,1.51,1,2.09,1.25,1.07,3.09,1.07,4.34,0,.53-.58,.88-1.31,1-2.09,.17-1.06,.25-2.13,.23-3.2,.01-1.04-.07-2.07-.24-3.09v-.03h0Z" fill="#002346"></path>
    </g>
    <g id="g">
      <path d="M524.44,321.1c1-1.54,2.77-2.39,4.59-2.22,2.17,0,3.69,.74,4.58,2.22,.98,1.9,1.44,4.02,1.33,6.15,.12,2.15-.34,4.29-1.33,6.21-1.97,2.53-5.61,2.99-8.14,1.02-.38-.3-.72-.64-1.02-1.02-.98-1.92-1.44-4.06-1.33-6.21-.11-2.13,.34-4.25,1.32-6.15Zm7.71,3c-.13-.77-.48-1.49-1-2.08-.57-.57-1.36-.86-2.16-.8-.8-.06-1.59,.24-2.16,.8-.52,.59-.86,1.31-1,2.08-.17,1.03-.25,2.07-.24,3.12-.01,1.07,.06,2.14,.23,3.2,.12,.78,.47,1.51,1,2.09,.58,.56,1.37,.85,2.17,.8,.8,.06,1.6-.23,2.17-.8,.53-.58,.88-1.31,1-2.09,.17-1.06,.24-2.13,.23-3.2,.01-1.04-.07-2.07-.24-3.09v-.03Z" fill="#002346"></path>
    </g>
    <g opacity=".2">
      <rect x="508.47" y="371.95" width="36.24" height="36.24" rx="2.41" ry="2.41" fill="#fff"></rect>
    </g>
    <g>
      <rect x="504.6" y="371.95" width="36.24" height="36.24" rx="2.41" ry="2.41" fill="#59cf8c"></rect>
      <path d="M538.43,408.69h-31.42c-1.6,0-2.91-1.31-2.91-2.91v-31.42c0-1.6,1.31-2.91,2.91-2.91h31.42c1.6,0,2.91,1.31,2.91,2.91v31.42c0,1.6-1.31,2.91-2.91,2.91Zm-31.42-36.24c-1.05,0-1.91,.86-1.91,1.91v31.42c0,1.05,.86,1.91,1.91,1.91h31.42c1.05,0,1.91-.86,1.91-1.91v-31.42c0-1.05-.86-1.91-1.91-1.91h-31.42Z" fill="#002346"></path>
    </g>
    <g opacity=".2">
      <rect x="415.69" y="371.95" width="36.24" height="36.24" rx="2.41" ry="2.41" fill="#fff"></rect>
    </g>
    <g>
      <rect x="411.82" y="371.95" width="36.24" height="36.24" rx="2.41" ry="2.41" fill="#59cf8c"></rect>
      <path d="M445.65,408.69h-31.42c-1.6,0-2.91-1.31-2.91-2.91v-31.42c0-1.6,1.31-2.91,2.91-2.91h31.42c1.6,0,2.91,1.31,2.91,2.91v31.42c0,1.6-1.31,2.91-2.91,2.91Zm-31.42-36.24c-1.05,0-1.91,.86-1.91,1.91v31.42c0,1.05,.86,1.91,1.91,1.91h31.42c1.05,0,1.91-.86,1.91-1.91v-31.42c0-1.05-.86-1.91-1.91-1.91h-31.42Z" fill="#002346"></path>
    </g>
    <g id="h">
      <path d="M475.03,396.59c.58,.42,1.29,.63,2,.59,.96,.06,1.88-.43,2.36-1.27,.6-1.36,.86-2.85,.75-4.34-.39,.54-.92,.96-1.54,1.2-.68,.28-1.41,.43-2.14,.42-.93,.02-1.85-.19-2.68-.61-.8-.39-1.46-1.02-1.9-1.79-.48-.89-.72-1.89-.69-2.9-.07-1.48,.46-2.92,1.46-4,1.07-1.02,2.52-1.56,4-1.48,1.73-.16,3.41,.62,4.4,2.05,.87,1.37,1.31,3.48,1.31,6.31,.04,1.61-.13,3.22-.49,4.79-.24,1.1-.84,2.09-1.69,2.82-.97,.69-2.15,1.02-3.34,.95-1.37,.09-2.72-.37-3.75-1.27-.88-.84-1.41-1.99-1.48-3.2h2.42c.11,.68,.47,1.29,1,1.73h0Zm4.06-6.44c.54-.63,.82-1.43,.78-2.26,.06-.89-.24-1.77-.82-2.44-.6-.6-1.42-.92-2.27-.88-.85-.04-1.67,.29-2.26,.9-.57,.65-.87,1.49-.83,2.35-.03,.84,.26,1.66,.81,2.29,.64,.64,1.54,.96,2.44,.89,.79,.03,1.55-.28,2.09-.85h.06Z" fill="#fff"></path>
    </g>
    <g opacity=".2">
      <rect x="369.24" y="371.95" width="36.24" height="36.24" rx="2.41" ry="2.41" fill="#fff"></rect>
    </g>
    <g>
      <rect x="365.37" y="371.95" width="36.24" height="36.24" rx="2.41" ry="2.41" fill="#59cf8c"></rect>
      <path d="M399.2,408.69h-31.42c-1.6,0-2.91-1.31-2.91-2.91v-31.42c0-1.6,1.31-2.91,2.91-2.91h31.42c1.6,0,2.91,1.31,2.91,2.91v31.42c0,1.6-1.31,2.91-2.91,2.91Zm-31.42-36.24c-1.05,0-1.91,.86-1.91,1.91v31.42c0,1.05,.86,1.91,1.91,1.91h31.42c1.05,0,1.91-.86,1.91-1.91v-31.42c0-1.05-.86-1.91-1.91-1.91h-31.42Z" fill="#002346"></path>
    </g>
    <g opacity=".2">
      <rect x="462.39" y="418.58" width="36.24" height="36.24" rx="2.41" ry="2.41" fill="#fff"></rect>
    </g>
    <g>
      <rect x="458.53" y="418.58" width="36.24" height="36.24" rx="2.41" ry="2.41" fill="#59cf8c"></rect>
      <path d="M492.36,455.32h-31.42c-1.6,0-2.91-1.31-2.91-2.91v-31.42c0-1.6,1.31-2.91,2.91-2.91h31.42c1.6,0,2.91,1.31,2.91,2.91v31.42c0,1.6-1.31,2.91-2.91,2.91Zm-31.42-36.24c-1.05,0-1.91,.86-1.91,1.91v31.42c0,1.05,.86,1.91,1.91,1.91h31.42c1.05,0,1.91-.86,1.91-1.91v-31.42c0-1.05-.86-1.91-1.91-1.91h-31.42Z" fill="#002346"></path>
    </g>
    <g opacity=".2">
      <rect x="508.47" y="418.58" width="36.24" height="36.24" rx="2.41" ry="2.41" fill="#fff"></rect>
    </g>
    <g>
      <rect x="504.6" y="418.58" width="36.24" height="36.24" rx="2.41" ry="2.41" fill="#59cf8c"></rect>
      <path d="M538.43,455.32h-31.42c-1.6,0-2.91-1.31-2.91-2.91v-31.42c0-1.6,1.31-2.91,2.91-2.91h31.42c1.6,0,2.91,1.31,2.91,2.91v31.42c0,1.6-1.31,2.91-2.91,2.91Zm-31.42-36.24c-1.05,0-1.91,.86-1.91,1.91v31.42c0,1.05,.86,1.91,1.91,1.91h31.42c1.05,0,1.91-.86,1.91-1.91v-31.42c0-1.05-.86-1.91-1.91-1.91h-31.42Z" fill="#002346"></path>
    </g>
    <g opacity=".2">
      <rect x="415.69" y="418.58" width="36.24" height="36.24" rx="2.41" ry="2.41" fill="#fff"></rect>
    </g>
    <g>
      <rect x="411.82" y="418.58" width="36.24" height="36.24" rx="2.41" ry="2.41" fill="#59cf8c"></rect>
      <path d="M445.65,455.32h-31.42c-1.6,0-2.91-1.31-2.91-2.91v-31.42c0-1.6,1.31-2.91,2.91-2.91h31.42c1.6,0,2.91,1.31,2.91,2.91v31.42c0,1.6-1.31,2.91-2.91,2.91Zm-31.42-36.24c-1.05,0-1.91,.86-1.91,1.91v31.42c0,1.05,.86,1.91,1.91,1.91h31.42c1.05,0,1.91-.86,1.91-1.91v-31.42c0-1.05-.86-1.91-1.91-1.91h-31.42Z" fill="#002346"></path>
    </g>
    <g id="i">
      <path d="M478.72,431.7c-.54-.38-1.19-.56-1.84-.52-1.07-.06-2.1,.47-2.68,1.37-.7,1.41-1.03,2.98-.93,4.56,.41-.68,1-1.22,1.72-1.55,.77-.36,1.61-.55,2.46-.54,.92-.02,1.84,.21,2.65,.65,.77,.43,1.39,1.08,1.79,1.87,.85,1.83,.85,3.94,0,5.77-.4,.84-1.04,1.54-1.85,2-.9,.5-1.92,.74-2.95,.71-1.3,.09-2.59-.27-3.67-1-.92-.74-1.58-1.77-1.87-2.92-.38-1.54-.56-3.12-.53-4.7,0-5.55,1.95-8.32,5.86-8.32,1.31-.08,2.59,.37,3.58,1.23,.85,.79,1.4,1.85,1.54,3h-2.37c-.11-.63-.43-1.19-.91-1.61h0Zm-4.19,6.33c-.68,.61-1.05,1.49-1,2.4-.05,.91,.28,1.81,.9,2.48,.67,.65,1.58,.99,2.51,.93,.85,.04,1.67-.28,2.26-.89,.57-.65,.87-1.5,.83-2.36,.05-.9-.24-1.78-.81-2.47-.61-.64-1.48-.98-2.37-.92-.85-.02-1.67,.28-2.32,.83h0Z" fill="#fff"></path>
    </g>
    <g opacity=".2">
      <rect x="369.24" y="418.58" width="36.24" height="36.24" rx="2.41" ry="2.41" fill="#fff"></rect>
    </g>
    <g>
      <rect x="365.37" y="418.58" width="36.24" height="36.24" rx="2.41" ry="2.41" fill="#59cf8c"></rect>
      <path d="M399.2,455.32h-31.42c-1.6,0-2.91-1.31-2.91-2.91v-31.42c0-1.6,1.31-2.91,2.91-2.91h31.42c1.6,0,2.91,1.31,2.91,2.91v31.42c0,1.6-1.31,2.91-2.91,2.91Zm-31.42-36.24c-1.05,0-1.91,.86-1.91,1.91v31.42c0,1.05,.86,1.91,1.91,1.91h31.42c1.05,0,1.91-.86,1.91-1.91v-31.42c0-1.05-.86-1.91-1.91-1.91h-31.42Z" fill="#002346"></path>
    </g>
    <path d="M515.63,430.83c1.42-1.28,3.58-1.28,5,0,1.29,1.5,1.29,3.71,0,5.21-1.41,1.3-3.59,1.3-5,0-1.29-1.5-1.29-3.71,0-5.21Zm1,2.6c0,1.33,.48,2,1.43,2,.41,.02,.81-.16,1.06-.49,.29-.45,.42-.98,.38-1.51,0-1.33-.48-2-1.44-2-.9,.02-1.38,.68-1.38,2h-.05Zm11.84-3.25l-9.07,15.81h-2.54l9.17-15.81h2.44Zm-3.65,9.94c1.42-1.28,3.58-1.28,5,0,1.29,1.5,1.29,3.71,0,5.21-1.41,1.31-3.59,1.31-5,0-1.29-1.5-1.29-3.71,0-5.21Zm1,2.6c0,1.32,.47,2,1.43,2s1.43-.66,1.43-2-.48-2-1.43-2-1.34,.68-1.34,2h-.09Z" fill="#fff"></path>
    <g opacity=".2">
      <rect x="462.39" y="465.21" width="36.24" height="36.24" rx="2.41" ry="2.41" fill="#fff"></rect>
    </g>
    <g>
      <rect x="458.53" y="465.21" width="36.24" height="36.24" rx="2.41" ry="2.41" fill="#59cf8c"></rect>
      <path d="M492.36,501.95h-31.42c-1.6,0-2.91-1.31-2.91-2.91v-31.42c0-1.6,1.31-2.91,2.91-2.91h31.42c1.6,0,2.91,1.31,2.91,2.91v31.42c0,1.6-1.31,2.91-2.91,2.91Zm-31.42-36.24c-1.05,0-1.91,.86-1.91,1.91v31.42c0,1.05,.86,1.91,1.91,1.91h31.42c1.05,0,1.91-.86,1.91-1.91v-31.42c0-1.05-.86-1.91-1.91-1.91h-31.42Z" fill="#002346"></path>
    </g>
    <g opacity=".2">
      <rect x="508.47" y="465.21" width="36.24" height="36.24" rx="2.41" ry="2.41" fill="#fff"></rect>
    </g>
    <g>
      <rect x="504.6" y="465.21" width="36.24" height="36.24" rx="2.41" ry="2.41" fill="#59cf8c"></rect>
      <path d="M538.43,501.95h-31.42c-1.6,0-2.91-1.31-2.91-2.91v-31.42c0-1.6,1.31-2.91,2.91-2.91h31.42c1.6,0,2.91,1.31,2.91,2.91v31.42c0,1.6-1.31,2.91-2.91,2.91Zm-31.42-36.24c-1.05,0-1.91,.86-1.91,1.91v31.42c0,1.05,.86,1.91,1.91,1.91h31.42c1.05,0,1.91-.86,1.91-1.91v-31.42c0-1.05-.86-1.91-1.91-1.91h-31.42Z" fill="#002346"></path>
    </g>
    <g opacity=".2">
      <rect x="415.69" y="465.21" width="36.24" height="36.24" rx="2.41" ry="2.41" fill="#fff"></rect>
    </g>
    <g>
      <rect x="411.82" y="465.21" width="36.24" height="36.24" rx="2.41" ry="2.41" fill="#59cf8c"></rect>
      <path d="M445.65,501.95h-31.42c-1.6,0-2.91-1.31-2.91-2.91v-31.42c0-1.6,1.31-2.91,2.91-2.91h31.42c1.6,0,2.91,1.31,2.91,2.91v31.42c0,1.6-1.31,2.91-2.91,2.91Zm-31.42-36.24c-1.05,0-1.91,.86-1.91,1.91v31.42c0,1.05,.86,1.91,1.91,1.91h31.42c1.05,0,1.91-.86,1.91-1.91v-31.42c0-1.05-.86-1.91-1.91-1.91h-31.42Z" fill="#002346"></path>
    </g>
    <path d="M472.85,476.85c1.1-.81,2.44-1.23,3.8-1.18,.95-.02,1.89,.17,2.75,.57,.72,.33,1.33,.87,1.75,1.54,.39,.67,.6,1.43,.59,2.21,.02,.86-.24,1.71-.75,2.41-.45,.62-1.07,1.09-1.79,1.34v.09c.85,.24,1.59,.77,2.09,1.49,.53,.82,.79,1.78,.75,2.76,.01,.83-.2,1.66-.62,2.38-.43,.72-1.06,1.3-1.82,1.65-.9,.42-1.89,.63-2.88,.6-1.44,.05-2.85-.39-4-1.26-1.08-.89-1.7-2.22-1.7-3.62h2.5c.02,.77,.36,1.49,.94,2,.63,.53,1.44,.81,2.27,.76,.78,.05,1.56-.22,2.13-.76,.52-.53,.79-1.26,.75-2,.09-.88-.29-1.74-1-2.26-.95-.51-2.02-.75-3.1-.67h-.59v-2.12h.61c.97,.05,1.94-.16,2.81-.61,.65-.39,1.04-1.11,1-1.87,.03-.65-.23-1.28-.71-1.73-.56-.47-1.27-.7-2-.65-.73-.05-1.44,.18-2,.65-.46,.42-.76,.98-.84,1.6h-2.52c0-1.29,.59-2.5,1.58-3.32h0Z" fill="#fff"></path>
    <g opacity=".2">
      <rect x="369.24" y="465.21" width="36.24" height="36.24" rx="2.41" ry="2.41" fill="#fff"></rect>
    </g>
    <g>
      <rect x="365.37" y="465.21" width="36.24" height="36.24" rx="2.41" ry="2.41" fill="#59cf8c"></rect>
      <path d="M399.2,501.95h-31.42c-1.6,0-2.91-1.31-2.91-2.91v-31.42c0-1.6,1.31-2.91,2.91-2.91h31.42c1.6,0,2.91,1.31,2.91,2.91v31.42c0,1.6-1.31,2.91-2.91,2.91Zm-31.42-36.24c-1.05,0-1.91,.86-1.91,1.91v31.42c0,1.05,.86,1.91,1.91,1.91h31.42c1.05,0,1.91-.86,1.91-1.91v-31.42c0-1.05-.86-1.91-1.91-1.91h-31.42Z" fill="#002346"></path>
    </g>
    <path d="M527.39,483.08v2.18h-9.36v-2.18h9.36Z" fill="#fff"></path>
    <g opacity=".2">
      <rect x="462.39" y="510.43" width="36.24" height="36.24" rx="2.41" ry="2.41" fill="#fff"></rect>
    </g>
    <g>
      <rect x="458.53" y="510.43" width="36.24" height="36.24" rx="2.41" ry="2.41" fill="#59cf8c"></rect>
      <path d="M492.36,547.17h-31.42c-1.6,0-2.91-1.31-2.91-2.91v-31.42c0-1.6,1.31-2.91,2.91-2.91h31.42c1.6,0,2.91,1.31,2.91,2.91v31.42c0,1.6-1.31,2.91-2.91,2.91Zm-31.42-36.24c-1.05,0-1.91,.86-1.91,1.91v31.42c0,1.05,.86,1.91,1.91,1.91h31.42c1.05,0,1.91-.86,1.91-1.91v-31.42c0-1.05-.86-1.91-1.91-1.91h-31.42Z" fill="#002346"></path>
    </g>
    <path d="M476.67,533.23c-.8,.02-1.57-.29-2.14-.85-.56-.55-.88-1.31-.86-2.1-.03-1.62,1.26-2.97,2.88-3h.12c1.62,0,2.94,1.31,2.95,2.93v.07c0,.52-.13,1.04-.39,1.49-.26,.44-.63,.8-1.07,1.06-.45,.27-.97,.41-1.49,.4h0Z" fill="#fff"></path>
    <g opacity=".2">
      <rect x="508.47" y="510.43" width="36.24" height="36.24" rx="2.41" ry="2.41" fill="#fff"></rect>
    </g>
    <g>
      <rect x="504.6" y="510.43" width="36.24" height="36.24" rx="2.41" ry="2.41" fill="#59cf8c"></rect>
      <path d="M538.43,547.17h-31.42c-1.6,0-2.91-1.31-2.91-2.91v-31.42c0-1.6,1.31-2.91,2.91-2.91h31.42c1.6,0,2.91,1.31,2.91,2.91v31.42c0,1.6-1.31,2.91-2.91,2.91Zm-31.42-36.24c-1.05,0-1.91,.86-1.91,1.91v31.42c0,1.05,.86,1.91,1.91,1.91h31.42c1.05,0,1.91-.86,1.91-1.91v-31.42c0-1.05-.86-1.91-1.91-1.91h-31.42Z" fill="#002346"></path>
    </g>
    <g opacity=".2">
      <rect x="415.69" y="510.43" width="36.24" height="36.24" rx="2.41" ry="2.41" fill="#fff"></rect>
    </g>
    <g>
      <rect x="411.82" y="510.43" width="36.24" height="36.24" rx="2.41" ry="2.41" fill="#59cf8c"></rect>
      <path d="M445.65,547.17h-31.42c-1.6,0-2.91-1.31-2.91-2.91v-31.42c0-1.6,1.31-2.91,2.91-2.91h31.42c1.6,0,2.91,1.31,2.91,2.91v31.42c0,1.6-1.31,2.91-2.91,2.91Zm-31.42-36.24c-1.05,0-1.91,.86-1.91,1.91v31.42c0,1.05,.86,1.91,1.91,1.91h31.42c1.05,0,1.91-.86,1.91-1.91v-31.42c0-1.05-.86-1.91-1.91-1.91h-31.42Z" fill="#002346"></path>
    </g>
    <path d="M424.15,528.55h4.59v-4.7h2.41v4.7h4.59v2.23h-4.59v4.71h-2.41v-4.71h-4.59v-2.23Z" fill="#fff"></path>
    <g opacity=".2">
      <rect x="369.24" y="510.43" width="36.24" height="36.24" rx="2.41" ry="2.41" fill="#fff"></rect>
    </g>
    <g>
      <rect x="365.37" y="510.43" width="36.24" height="36.24" rx="2.41" ry="2.41" fill="#59cf8c"></rect>
      <path d="M399.2,547.17h-31.42c-1.6,0-2.91-1.31-2.91-2.91v-31.42c0-1.6,1.31-2.91,2.91-2.91h31.42c1.6,0,2.91,1.31,2.91,2.91v31.42c0,1.6-1.31,2.91-2.91,2.91Zm-31.42-36.24c-1.05,0-1.91,.86-1.91,1.91v31.42c0,1.05,.86,1.91,1.91,1.91h31.42c1.05,0,1.91-.86,1.91-1.91v-31.42c0-1.05-.86-1.91-1.91-1.91h-31.42Z" fill="#002346"></path>
    </g>
    <g id="j">
      <path d="M528.77,525.96v2.18h-12.09v-2.18h12.09Zm0,5.16v2.18h-12.09v-2.18h12.09Z" fill="#fff"></path>
    </g>
    <g>
      <polygon points="701.16 98.75 607.11 558.18 621.29 558.18 714.59 98.75 701.16 98.75" fill="#bcbec0"></polygon>
      <path d="M621.69,558.68h-15.2l.12-.6,94.13-459.83h14.45l-.12,.6-93.38,459.83Zm-13.98-1h13.16l93.1-458.43h-12.41l-93.85,458.43Z" fill="#002346"></path>
    </g>
    <g>
      <polygon points="714.59 98.75 787 561.52 770.57 561.52 706.87 136.76 714.59 98.75" fill="#bcbec0"></polygon>
      <path d="M787.58,562.02h-17.44l-.06-.43-63.71-424.85,8.29-40.82,.43,2.75,72.5,463.35h0Zm-16.58-1h15.42l-71.89-459.44-7.15,35.2,63.62,424.25h0Z" fill="#002346"></path>
    </g>
    <g>
      <polygon points="658.13 376.77 751.17 376.77 751.17 386.86 656.08 386.86 658.13 376.77" fill="#bcbec0"></polygon>
      <path d="M751.67,387.36h-96.2l2.25-11.09h93.95v11.09Zm-94.98-1h93.98v-9.09h-92.13l-1.85,9.09Z" fill="#002346"></path>
    </g>
    <path d="M474.67,283.59c-.12,0-.23-.04-.32-.11-.21-.18-.24-.49-.07-.71l45-55.05c.18-.21,.49-.24,.7-.07,.06,.05,.1,.11,.14,.18l15.39,34.08,74.77-94.48c.12-.16,.34-.23,.53-.17,.19,.05,.33,.21,.36,.41l11.86,93.88,23.65-18.55c.23-.15,.54-.09,.69,.14,.13,.2,.1,.47-.07,.64l-24.35,19.1c-.14,.12-.33,.14-.49,.07-.17-.06-.29-.22-.31-.4l-11.88-93.57-74.53,94.2c-.11,.14-.29,.21-.46,.18-.17-.02-.32-.13-.39-.29l-15.4-34.09-44.46,54.43c-.09,.11-.22,.17-.36,.18h0Z" fill="#59cf8c"></path>
    <circle cx="648.35" cy="242.55" r="5.15" fill="#59cf8c"></circle>
    <circle cx="638.06" cy="216.01" r="5.15" fill="#002346"></circle>
    <path d="M488.53,283.59c-.28-.01-.5-.25-.49-.53,0-.11,.05-.22,.12-.31l67.79-72.28c.13-.14,.32-.19,.5-.14,.18,.04,.32,.19,.35,.37l14.05,64,19.59-17.41c.13-.12,.31-.16,.48-.11,.17,.05,.3,.19,.34,.36l4.23,17.24,40.19-56.78c.16-.23,.47-.28,.7-.12h0c.22,.16,.28,.47,.12,.7l-40.83,57.67c-.11,.17-.31,.24-.5,.2-.19-.03-.35-.18-.39-.37l-4.3-17.54-19.6,17.42c-.2,.19-.51,.18-.69-.01-.07-.07-.11-.15-.13-.25l-14-63.87-67.14,71.59c-.09,.12-.24,.18-.39,.17h0Z" fill="#002346"></path>
    <g>
      <path d="M408.64,93.15l-29.13-9.19c3.88-12.29,15.07-20.82,27.95-21.31l1.18,30.5Z" fill="#002346"></path>
      <path d="M409.16,93.84l-30.28-9.55,.15-.48c3.93-12.46,15.35-21.17,28.41-21.66l.5-.02,1.23,31.71h-.01Zm-29.03-10.21l27.97,8.82-1.13-29.29c-12.26,.67-22.95,8.82-26.84,20.46h0Z" fill="#0d2445"></path>
    </g>
    <g>
      <path d="M439.17,93.15c0,6.75-2.24,13.31-6.39,18.63l-24.14-18.67-1.18-30.5h1.18c16.86,0,30.53,13.67,30.53,30.53h0Z" fill="#fff"></path>
      <path d="M432.86,112.48l-24.72-19.12v-.23l-1.21-31.02h1.7c8.29,0,16.08,3.23,21.94,9.09,5.86,5.86,9.09,13.65,9.09,21.94h0c0,6.83-2.3,13.55-6.5,18.94l-.31,.39h0Zm-23.74-19.61l23.56,18.22c3.87-5.14,5.99-11.49,5.98-17.93h0c0-8.03-3.12-15.57-8.79-21.24s-13.21-8.8-21.23-8.8h-.66l1.15,29.75h0Z" fill="#002346"></path>
    </g>
    <path d="M529.82,392.02h-14.19c-.27,0-.49-.23-.5-.5,0-.28,.22-.5,.5-.5h14.19c.28,0,.5,.22,.5,.5s-.22,.5-.5,.5Z" fill="#fff"></path>
    <circle cx="522.73" cy="397.15" r="1.93" fill="#fff"></circle>
    <circle cx="522.73" cy="386.11" r="1.93" fill="#fff"></circle>
    <g>
      <path d="M151.67,389.09l11.12,3s23.21,26.49,2.91,77.54h-58.31c-17.48,.02-33.54-9.62-41.75-25.06-8.51-16.07-13.75-38.56,.15-63.56l56.49-27.62,29.39,35.7h0Z" fill="#c39ad5"></path>
      <path d="M107.34,470.13c-17.69,0-33.84-9.7-42.14-25.32-7.89-14.9-14.27-38.1,.15-64.04l.08-.14,56.99-27.86,29.54,35.88,11.11,3,.1,.11c.23,.27,23.18,27.31,3,78.05l-.13,.32h-58.7Zm-41.19-88.74c-14.11,25.49-7.83,48.29-.07,62.95,8.13,15.3,23.94,24.79,41.26,24.79h58.02c19.07-48.29-1.28-74.67-2.85-76.6l-11.12-3-.1-.12-29.14-35.4-55.99,27.38h0Z" fill="#002346"></path>
    </g>
    <g>
      <path d="M147.77,203.41s-2.21,2.69-3.64,13.11l-26.44,11,1.18-15s9.22-8.13,16.67-23.9c0-.03,2.03,10.31,12.23,14.79Z" fill="#f2b3c1"></path>
      <path d="M117.12,228.29l1.26-16.02,.15-.13c.09-.08,9.24-8.26,16.55-23.74l.12-.25,.72-.08,.1,.46c.23,1.04,2.51,10.28,11.94,14.42l.6,.27-.42,.51c-.04,.05-2.16,2.84-3.53,12.86l-.04,.28-27.46,11.42h0Zm2.23-15.54l-1.1,13.99,25.42-10.58c1.11-7.91,2.67-11.34,3.36-12.54-7.75-3.65-10.69-10.62-11.62-13.58-6.78,13.82-14.85,21.6-16.06,22.71h0Z" fill="#002346"></path>
    </g>
    <g>
      <path d="M136.93,174.03l11.51-25.01c5.11-11.11,18.26-15.97,29.37-10.85h0c11.1,5.11,15.96,18.26,10.85,29.37l-11.51,25.01c-5.11,11.11-18.26,15.97-29.37,10.85h0c-11.1-5.11-15.96-18.26-10.85-29.37Z" fill="#f2b3c1"></path>
      <path d="M157.01,205.93c-3.16,0-6.37-.67-9.43-2.07h0c-5.49-2.53-9.67-7.04-11.77-12.72-2.09-5.67-1.86-11.82,.67-17.31l11.51-25.01c2.53-5.49,7.04-9.67,12.72-11.77,5.67-2.1,11.82-1.86,17.31,.67s9.67,7.04,11.77,12.72c2.1,5.67,1.86,11.82-.67,17.31l-11.51,25.01c-3.81,8.28-12.03,13.17-20.6,13.17h0Zm11.57-69.3c-2.53,0-5.07,.45-7.51,1.35-5.42,2-9.74,6-12.16,11.25l-11.51,25.01c-2.42,5.25-2.65,11.13-.64,16.55s6,9.74,11.25,12.15h0c10.84,4.99,23.71,.23,28.7-10.61l11.51-25.01c2.42-5.25,2.65-11.13,.64-16.55-2-5.42-6-9.74-11.25-12.15-2.88-1.33-5.95-1.99-9.03-1.99Z" fill="#002346"></path>
    </g>
    <path d="M153.83,156.55s47.68,7.86,43.42-15.57c0,0-5.48-42.3-59.95-30.13,0,0-25.56,3.05-37.43,41.39,0,0-3.65,24.95-31,35.9,0,0-24,8-28,45.08-1.35,10.91,.81,21.96,6.16,31.56,4.95,8.71,12.6,15.56,21.8,19.52l29.83-54.16s11.83-14.61,20.21-17.65c0,0,9.73-8.54,16.67-23.9,0,0-2.35-6.44,1.38-14.55l6.69-14.54,10.22-2.95h0Z" fill="#002346"></path>
    <g>
      <ellipse cx="144.13" cy="156.55" rx="11.56" ry="9.59" transform="translate(-47.15 249.78) rotate(-73.35)" fill="#f2b3c1"></ellipse>
      <path d="M143.11,168.46c-.82,0-1.64-.12-2.45-.36-2.6-.78-4.67-2.72-5.84-5.47-1.16-2.72-1.29-5.91-.37-8.98,.92-3.07,2.78-5.66,5.24-7.3,2.49-1.66,5.29-2.14,7.89-1.36,5.33,1.59,8.12,8.07,6.21,14.44-1.62,5.4-6.1,9.02-10.68,9.02h0Zm2-22.82c-1.65,0-3.32,.53-4.86,1.56-2.26,1.51-3.98,3.91-4.83,6.75h0c-.85,2.85-.74,5.79,.33,8.3,1.05,2.47,2.9,4.21,5.21,4.9,4.8,1.43,10.13-2.15,11.88-7.99,1.75-5.84-.74-11.76-5.54-13.2-.71-.21-1.45-.32-2.18-.32h-.01Z" fill="#002346"></path>
    </g>
    <g>
      <path d="M158.32,247.33s32.9,44,24.29,61.19c0,0-3.23,8.72-15.77,23.69-3.62,4.32-6.34,9.33-8,14.72-2.21,7.21-4.52,17.76-3.82,28.89,.19,2.23,.54,4.44,1.06,6.62,.83,3.88-1.56,14.36-55.84,7.26,0,0-19.68-2.15-26.76-9.53l32.55-110.39,52.29-22.45h0Z" fill="#59cf8c"></path>
      <path d="M131.14,392.59c-7.78,0-17.88-.69-30.97-2.4-.8-.09-19.93-2.25-27.06-9.68l-.2-.21,32.7-110.89,52.87-22.7,.24,.32c1.35,1.81,32.99,44.45,24.34,61.71-.11,.31-3.38,8.92-15.83,23.79-3.6,4.3-6.26,9.19-7.91,14.55-2.12,6.92-4.5,17.52-3.8,28.71,.19,2.19,.54,4.39,1.05,6.54,.27,1.26,.24,3.14-1.44,4.96-2.51,2.72-8.86,5.32-23.98,5.32v-.02Zm-57.11-12.57c7.04,7,26.06,9.15,26.25,9.17,38.13,4.99,50.46,1.34,54.09-2.6,1.39-1.5,1.42-3.04,1.2-4.06-.52-2.18-.88-4.43-1.07-6.68-.71-11.35,1.69-22.08,3.84-29.08,1.69-5.48,4.41-10.5,8.1-14.9,12.32-14.71,15.65-23.46,15.68-23.54,8.02-16.01-21.06-56.4-23.99-60.4l-51.71,22.2-32.4,109.88h.01Z" fill="#002346"></path>
    </g>
    <g>
      <path d="M65.79,291l-16.32,36.58s-12.58,26.76,8.16,48.59c0,0,13.36,13.84,50.88,6.76,0,0,67.34-5.84,99.63-20.91,0,0,12.6,11.07,31.67-9.84l9.92,9.69c1.82,1.79,4.74,1.79,6.56,0h0c1.78-1.78,1.83-4.66,.11-6.5l-13-13.88c-1.53-1.67-2.98-3.41-4.34-5.22-2.26-3-8.54-8.12-22.61-1.89l-18.92,8.92-78.5-22.52,1.58-3-54.82-26.78h0Z" fill="#f2b3c1"></path>
      <path d="M88.32,385.47c-22.09,0-30.62-8.5-31.05-8.95-20.74-21.83-8.38-48.88-8.25-49.15l16.53-37.04,.47,.23,55.28,27.01-1.53,2.91,77.73,22.3,18.75-8.84c14.68-6.5,21.13-.74,23.22,2.04,1.34,1.79,2.79,3.54,4.31,5.18l13,13.88c1.91,2.05,1.86,5.21-.12,7.2-2,1.98-5.26,1.98-7.26,0l-9.55-9.33c-17.5,18.9-29.82,11.13-31.76,9.7-32.11,14.84-98.85,20.77-99.52,20.83-7.74,1.46-14.45,2.04-20.23,2.04h-.02Zm-22.29-93.8l-16.11,36.11c-.13,.27-12.19,26.72,8.06,48.04,.13,.13,13.67,13.55,50.43,6.61,.72-.07,67.67-6.01,99.51-20.87l.29-.14,.25,.21c.5,.44,12.48,10.47,30.97-9.8l.35-.38,10.29,10.05c1.62,1.6,4.25,1.6,5.86,0,1.6-1.6,1.64-4.15,.1-5.8l-13-13.88c-1.54-1.67-3.01-3.44-4.38-5.26-1.95-2.59-8-7.93-22.01-1.73l-19.08,9-.18-.05-79.09-22.69,1.63-3.09-53.89-26.33h0Z" fill="#002346"></path>
    </g>
    <g>
      <path d="M168.48,401.78s80.66-2.2,111.32,2.91c0,0,27.26,1.27,41.32,27.25s53.66,90.72,53.66,90.72l-41.31,26.84s-54.09-52.82-64.74-82.63l-103,2.74s16.35-38.32,2.75-67.83h0Z" fill="#f2b3c1"></path>
      <path d="M333.4,550.14l-.29-.28c-.54-.53-53.88-52.84-64.74-82.48l-103.42,2.75,.31-.72c.16-.38,16.1-38.46,2.76-67.42l-.32-.69,.76-.02c.81-.02,81.06-2.14,111.42,2.92,.22,0,27.65,1.58,41.68,27.51,13.89,25.67,53.25,90.05,53.65,90.7l.25,.42-42.05,27.32h0Zm-64.33-83.79l.12,.34c10.09,28.25,60.08,77.96,64.33,82.16l40.56-26.36c-3.42-5.6-40.1-65.72-53.42-90.33-13.76-25.42-40.63-26.98-40.9-26.99-28.74-4.79-102.27-3.13-110.53-2.93,11.99,27.06-.65,61.46-2.77,66.83l102.6-2.73h0Z" fill="#002346"></path>
    </g>
    <g>
      <path d="M333.47,549.54c8.33,8.42,31.73,22.09,31.73,22.09v3.39c46.4,21.88,58.1,11.7,58.1,11.7-29.43-17.72-48.52-64-48.52-64l-41.31,26.82h0Z" fill="#fff"></path>
      <path d="M412.59,589.62c-8.7,0-23.49-2.78-47.6-14.15l-.29-.14v-3.42c-2.54-1.5-23.77-14.12-31.58-22.02l-.43-.44,42.33-27.48,.23,.56c.19,.46,19.37,46.33,48.32,63.76l.59,.35-.52,.45c-.23,.2-3.09,2.53-11.04,2.53h-.01Zm-46.89-14.92c39.61,18.62,53.71,13.61,56.66,12.03-27.12-16.83-45.53-58-47.8-63.26l-40.29,26.16c8.54,8.31,30.96,21.44,31.19,21.58l.25,.14v3.36h-.01Z" fill="#002346"></path>
    </g>
    <g>
      <path d="M381.8,601.44c8.04,.91,15.91,2.93,23.39,6,6.79,4.91,24.15,10.94,24.15,10.94,27.15,6.79,24.51-6.79,24.51-6.79,2.64-14.34-30.55-24.9-30.55-24.9,0,0-11.7,10.18-58.1-11.7-9.06,26.79,16.6,26.45,16.6,26.45h0Z" fill="#59cf8c"></path>
      <path d="M442.35,620.79c-3.61,0-8-.64-13.13-1.93-.75-.26-17.47-6.09-24.27-10.98-7.42-3.03-15.21-5.03-23.17-5.94-.72,.01-11.04-.06-16.2-7.14-3.45-4.73-3.73-11.45-.85-19.97l.18-.53,.51,.24c45.58,21.49,57.44,11.87,57.56,11.77l.21-.18,.27,.08c1.37,.44,33.45,10.82,30.91,25.38,.09,.61,.43,3.77-2.19,6.26-2.07,1.96-5.35,2.94-9.82,2.94h0Zm-60.53-19.85h.03c8.08,.92,16,2.95,23.52,6.04l.1,.06c6.65,4.81,23.85,10.81,24.02,10.87,13.81,3.45,19.57,1.49,21.96-.77,2.45-2.31,1.92-5.33,1.89-5.45l-.02-.09,.02-.09c2.41-13.11-26.95-23.25-29.96-24.25-1.89,1.34-15.04,8.54-57.9-11.56-2.58,7.93-2.28,14.17,.89,18.52,4.94,6.79,15.31,6.73,15.41,6.73h.04Z" fill="#002346"></path>
    </g>
    <g>
      <rect x="136.76" y="388.06" width="139.51" height="13.28" fill="#59cf8c"></rect>
      <path d="M276.77,401.84H136.26v-14.28h140.51v14.28Zm-139.51-1h138.51v-12.28H137.26v12.28Z" fill="#002346"></path>
    </g>
    <g>
      <rect x="228.52" y="330.69" width="132.55" height="13.28" transform="translate(-128.1 485.19) rotate(-68.12)" fill="#59cf8c"></rect>
      <path d="M276.53,401.97l-13.25-5.32,49.77-123.93,13.25,5.32-49.77,123.93Zm-11.95-5.88l11.4,4.58,49.02-122.07-11.4-4.58-49.02,122.07Z" fill="#002346"></path>
    </g>
    <g>
      <circle cx="268.73" cy="394.71" r="6.37" fill="#fff"></circle>
      <path d="M268.73,401.58c-3.79,0-6.87-3.08-6.87-6.87s3.08-6.87,6.87-6.87,6.87,3.08,6.87,6.87-3.08,6.87-6.87,6.87Zm0-12.74c-3.24,0-5.87,2.63-5.87,5.87s2.63,5.87,5.87,5.87,5.87-2.63,5.87-5.87-2.63-5.87-5.87-5.87Z" fill="#002346"></path>
    </g>
    <g>
      <rect x="73.45" y="467.99" width="184.21" height="28.56" fill="#59cf8c"></rect>
      <path d="M258.16,497.05H72.95v-29.56h185.21v29.56Zm-184.21-1h183.21v-27.56H73.95v27.56Z" fill="#002346"></path>
    </g>
    <g>
      <rect x="188.55" y="467.99" width="35.61" height="28.56" fill="#fff"></rect>
      <path d="M224.66,497.05h-36.61v-29.56h36.61v29.56Zm-35.61-1h34.61v-27.56h-34.61v27.56Z" fill="#002346"></path>
    </g>
    <g>
      <rect x="112.2" y="467.99" width="10.45" height="28.56" fill="#fff"></rect>
      <path d="M123.15,497.05h-11.45v-29.56h11.45v29.56Zm-10.45-1h9.45v-27.56h-9.45v27.56Z" fill="#002346"></path>
    </g>
    <g>
      <rect x="98.06" y="467.99" width="5.53" height="28.56" fill="#fff"></rect>
      <path d="M104.09,497.05h-6.53v-29.56h6.53v29.56Zm-5.53-1h4.53v-27.56h-4.53v27.56Z" fill="#002346"></path>
    </g>
    <g>
      <rect x="98.05" y="496.56" width="184.21" height="28.56" fill="#c39ad5"></rect>
      <path d="M282.76,525.62H97.55v-29.56h185.21v29.56Zm-184.21-1h183.21v-27.56H98.55v27.56Z" fill="#002346"></path>
    </g>
    <g>
      <rect x="213.15" y="496.56" width="35.61" height="28.56" fill="#fff"></rect>
      <path d="M249.26,525.62h-36.61v-29.56h36.61v29.56Zm-35.61-1h34.61v-27.56h-34.61v27.56Z" fill="#002346"></path>
    </g>
    <g>
      <rect x="136.8" y="496.56" width="10.45" height="28.56" fill="#fff"></rect>
      <path d="M147.75,525.62h-11.45v-29.56h11.45v29.56Zm-10.45-1h9.45v-27.56h-9.45v27.56Z" fill="#002346"></path>
    </g>
    <g>
      <rect x="122.66" y="496.56" width="5.53" height="28.56" fill="#fff"></rect>
      <path d="M128.69,525.62h-6.53v-29.56h6.53v29.56Zm-5.53-1h4.53v-27.56h-4.53v27.56Z" fill="#002346"></path>
    </g>
    <g>
      <rect x="73.45" y="525.12" width="184.21" height="28.56" fill="#59cf8c"></rect>
      <path d="M258.16,554.18H72.95v-29.56h185.21v29.56Zm-184.21-1h183.21v-27.56H73.95v27.56Z" fill="#002346"></path>
    </g>
    <g>
      <rect x="188.55" y="525.12" width="35.61" height="28.56" fill="#fff"></rect>
      <path d="M224.66,554.18h-36.61v-29.56h36.61v29.56Zm-35.61-1h34.61v-27.56h-34.61v27.56Z" fill="#002346"></path>
    </g>
    <g>
      <rect x="112.2" y="525.12" width="10.45" height="28.56" fill="#fff"></rect>
      <path d="M123.15,554.18h-11.45v-29.56h11.45v29.56Zm-10.45-1h9.45v-27.56h-9.45v27.56Z" fill="#002346"></path>
    </g>
    <g>
      <rect x="98.06" y="525.12" width="5.53" height="28.56" fill="#fff"></rect>
      <path d="M104.09,554.18h-6.53v-29.56h6.53v29.56Zm-5.53-1h4.53v-27.56h-4.53v27.56Z" fill="#002346"></path>
    </g>
    <g>
      <rect x="81.92" y="553.69" width="184.21" height="28.56" fill="#c39ad5"></rect>
      <path d="M266.63,582.75H81.42v-29.56h185.21v29.56Zm-184.21-1h183.21v-27.56H82.42v27.56Z" fill="#002346"></path>
    </g>
    <g>
      <rect x="197.01" y="553.69" width="35.61" height="28.56" fill="#fff"></rect>
      <path d="M233.12,582.75h-36.61v-29.56h36.61v29.56Zm-35.61-1h34.61v-27.56h-34.61v27.56Z" fill="#002346"></path>
    </g>
    <g>
      <rect x="120.66" y="553.69" width="10.45" height="28.56" fill="#fff"></rect>
      <path d="M131.61,582.75h-11.45v-29.56h11.45v29.56Zm-10.45-1h9.45v-27.56h-9.45v27.56Z" fill="#002346"></path>
    </g>
    <g>
      <rect x="106.53" y="553.69" width="5.53" height="28.56" fill="#fff"></rect>
      <path d="M112.56,582.75h-6.53v-29.56h6.53v29.56Zm-5.53-1h4.53v-27.56h-4.53v27.56Z" fill="#002346"></path>
    </g>
    <g>
      <rect x="98.05" y="581.5" width="184.21" height="28.56" fill="#59cf8c"></rect>
      <path d="M282.76,610.56H97.55v-29.56h185.21v29.56Zm-184.21-1h183.21v-27.56H98.55v27.56Z" fill="#002346"></path>
    </g>
    <g>
      <rect x="213.15" y="581.5" width="35.61" height="28.56" fill="#fff"></rect>
      <path d="M249.26,610.56h-36.61v-29.56h36.61v29.56Zm-35.61-1h34.61v-27.56h-34.61v27.56Z" fill="#002346"></path>
    </g>
    <g>
      <rect x="136.8" y="581.5" width="10.45" height="28.56" fill="#fff"></rect>
      <path d="M147.75,610.56h-11.45v-29.56h11.45v29.56Zm-10.45-1h9.45v-27.56h-9.45v27.56Z" fill="#002346"></path>
    </g>
    <g>
      <rect x="122.66" y="581.5" width="5.53" height="28.56" fill="#fff"></rect>
      <path d="M128.69,610.56h-6.53v-29.56h6.53v29.56Zm-5.53-1h4.53v-27.56h-4.53v27.56Z" fill="#002346"></path>
    </g>
    <g>
      <path d="M120.57,317.78l-54.78-26.78,32.87-60.86s19.78-33.48,48.38-11.57c0,0,23.13,14,4,50.82l-30.47,48.39h0Z" fill="#59cf8c"></path>
      <path d="M120.75,318.43l-55.65-27.21,33.12-61.32c.1-.17,9.54-15.88,24.56-18.8,8.12-1.58,16.38,.8,24.56,7.07,.19,.11,23.26,14.64,4.14,51.45l-30.73,48.81Zm-54.28-27.65l53.91,26.35,30.23-48.01c18.65-35.91-3.61-49.99-3.84-50.13-7.99-6.11-15.98-8.43-23.81-6.91-14.59,2.83-23.79,18.15-23.88,18.31l-32.61,60.38h0Z" fill="#002346"></path>
    </g>
    <path d="M390.73,384.78l-6.32,14.57h-2.61l6.39-14.3h-8.41v-2.2h10.95v1.93h0Z" fill="#fff"></path>
    <path d="M377.47,442.54v-1.95l7.63-11h3.14v10.66h2.11v2.25h-2.11v3.45h-2.55v-3.45l-8.22,.04h0Zm8.34-10.27l-5.36,8h5.36v-8Z" fill="#fff"></path>
    <path d="M379.89,478.42v-2.36h4.73v16.56h-2.59v-14.2h-2.14Z" fill="#fff"></path>
    <g id="k">
      <path d="M381.56,523.2c.89-1.48,2.41-2.21,4.58-2.21s3.69,.73,4.58,2.21c.98,1.9,1.44,4.02,1.33,6.15,.12,2.15-.34,4.29-1.33,6.21-1.97,2.53-5.61,2.99-8.14,1.02-.38-.3-.72-.64-1.02-1.02-.98-1.92-1.44-4.06-1.33-6.21-.11-2.13,.35-4.25,1.33-6.15h0Zm7.71,3c-.14-.77-.48-1.49-1-2.08-1.24-1.07-3.08-1.07-4.32,0-.52,.59-.86,1.31-1,2.08-.17,1.03-.25,2.07-.24,3.12-.02,1.07,.06,2.14,.23,3.2,.12,.78,.47,1.51,1,2.09,1.25,1.07,3.09,1.07,4.34,0,.53-.59,.87-1.31,1-2.09,.16-1.06,.24-2.13,.22-3.2,.01-1.03-.07-2.07-.23-3.09v-.03h0Z" fill="#fff"></path>
    </g>
    <g id="l">
      <path d="M424.49,386.98c-.03-1.67,.94-3.19,2.46-3.87,1.92-.81,4.08-.81,6,0,.77,.34,1.41,.91,1.85,1.62,.41,.68,.63,1.46,.62,2.25,.01,.8-.21,1.58-.65,2.24-.42,.64-1.02,1.16-1.71,1.49,.81,.3,1.51,.85,2,1.56,.51,.74,.77,1.63,.75,2.53,.02,.93-.24,1.83-.75,2.61-.52,.77-1.24,1.38-2.09,1.75-1.94,.83-4.14,.83-6.08,0-.84-.38-1.57-.98-2.08-1.75-.51-.78-.77-1.68-.75-2.61-.02-.91,.24-1.8,.75-2.55,.5-.7,1.19-1.24,2-1.54-1.46-.65-2.38-2.13-2.32-3.73h0Zm3,5.6c-.64,.52-.99,1.31-.94,2.13-.03,.8,.31,1.57,.91,2.1,.69,.57,1.57,.86,2.47,.81,.89,.05,1.77-.25,2.45-.82,.59-.53,.92-1.29,.9-2.09,.04-.81-.3-1.6-.93-2.12-.69-.52-1.55-.79-2.42-.74-.87-.04-1.73,.22-2.43,.73h-.01Zm4.63-7.23c-.62-.49-1.4-.74-2.19-.69-.78-.04-1.54,.2-2.15,.69-.56,.51-.86,1.25-.8,2-.02,.71,.29,1.4,.83,1.86,.6,.49,1.35,.74,2.12,.71,.78,.03,1.54-.23,2.14-.73,.55-.46,.86-1.14,.84-1.86,.06-.75-.23-1.48-.78-1.98h-.01Z" fill="#fff"></path>
    </g>
    <path d="M434.73,431.66h-7.61v4.52c.37-.47,.86-.84,1.42-1.07,.63-.29,1.31-.43,2-.43,1.09-.05,2.17,.24,3.1,.82,.76,.5,1.35,1.22,1.7,2.06,.34,.84,.51,1.74,.51,2.64,.02,1.04-.2,2.06-.64,3-.44,.84-1.11,1.54-1.94,2-2.28,1.16-5.01,.98-7.12-.47-1-.81-1.64-1.97-1.79-3.25h2.52c.15,.68,.55,1.28,1.11,1.69,.63,.44,1.39,.66,2.16,.63,.92,.05,1.81-.31,2.42-1,.57-.74,.86-1.66,.81-2.59,.06-.91-.24-1.81-.82-2.51-.64-.62-1.52-.94-2.41-.88-.67-.02-1.32,.17-1.87,.56-.52,.38-.9,.9-1.11,1.51h-2.44v-9.51h10v2.28h0Z" fill="#fff"></path>
    <path d="M426.18,489.1c1.46-1.26,2.61-2.29,3.45-3.1,.8-.76,1.5-1.61,2.1-2.54,.53-.78,.82-1.69,.84-2.63,.04-.77-.19-1.53-.65-2.14-.52-.54-1.25-.82-2-.77-.79-.05-1.55,.27-2.08,.85-.52,.65-.8,1.46-.79,2.29h-2.5c-.19-2.75,1.88-5.15,4.64-5.34,.23-.02,.47-.02,.7,0,1.42-.09,2.82,.4,3.88,1.36,.95,.96,1.46,2.28,1.4,3.64,0,1.1-.29,2.18-.83,3.14-.54,.99-1.21,1.9-2,2.71-.76,.79-1.74,1.71-2.92,2.76l-1,.91h7.2v2.15h-11v-1.88l1.56-1.41h0Z" fill="#fff"></path>
    <path d="M107.3,344.08c-.08,0-.16-.02-.23-.06-.25-.13-.34-.43-.22-.67l11.73-22.8c.13-.25,.43-.34,.67-.22,.25,.13,.34,.43,.22,.67l-11.73,22.8c-.09,.17-.26,.27-.44,.27h0Z" fill="#002346"></path>
    <path d="M268.73,467.37h-.03c-.28-.02-.49-.25-.47-.53l1.52-24.13c.02-.27,.23-.48,.53-.47,.28,.02,.49,.25,.47,.53l-1.52,24.13c-.02,.26-.24,.47-.5,.47Z" fill="#002346"></path>
    <g>
      <path d="M432.78,111.78h0c-10.34,13.33-29.52,15.76-42.85,5.42-10.09-7.83-14.25-21.11-10.42-33.29l29.13,9.19,24.14,18.68h0Z" fill="#c39ad5"></path>
      <path d="M408.61,124.09c-6.65,0-13.34-2.12-18.99-6.5-10.21-7.92-14.46-21.51-10.59-33.84l.15-.48,29.76,9.42,24.54,18.99-.31,.4c-6.11,7.88-15.29,12.01-24.56,12.01h0Zm-28.77-39.56c-3.49,11.8,.65,24.71,10.4,32.27,12.96,10.05,31.62,7.81,41.84-4.94l-23.67-18.32-28.56-9.01h0Z" fill="#002346"></path>
    </g>
    <g>
      <rect x="482.72" y="87.55" width="237.85" height="11.2" fill="#bcbec0"></rect>
      <path d="M721.07,99.25h-238.85v-12.2h238.85v12.2Zm-237.85-1h236.85v-10.2h-236.85v10.2Z" fill="#002346"></path>
    </g>
    <circle cx="121.88" cy="112.07" r="21" fill="#002346"></circle>
  </g>
  <g>
    <g>
      <path d="M664.62,479.87s0,8.25,1.46,16.98c0,0,10-32.71,42.85-28.49l-6.45-14.22-5.34-5.34c-13.19,6.85-25.85,2.73-32.51,31.06h0Z" fill="#7cd295"></path>
      <path d="M665.92,499.15l-.37-2.21c-1.45-8.68-1.46-16.99-1.46-17.07v-.12c5.15-21.85,14.11-24.75,23.59-27.82,3-.97,6.1-1.97,9.21-3.59l.34-.18,5.72,5.77,6.85,15.08-.94-.12c-32-4.11-42.18,27.8-42.28,28.12l-.66,2.14Zm-.78-19.22c0,.7,.07,7.4,1.14,14.84,2.8-6.94,14.25-30.03,41.77-27.03l-6.03-13.28-5-5c-3.07,1.55-6.1,2.53-9.03,3.48-9.58,3.1-17.86,5.78-22.86,26.99h.01Z" fill="#002346"></path>
    </g>
    <g>
      <path d="M757.69,457.45c-29.65,.03-34.08-43.66-4.13-80.03,.1-.12,.29-.04,.27,.12-1.18,12.39,35.22,56.84,11.36,77.18-2.1,1.79-4.75,2.74-7.51,2.74h.01Z" fill="#7cd295"></path>
      <path d="M757.66,457.97c-9.82,0-17.52-4.83-21.66-13.6-8.22-17.38-1.16-45.06,17.16-67.3,.19-.23,.51-.31,.79-.2,.28,.12,.45,.4,.42,.7-.36,3.75,3.03,10.9,6.95,19.18,8.82,18.63,20.9,44.14,4.23,58.34-2.16,1.85-4.95,2.86-7.85,2.87h-.04Zm-4.37-79.38c-20.46,25.34-22.85,51.57-16.34,65.35,3.96,8.38,11.31,12.99,20.71,12.99h.03c2.65,0,5.19-.93,7.17-2.61,16.05-13.68,4.17-38.77-4.5-57.09-3.79-8.02-6.86-14.49-7.06-18.63h-.01Z" fill="#002346"></path>
    </g>
    <g>
      <path d="M755.9,441.12c-18.71-11.11-14.48-44.39,40.94-64.03,.1-.04,.21,.06,.17,.16-.63,1.81-4.3,13.59-6.23,46.82-.51,8.86-13.17,29.95-34.88,17.05Z" fill="#7cd295"></path>
      <path d="M769.08,445.7c-3.81,0-8.31-1.08-13.45-4.13-7.29-4.33-11-11.7-10.16-20.21,1.69-17.27,20.83-34.01,51.2-44.77,.24-.09,.51-.02,.69,.15,.18,.18,.24,.44,.16,.68-.7,2.01-4.29,13.73-6.2,46.67-.3,5.14-4.67,14.85-13.12,19.33-2.32,1.23-5.38,2.27-9.11,2.27h-.01Zm27.18-67.83c-29.53,10.63-48.11,26.9-49.75,43.61-.79,8.09,2.73,15.09,9.65,19.2,7.72,4.58,15.16,5.21,21.53,1.83,7.74-4.11,12.27-13.37,12.56-18.46,1.75-30.15,4.92-42.66,6.01-46.18h0Z" fill="#002346"></path>
    </g>
    <g>
      <path d="M775.26,514.08c.84,6.55-43.55,6.55-42.7,0-.84-6.55,43.55-6.55,42.7,0Z" fill="#002346"></path>
      <path d="M753.91,519.54c-8.58,0-17.15-1.03-20.39-3.09-1.08-.69-1.58-1.48-1.5-2.37-.08-.89,.42-1.69,1.5-2.37,6.48-4.12,34.3-4.12,40.77,0,1.08,.69,1.58,1.48,1.5,2.37,.08,.89-.42,1.69-1.5,2.37-3.24,2.06-11.81,3.09-20.38,3.09Zm0-9.85c-8.38,0-16.76,.97-19.82,2.91-.73,.46-1.07,.94-1.01,1.41v.14c-.06,.47,.28,.95,1.01,1.41,6.11,3.88,33.53,3.89,39.64,0,.73-.46,1.07-.94,1.01-1.41v-.14c.06-.47-.28-.95-1.01-1.41-3.06-1.94-11.44-2.91-19.82-2.91Z" fill="#002346"></path>
    </g>
    <g>
      <path d="M777.01,572.07c-1.92-.29-50.8,.84-50.92-.9-9.63-4.57-10.04-19.48-10.04-19.48-1.46-19.9,16.5-30.57,16.5-30.57v-7.04c-.84,6.55,43.55,6.55,42.7,0v7.52c23.5,15.42,18.74,48.91,1.75,50.47h0Z" fill="#59cf8c"></path>
      <path d="M748.41,572.68c-16.99,0-21.5-.36-22.55-1.05-9.79-4.66-10.31-19.31-10.33-19.93-1.37-18.65,14.28-29.45,16.5-30.88v-6.34c-.02-.16-.02-.32,0-.48l1.05,.07v.31c.06,.39,.4,.79,1.01,1.17,6.12,3.89,33.53,3.88,39.64,0,.6-.38,.94-.77,1-1.17v-.31l1.05-.07c.02,.16,.02,.32,0,.48v6.83c14.39,9.59,17.97,25.9,15.18,37.05-2.07,8.3-7.27,13.62-13.91,14.23h-.12c-.53-.08-5.56-.04-11.4,0-6.78,.06-12.43,.08-17.12,.08h0Zm-21.8-1.77c2.5,.94,26.11,.74,38.92,.64,6.95-.06,10.72-.08,11.5,0,6.15-.59,10.98-5.61,12.93-13.43,2.71-10.86-.82-26.78-14.98-36.07l-.24-.16v-5.74c-.13,.11-.28,.21-.44,.31-6.47,4.12-34.29,4.12-40.77,0-.16-.1-.31-.21-.44-.31v5.28l-.26,.15c-.18,.11-17.66,10.75-16.24,30.08,0,.17,.52,14.66,9.74,19.04l.28,.13v.08h0Z" fill="#002346"></path>
    </g>
    <path d="M755.53,525.43c-13.05,0-23.02-3.77-23.17-3.82l.38-.98c.21,.08,21.42,8.09,42.33,.48l.36,.99c-6.85,2.49-13.72,3.34-19.91,3.34h0Z" fill="#002346"></path>
    <path d="M776.72,530.34c.06,3.78-5.88,3.78-5.82,0-.06-3.78,5.88-3.78,5.82,0Z" fill="#fff"></path>
    <path d="M785.45,539.07c.06,3.78-5.88,3.78-5.82,0-.06-3.78,5.88-3.78,5.82,0Z" fill="#fff"></path>
    <path d="M786.91,553.15c.06,3.78-5.88,3.78-5.82,0-.06-3.78,5.88-3.78,5.82,0Z" fill="#fff"></path>
    <path d="M779.14,563.82c.06,3.78-5.88,3.78-5.82,0-.06-3.78,5.88-3.78,5.82,0Z" fill="#fff"></path>
    <path d="M755.36,566.73c.06,3.78-5.88,3.78-5.82,0-.06-3.78,5.88-3.78,5.82,0Z" fill="#fff"></path>
    <path d="M736.92,563.82c.06,3.78-5.88,3.78-5.82,0-.06-3.78,5.88-3.78,5.82,0Z" fill="#fff"></path>
    <path d="M726.73,555.57c.06,3.78-5.88,3.78-5.82,0-.06-3.78,5.88-3.78,5.82,0Z" fill="#fff"></path>
    <path d="M728.19,539.07c.06,3.78-5.88,3.78-5.82,0-.06-3.78,5.88-3.78,5.82,0Z" fill="#fff"></path>
    <path d="M738.86,529.37c.06,3.78-5.88,3.78-5.82,0-.06-3.78,5.88-3.78,5.82,0Z" fill="#fff"></path>
    <path d="M748.57,538.1c.06,3.78-5.88,3.78-5.82,0-.06-3.78,5.88-3.78,5.82,0Z" fill="#fff"></path>
    <path d="M737.41,545.87c.06,3.78-5.88,3.78-5.82,0-.06-3.78,5.88-3.78,5.82,0Z" fill="#fff"></path>
    <path d="M747.11,555.57c.06,3.78-5.88,3.78-5.82,0-.06-3.78,5.88-3.78,5.82,0Z" fill="#fff"></path>
    <path d="M757.79,547.32c.06,3.78-5.88,3.78-5.82,0-.06-3.78,5.88-3.78,5.82,0Z" fill="#fff"></path>
    <path d="M759.73,530.82c.06,3.78-5.88,3.78-5.82,0-.06-3.78,5.88-3.78,5.82,0Z" fill="#fff"></path>
    <path d="M768.47,541.01c.06,3.78-5.88,3.78-5.82,0-.06-3.78,5.88-3.78,5.82,0Z" fill="#fff"></path>
    <path d="M775.26,547.81c.06,3.78-5.88,3.78-5.82,0-.06-3.78,5.88-3.78,5.82,0Z" fill="#fff"></path>
    <path d="M765.55,557.51c.06,3.78-5.88,3.78-5.82,0-.06-3.78,5.88-3.78,5.82,0Z" fill="#fff"></path>
    <path d="M758.76,513.39c-.29,0-.52-.23-.53-.51-1.26-54,8.71-87.51,17.29-106.12,9.33-20.23,18.82-27.53,19.22-27.84,.23-.18,.56-.13,.74,.1s.13,.56-.1,.74c-.1,.07-9.73,7.5-18.94,27.53-8.51,18.5-18.4,51.83-17.15,105.56,0,.29-.22,.53-.51,.54h-.02Z" fill="#002346"></path>
    <g>
      <path d="M801.46,481.32c-16-13.04-38.76,4.86-16.01,27.18,0,0,11.65,10.68,16.5,21.84,0,0,22.32-16.01,22.81-37.85,0,0,0-22.32-23.29-11.16h-.01Z" fill="#7cd295"></path>
      <path d="M801.73,531.15l-.26-.6c-4.75-10.92-16.25-21.55-16.37-21.66-12.29-12.06-11.12-22.49-6.4-27.77s14.29-7.18,22.84-.41c7.49-3.53,13.4-3.98,17.58-1.35,6.1,3.84,6.17,12.76,6.17,13.13-.49,21.86-22.8,38.12-23.03,38.28l-.53,.38h0Zm-15.95-22.98c1.95,1.5,11.87,11.5,16.38,21.35,3.34-2.58,21.64-17.58,22.07-37.04,0-.07-.07-8.71-5.68-12.23-3.9-2.46-9.58-1.93-16.86,1.56l-.3,.14-.26-.21c-8.1-6.6-17.2-4.88-21.65,.09-4.41,4.93-5.4,14.78,6.34,26.3l-.04,.04h0Z" fill="#002346"></path>
    </g>
    <path d="M802.96,528.1l-1.04-.17c4.61-27.92,1.05-49.68-9.51-58.2-4.27-3.44-9.36-4.25-14.35-2.27-9.42,3.73-16.7,16.44-19.02,33.18l-1.04-.14c2.41-17.37,9.76-30.08,19.68-34.01,5.35-2.12,10.82-1.26,15.4,2.43,10.87,8.76,14.57,30.89,9.89,59.19h-.01Z" fill="#002346"></path>
    <g>
      <path d="M664.62,479.87c25.15-44.33,36.88,.01,74.73-6.31,.57-50.96-74.17-47.57-74.73,6.31Z" fill="#7cd295"></path>
      <path d="M664.07,481.9l.02-2.04c.17-16.68,7.74-30.46,20.77-37.8,12.26-6.91,27.5-7.05,38.81-.35,10.61,6.28,16.37,17.59,16.21,31.85v.44l-.44,.07c-15.36,2.56-26.24-3-35.83-7.91-13.77-7.05-23.72-12.14-38.53,13.96l-1.01,1.78h0Zm40.92-44.07c-6.69,0-13.52,1.72-19.61,5.15-7.22,4.07-19.22,13.93-20.18,34.82,14.76-24.92,25.44-19.46,38.88-12.58,9.36,4.79,19.96,10.21,34.74,7.88,.03-13.66-5.53-24.47-15.69-30.49-5.39-3.19-11.7-4.78-18.14-4.78h0Z" fill="#002346"></path>
    </g>
    <path d="M747.64,512.89l-1.05-.04c1.37-33.35-13.77-50.17-22.92-57.23-11.97-9.24-27.01-12.33-40.22-8.28l-.31-1.01c13.54-4.15,28.93-.99,41.17,8.46,9.31,7.18,24.72,24.28,23.33,58.11h0Z" fill="#002346"></path>
  </g>
</svg>
