<?xml version="1.0" encoding="UTF-8"?>
<svg xmlns="http://www.w3.org/2000/svg" id="a" width="865.76" height="682.89" viewBox="0 0 865.76 682.89">
  <g>
    <g>
      <circle cx="432.41" cy="100.05" r="79" transform="translate(55.9 335.06) rotate(-45)" fill="#c39ad5"></circle>
      <path d="M432.43,179.56c-34.73,0-66.72-22.96-76.56-58-11.86-42.2,12.83-86.18,55.03-98.04h0c20.44-5.75,41.9-3.19,60.42,7.21,18.52,10.39,31.88,27.38,37.62,47.82,11.86,42.2-12.83,86.18-55.03,98.04-7.16,2.01-14.38,2.97-21.48,2.97Zm-21.27-155.08c-41.67,11.71-66.04,55.14-54.33,96.81,11.71,41.67,55.14,66.04,96.81,54.33,41.67-11.71,66.05-55.14,54.33-96.81-5.67-20.19-18.87-36.96-37.15-47.22-18.29-10.26-39.47-12.79-59.66-7.12h0Z" fill="#002346"></path>
    </g>
    <g>
      <path d="M453.54,75.17c4.29-1.89,6.37,.14,7.35,2.07,.58,1.18,.84,2.49,.77,3.81l-1.28,33.03c-.15,5.06-1.66,9.99-4.37,14.26-10.24,15.91-31.66,22.77-31.66,22.77-11.37-3.69-18.78-10.19-23.55-16.89-6.08-8.63-9.07-19.05-8.48-29.59l1.07-22.87c.97-12.9,7.78-9.07,7.78-9.07,8.58,4.09,21.27-1.24,25.84-3.43,1.04-.51,2.27-.45,3.27,.15,3.99,2.41,14.77,8.16,23.27,5.77Z" fill="#59cf8c"></path>
      <path d="M424.35,151.64l-.15-.05c-10.05-3.26-18.05-9.01-23.8-17.07-6.12-8.68-9.16-19.3-8.57-29.91l1.07-22.86c.38-5.13,1.73-8.34,4-9.56,2.22-1.19,4.43,.02,4.53,.07,8.25,3.93,20.5-1.1,25.38-3.45,1.2-.58,2.6-.52,3.74,.17,4.12,2.49,14.59,8.02,22.84,5.72,4.84-2.12,7.07,.54,7.97,2.32,.62,1.26,.9,2.66,.82,4.06l-1.28,33.02c-.15,5.14-1.69,10.16-4.45,14.51-10.22,15.88-31.71,22.91-31.93,22.98l-.15,.05Zm-25.37-78.97c-.51,0-1.08,.1-1.63,.4-1.91,1.04-3.11,4.05-3.46,8.73l-1.07,22.85c-.57,10.38,2.41,20.78,8.39,29.28,5.59,7.84,13.38,13.45,23.14,16.65,1.93-.65,21.67-7.64,31.24-22.51,2.66-4.19,4.14-9.04,4.29-14.01l1.28-33.04c.07-1.23-.18-2.46-.72-3.56-1.32-2.6-3.57-3.22-6.7-1.84l-.07,.02c-8.64,2.43-19.42-3.26-23.66-5.82-.85-.51-1.9-.56-2.79-.12-5.01,2.41-17.6,7.57-26.27,3.44-.03-.02-.88-.48-1.97-.48Z" fill="#002346"></path>
    </g>
    <g>
      <path d="M425.6,107.63l-10.97-10.14c-3.13-2.9-8.01-2.76-10.98,.3h0c-2.97,3.07-2.94,7.94,.05,10.98l15,15.22c2.98,3.03,7.8,3.23,11.02,.46l46.14-39.77c3.03-2.63,3.53-7.15,1.15-10.37h0c-2.53-3.4-7.35-4.11-10.75-1.58-.14,.1-.27,.21-.4,.32l-40.25,34.58Z" fill="#fff"></path>
      <path d="M424.46,126.89c-2.23,0-4.45-.86-6.11-2.55l-15-15.22c-3.21-3.26-3.24-8.39-.06-11.67,3.13-3.24,8.37-3.38,11.68-.32l10.64,9.83,39.91-34.29c.14-.12,.28-.23,.43-.34,3.62-2.7,8.76-1.94,11.45,1.68,2.52,3.42,1.99,8.27-1.22,11.05l-46.14,39.77c-1.61,1.38-3.6,2.07-5.59,2.07Zm-15.16-30.98c-1.93,0-3.86,.75-5.29,2.22-2.8,2.89-2.78,7.41,.05,10.28l15,15.22c2.79,2.83,7.33,3.02,10.33,.43l46.14-39.77c2.82-2.44,3.29-6.7,1.07-9.7-2.36-3.17-6.87-3.84-10.05-1.47-.13,.1-.25,.2-.38,.3l-40.59,34.87-11.29-10.44c-1.4-1.3-3.2-1.94-4.99-1.94Z" fill="#002346"></path>
    </g>
  </g>
  <g>
    <g>
      <g>
        <path d="M166.15,107.54c-18.24,0-38.45-2.89-57.06-11.95-2.12,.98-19.17,8.53-40.78,8.53-13.73,0-29.3-3.05-44.05-12.78l-.22-.14V44.37H315.72v48.09l-.16,.15c-.31,.28-31.99,28.04-91.11,5.88-2.33,.79-27.5,9.04-58.3,9.04Zm-57.06-13.03l.22,.11c51.04,24.96,114.35,3.13,114.98,2.9l.17-.06,.17,.06c56.51,21.24,87.62-3.4,90.12-5.5V45.35H25.02v45.34c38.85,25.42,83.42,4.15,83.86,3.93l.22-.11Z" fill="#002346"></path>
        <path d="M166.15,116.31c-18.24,0-38.45-2.89-57.06-11.95-2.12,.98-19.17,8.53-40.78,8.53-13.73,0-29.3-3.05-44.05-12.78l-.22-.14v-9.03h.98v8.51c38.85,25.42,83.42,4.15,83.86,3.93l.22-.11,.22,.11c51.04,24.96,114.35,3.13,114.98,2.9l.17-.06,.17,.06c56.51,21.24,87.62-3.4,90.12-5.5v-8.55h.98v8.99l-.16,.15c-.31,.28-31.99,28.04-91.11,5.88-2.33,.79-27.5,9.04-58.3,9.04Z" fill="#002346"></path>
        <path d="M166.15,128.01c-18.24,0-38.45-2.89-57.06-11.95-2.12,.98-19.17,8.53-40.78,8.53-13.73,0-29.3-3.05-44.05-12.78l-.22-.14v-11.96h.98v11.43c38.85,25.42,83.42,4.15,83.86,3.93l.22-.11,.22,.11c51.04,24.96,114.35,3.13,114.98,2.9l.17-.06,.17,.06c56.51,21.24,87.62-3.4,90.12-5.5v-11.47h.98v11.91l-.16,.15c-.31,.28-31.99,28.04-91.11,5.88-2.33,.79-27.5,9.04-58.3,9.04Z" fill="#002346"></path>
        <polygon points="301.41 469.8 36.6 469.8 36.6 117.69 37.58 117.69 37.58 468.83 300.43 468.83 300.43 121 301.41 121 301.41 469.8" fill="#002346"></polygon>
        <polygon points="277.11 433.74 60.91 433.74 60.91 123.91 61.88 123.91 61.88 432.77 276.13 432.77 276.13 126.76 277.11 126.76 277.11 433.74" fill="#002346"></polygon>
        <rect x="61.39" y="143.37" width="215.23" height=".97" fill="#002346"></rect>
        <rect x="61.39" y="239.86" width="215.23" height=".97" fill="#002346"></rect>
        <rect x="62.37" y="336.35" width="215.23" height=".97" fill="#002346"></rect>
        <rect x="132.37" y="123.91" width=".98" height="309.35" fill="#002346"></rect>
        <rect x="208.25" y="123.91" width=".98" height="309.35" fill="#002346"></rect>
        <polygon points="37.49 469.59 36.68 469.05 60.99 432.98 61.8 433.53 37.49 469.59" fill="#002346"></polygon>
        <polygon points="300.52 469.59 276.21 433.53 277.03 432.98 301.33 469.05 300.52 469.59" fill="#002346"></polygon>
      </g>
      <g>
        <path d="M692.15,107.54c-18.24,0-38.45-2.89-57.06-11.95-2.12,.98-19.17,8.53-40.78,8.53-13.73,0-29.3-3.05-44.05-12.78l-.22-.14V44.37h291.68v48.09l-.16,.15c-.31,.28-31.99,28.04-91.11,5.88-2.33,.79-27.5,9.04-58.3,9.04Zm-57.06-13.03l.22,.11c51.04,24.96,114.35,3.13,114.98,2.9l.17-.06,.17,.06c56.51,21.24,87.62-3.4,90.12-5.5V45.35h-289.73v45.34c38.85,25.42,83.42,4.15,83.86,3.93l.22-.11Z" fill="#002346"></path>
        <path d="M692.15,116.31c-18.24,0-38.45-2.89-57.06-11.95-2.12,.98-19.17,8.53-40.78,8.53-13.73,0-29.3-3.05-44.05-12.78l-.22-.14v-9.03h.98v8.51c38.85,25.42,83.42,4.15,83.86,3.93l.22-.11,.22,.11c51.04,24.96,114.35,3.13,114.98,2.9l.17-.06,.17,.06c56.51,21.24,87.62-3.4,90.12-5.5v-8.55h.98v8.99l-.16,.15c-.31,.28-31.99,28.04-91.11,5.88-2.33,.79-27.5,9.04-58.3,9.04Z" fill="#002346"></path>
        <path d="M692.15,128.01c-18.24,0-38.45-2.89-57.06-11.95-2.12,.98-19.17,8.53-40.78,8.53-13.73,0-29.3-3.05-44.05-12.78l-.22-.14v-11.96h.98v11.43c38.85,25.42,83.42,4.15,83.86,3.93l.22-.11,.22,.11c51.04,24.96,114.35,3.13,114.98,2.9l.17-.06,.17,.06c56.51,21.24,87.62-3.4,90.12-5.5v-11.47h.98v11.91l-.16,.15c-.31,.28-31.99,28.04-91.11,5.88-2.33,.79-27.5,9.04-58.3,9.04Z" fill="#002346"></path>
        <polygon points="827.41 469.8 562.6 469.8 562.6 117.69 563.58 117.69 563.58 468.83 826.43 468.83 826.43 121 827.41 121 827.41 469.8" fill="#002346"></polygon>
        <polygon points="803.11 433.74 586.91 433.74 586.91 123.91 587.88 123.91 587.88 432.77 802.13 432.77 802.13 126.76 803.11 126.76 803.11 433.74" fill="#002346"></polygon>
        <rect x="587.39" y="143.37" width="215.23" height=".97" fill="#002346"></rect>
        <rect x="587.39" y="239.86" width="215.23" height=".97" fill="#002346"></rect>
        <rect x="588.37" y="336.35" width="215.23" height=".97" fill="#002346"></rect>
        <rect x="658.37" y="123.91" width=".98" height="309.35" fill="#002346"></rect>
        <rect x="734.25" y="123.91" width=".98" height="309.35" fill="#002346"></rect>
        <polygon points="563.49 469.59 562.68 469.05 586.99 432.98 587.8 433.53 563.49 469.59" fill="#002346"></polygon>
        <polygon points="826.52 469.59 802.21 433.53 803.03 432.98 827.33 469.05 826.52 469.59" fill="#002346"></polygon>
      </g>
    </g>
    <g>
      <g>
        <path d="M316.12,652.35c-11.41,2.24-33.67,2-51.65,1.4-15.18-.53-27.3-1.4-27.3-1.4-2.74-13.7,8.22-19.22,8.22-19.22l25.56-7.4c1.38,.43,2.88,.04,3.87-1,1.79-.01,3.42,1.04,4.15,2.67,.2,.36,.37,.73,.5,1.12,8.06,10.43,28.94,17,28.94,17,6.81,2.72,7.71,6.83,7.71,6.83Z" fill="#c39ad5"></path>
        <path d="M286.66,654.67c-6.51,0-13.9-.14-22.2-.42-15.02-.52-27.2-1.39-27.32-1.4l-.38-.03-.07-.37c-2.78-13.91,8.37-19.71,8.48-19.76l25.79-7.48,.14,.04c1.2,.38,2.49,.04,3.36-.87l.15-.15h.21c1.98,0,3.8,1.15,4.61,2.96,.18,.32,.35,.7,.49,1.08,7.91,10.15,28.44,16.7,28.64,16.76,7.01,2.8,8.01,7.02,8.05,7.2l.11,.5-.5,.1c-6.21,1.22-15.97,1.83-29.56,1.83Zm-49.07-2.79c2.18,.15,13.39,.9,26.9,1.37,24.69,.82,41.83,.39,50.97-1.28-.48-1.13-2.16-3.96-7.23-5.98-.82-.26-21.09-6.72-29.15-17.16l-.08-.15c-.12-.36-.28-.71-.46-1.03-.64-1.43-2-2.35-3.51-2.41-1.09,1.03-2.62,1.42-4.07,1.02l-25.42,7.36c-.34,.18-10.31,5.39-7.94,18.27Z" fill="#002346"></path>
      </g>
      <g>
        <path d="M625.95,661.85l-82.14-2.4c-1.17-.04-2.17-.86-2.43-2-.19-.77-.25-1.57-.16-2.36,.77-6.57,12.39-6.85,12.39-6.85,9.59-1.37,26-12.33,26-12.33,0,0,7.93-5.94,16.44-8.19,3.74-1,7.6-1.29,11,0l1.37,.6c3.59,1.52,13.28,5.28,17.51,3.59,3,4.37,3.15,20.3,3.09,27-.03,1.66-1.4,2.97-3.06,2.94,0,0,0,0-.01,0Z" fill="#59cf8c"></path>
        <path d="M626.02,662.35s-.05,0-.07,0h-.02l-82.14-2.4c-1.4-.05-2.59-1.03-2.9-2.39-.21-.82-.26-1.67-.17-2.53,.81-6.93,12.38-7.28,12.88-7.3,9.31-1.33,25.57-12.14,25.73-12.25,.06-.04,8.08-6.01,16.59-8.26,4.38-1.17,8.19-1.17,11.31,.02l1.39,.61c2.97,1.26,12.99,5.23,17.12,3.58l.37-.15,.23,.33c2.94,4.28,3.25,18.93,3.18,27.29-.02,.94-.4,1.81-1.07,2.46-.66,.63-1.51,.98-2.42,.98Zm-.07-1h0c.67,0,1.31-.23,1.79-.7s.75-1.09,.77-1.75c.06-6.47-.11-21.75-2.8-26.39-4.52,1.39-13.68-2.12-17.49-3.73l-1.38-.6c-2.89-1.1-6.49-1.09-10.67,.03-8.32,2.2-16.19,8.05-16.27,8.11-.7,.47-16.64,11.05-26.23,12.42-.17,0-11.25,.35-11.96,6.41-.08,.73-.03,1.46,.15,2.18,.21,.93,1.02,1.59,1.96,1.62l82.13,2.4Z" fill="#002346"></path>
      </g>
      <g>
        <path d="M299.46,208.46l31.1-8.65,14.71,17.22,37.55,151.92s-18.8,7.44-22,7c-3.2-.44-59-5.87-59-5.87l-2.36-161.62Z" fill="#fff"></path>
        <path d="M361.11,376.47c-.13,0-.25,0-.35-.02-3.15-.43-58.42-5.81-58.98-5.87l-.45-.04v-.45s-2.37-162-2.37-162l31.78-8.84,14.99,17.55,.03,.11,37.66,152.34-.41,.16c-1.87,.74-17.94,7.05-21.9,7.05Zm-58.79-6.84c5.65,.55,55.52,5.41,58.57,5.83,2.47,.32,15.86-4.65,21.34-6.81l-37.42-151.38-14.43-16.89-30.42,8.46,2.35,160.79Z" fill="#002346"></path>
      </g>
      <g>
        <path d="M379.63,353.68s-30.2,14.89-48,4.7l-52.58,54.78-.68,15.29s.02,0,.05-.02l-2.15,47.63c-.32,7.79-2.24,15.43-5.66,22.44-2.26,4.57-4.96,12.22-7.4,25,0,0-18.4,47.81-21.54,99.38-.09,1.55-.18,3.11-.25,4.67,0,.1,0,.2,0,.31,.07,2.14,1.86,3.82,4,3.75,6.36-.3,18.47-1.37,25.47-5.08,.34-.18,.7-.32,1.08-.39,1.35-.24,4.84-.86,7.84-1.14,1.6-.13,2.95-1.24,3.38-2.79,1.11-3.88,3.21-12.56,5.92-29.65,.07-.36,.18-.71,.33-1.05,9.33-19.74,17.4-40.06,24.16-60.82,4.31-13.06,7.6-26.43,9.84-40,0,0,6.03,30.54,7.12,72.8,0,0,.8,27.58,3.56,44.27,.77,4.46,1.14,8.99,1.08,13.52-.11,5.61,1.14,12.76,8.79,9.76,.47-.18,.93-.39,1.37-.62,0,0,8.22-12.33,21.92-6.85,.72,.38,1.48,.64,2.28,.78,2.26,.4,5.48-.26,6-6.83h.01c.11-1.64,.09-3.27-.07-4.9,0,0-1.88-31.19-1.66-54.29,.09-9.02,1.36-18.01,4.07-26.61,1.45-4.61,3.07-13.98,3.07-32.81l1.51-88.06s.01,0,.02,0l.33-19.57-3.21-37.6Zm-39.03,64.01c-.02,.36-.05,.75-.07,1.13,.03-.38,.06-.77,.07-1.13Z" fill="#59cf8c"></path>
        <path d="M340.73,632.25c-1.11,0-2.08-.29-2.9-.86-2.18-1.52-3.23-4.92-3.13-10.12,.05-4.49-.31-9-1.07-13.42-2.73-16.54-3.56-44.06-3.57-44.34-.89-34.51-5.13-61.46-6.6-69.93-2.22,12.61-5.37,25.13-9.38,37.27-6.74,20.7-14.88,41.19-24.18,60.88-.13,.29-.23,.61-.29,.93-2.77,17.49-4.91,26.11-5.93,29.69-.48,1.74-2.02,3.01-3.82,3.15-2.98,.28-6.48,.9-7.79,1.13-.32,.06-.63,.18-.93,.34-7.08,3.75-19.13,4.83-25.69,5.14-1.16,.05-2.29-.38-3.14-1.18-.85-.8-1.34-1.88-1.38-3.05,0-.11,0-.23,0-.35,.07-1.56,.16-3.12,.25-4.67,3.11-51.06,21.39-99.05,21.57-99.53,2.06-10.81,4.56-19.26,7.42-25.04,3.41-6.99,5.29-14.47,5.61-22.24l2.11-46.85v-.76s.68-15.48,.68-15.48l.13-.14,52.85-55.06,.34,.19c17.37,9.94,47.23-4.57,47.53-4.71l.66-.32,3.27,38.33-1.86,107.68c0,19.13-1.68,28.48-3.09,32.96-2.59,8.22-3.95,17.13-4.04,26.46-.22,22.81,1.64,53.94,1.65,54.25,.16,1.63,.18,3.3,.07,4.95l-.03,.21c-.27,3.02-1.14,5.13-2.6,6.25-1.06,.82-2.43,1.11-3.97,.84-.85-.15-1.67-.43-2.43-.83-13.12-5.25-21.19,6.57-21.27,6.69l-.07,.11-.11,.06c-.46,.24-.94,.46-1.42,.64-1.26,.49-2.41,.74-3.44,.74Zm-17.34-144.36l.54,2.71c.06,.31,6.05,31.07,7.13,72.88,0,.27,.83,27.74,3.55,44.2,.78,4.48,1.14,9.06,1.09,13.61-.07,3.33,.35,7.64,2.7,9.28,1.3,.9,3.12,.91,5.41,0,.41-.16,.82-.34,1.21-.54,.89-1.24,9.24-12.21,22.44-6.93,.72,.37,1.43,.62,2.18,.75,1.27,.23,2.34,0,3.18-.64,1.26-.97,2.01-2.9,2.23-5.73l.02-.2c.09-1.54,.06-3.09-.08-4.62-.02-.33-1.88-31.49-1.66-54.34,.09-9.44,1.47-18.44,4.09-26.76,1.39-4.41,3.05-13.65,3.05-32.66l1.52-88.49h.02s.32-19.15,.32-19.15l-3.15-36.83c-4.6,2.16-30.87,13.7-47.47,4.56l-52.18,54.36-.64,14.32h0v.76s-2.14,47.63-2.14,47.63c-.32,7.91-2.24,15.52-5.71,22.64-2.82,5.7-5.29,14.07-7.36,24.88-.21,.56-18.43,48.42-21.53,99.32-.09,1.55-.18,3.1-.25,4.66,0,.09,0,.18,0,.27,.03,.9,.41,1.74,1.07,2.36,.66,.62,1.53,.95,2.42,.91,6.46-.3,18.35-1.36,25.25-5.02,.38-.21,.79-.36,1.22-.44,1.33-.24,4.86-.87,7.89-1.15,1.39-.11,2.57-1.08,2.94-2.43,1.02-3.56,3.14-12.14,5.91-29.59,.08-.41,.2-.8,.37-1.17,9.29-19.67,17.41-40.11,24.14-60.78,4.29-12.99,7.6-26.43,9.82-39.93l.45-2.72Zm17.63-69.03l-1-.07,.02-.34c.02-.26,.04-.53,.05-.78h0s1,.04,1,.04c-.01,.26-.03,.53-.05,.8l-.02,.34Z" fill="#002346"></path>
      </g>
      <g>
        <path d="M295.88,173.96s.16,8.47-1.21,11.21c0,0,7.72,3.67,9.34-7.07l-.52-1.1s-2.29,2.2-7.61-3.04Z" fill="#002346"></path>
        <path d="M297.56,186.28c-1.69,0-3.02-.62-3.1-.66l-.46-.22,.23-.46c1.3-2.6,1.16-10.89,1.16-10.98l-.02-1.23,.87,.86c4.84,4.76,6.9,3.05,6.92,3.03l.5-.44,.88,1.83-.02,.15c-.57,3.78-1.95,6.28-4.1,7.42-.97,.51-1.96,.68-2.85,.68Zm-2.23-1.39c.86,.29,2.83,.77,4.61-.18,1.82-.97,3.02-3.17,3.55-6.53l-.22-.47c-.97,.42-3.21,.69-6.89-2.59,0,2.28-.14,7.3-1.05,9.77Z" fill="#002346"></path>
      </g>
      <g>
        <path d="M304.01,178.1s3,15.21-4.55,22.78c0,0,6.17,7.58,8.91,13.06,0,0,30.14,8.22,23.29-9.59l-2.36-9.71s-14.58,5.16-25.29-16.54Z" fill="#f2b3c1"></path>
        <path d="M321.73,216.34c-6.34,0-13.04-1.79-13.49-1.92l-.22-.06-.1-.2c-2.68-5.37-8.79-12.89-8.85-12.97l-.28-.35,.32-.32c7.28-7.3,4.44-22.18,4.41-22.33l-.73-3.7,1.67,3.38c10.39,21.06,24.53,16.34,24.67,16.29l.52-.18,2.49,10.25c1.52,3.95,1.36,7.04-.52,9.12-2.06,2.28-5.91,2.99-9.89,2.99Zm-13.02-2.83c2.01,.52,17.54,4.29,22.17-.83,1.6-1.77,1.71-4.52,.31-8.15l-2.26-9.27c-2.64,.64-14.58,2.41-24.04-14.39,.48,4.75,.63,14.27-4.78,20.05,1.22,1.53,6.15,7.83,8.59,12.6Z" fill="#002346"></path>
      </g>
      <g>
        <path d="M331.66,356.42c0,17.37-3.6,29.57-9.1,38.08-17.45,27-53.92,16.72-53.92,16.72v-102.75l-12.33-52.06c-5.71-32,6.66-40.16,10.95-42,1.72-.75,3.39-1.6,5-2.56l6.25-3.62,2.24-1.3,3.28-1.91c3.19-1.76,6.17-3.88,8.88-6.31,3.84-3.63,6.6,2.16,6.6,2.16,3.43,3.39,8.91,13.06,8.91,13.06,2.15,3.78,4.03,7.71,5.62,11.75,7.7,19.06,12.52,44,14.78,57.67,1,6.16,1.52,10,1.52,10l1.32,63.07Z" fill="#c39ad5"></path>
        <path d="M284.47,413.58c-9.05,0-15.81-1.84-15.96-1.88l-.36-.1v-103.07l-12.32-52c-5.81-32.54,7.13-40.81,11.24-42.58,1.69-.74,3.36-1.59,4.94-2.53l11.77-6.83c3.16-1.74,6.12-3.84,8.8-6.25,1.12-1.06,2.29-1.49,3.47-1.27,2.21,.41,3.62,3,3.88,3.5,3.44,3.45,8.71,12.71,8.93,13.11,2.15,3.78,4.05,7.76,5.65,11.81,7.74,19.16,12.6,44.42,14.81,57.77,.99,6.1,1.52,9.98,1.52,10.01l1.32,63.14c0,16.02-3.09,28.93-9.18,38.35-10.01,15.49-26.34,18.81-38.51,18.81Zm-15.33-2.75c3.84,.96,36.88,8.34,53-16.6,5.98-9.26,9.02-21.98,9.02-37.8l-1.32-63.06h0s-.53-3.86-1.51-9.93c-2.2-13.31-7.04-38.49-14.75-57.56-1.58-4.01-3.46-7.95-5.59-11.69-.05-.1-5.49-9.65-8.83-12.95l-.1-.14s-1.31-2.68-3.2-3.03c-.85-.15-1.72,.19-2.61,1.02-2.74,2.47-5.76,4.61-8.98,6.38l-11.76,6.83c-1.62,.96-3.32,1.83-5.05,2.58-3.94,1.69-16.33,9.66-10.66,41.45l12.34,52.15v102.36Z" fill="#002346"></path>
      </g>
      <g>
        <path d="M395.18,391.28s-21.06,10.35-25.16-26.64c0,0-5.75-37.78-9.62-62.47-1.12-7.19-2.09-13.28-2.71-17,0,0-3.57-16.28-8.49-34.33-.78-2.88-1.61-5.81-2.44-8.72-4.45-15.45-9.61-30.49-14.09-36.32l-2.11-6s8.39,1.62,22.13,11.15c.74,.51,1.49,1,2.26,1.61,9.51,4.93,16.12,14.08,17.81,24.66,0,0,3.43,9.12,7.07,23.37h0c.23,.91,.47,1.84,.7,2.8v.05c3.68,14.77,6.12,29.82,7.29,45l7.36,82.84Z" fill="#c39ad5"></path>
        <path d="M388.82,393.12c-2.1,0-4.51-.43-6.93-1.76-6.64-3.65-10.8-12.62-12.36-26.67-.05-.36-5.79-38.04-9.62-62.45-1.13-7.28-2.1-13.31-2.71-17-.03-.14-3.62-16.45-8.48-34.28-.78-2.88-1.61-5.81-2.44-8.72-5.4-18.76-10.25-31.26-14.01-36.15l-.08-.14-2.4-6.82,.86,.17c.35,.07,8.65,1.75,22.32,11.23l.46,.32c.59,.4,1.2,.82,1.82,1.31,9.51,4.92,16.26,14.26,17.99,24.92,.27,.74,3.6,9.79,7.07,23.37l.15,.58c.18,.73,.37,1.46,.55,2.22v.12c3.68,14.68,6.13,29.85,7.3,45.01l7.39,83.18-.31,.15c-.18,.09-2.91,1.4-6.58,1.4Zm-55.7-187.56c3.88,5.1,8.63,17.35,14.12,36.42,.83,2.91,1.66,5.85,2.44,8.73,4.87,17.85,8.46,34.19,8.5,34.35,.62,3.71,1.58,9.75,2.72,17.03,3.83,24.41,9.56,62.09,9.62,62.47,1.52,13.72,5.5,22.44,11.84,25.92,5.42,2.98,10.95,1.04,12.3,.48l-7.33-82.48c-1.17-15.11-3.61-30.22-7.28-44.92v-.12c-.18-.69-.37-1.42-.55-2.14l-.15-.58c-3.59-14.06-7.02-23.23-7.05-23.32l-.03-.1c-1.66-10.38-8.22-19.46-17.55-24.29-.68-.52-1.27-.93-1.85-1.32l-.47-.32c-10.98-7.62-18.59-10.16-21.07-10.85l1.78,5.05Z" fill="#002346"></path>
      </g>
      <g opacity=".2">
        <path d="M276.43,283.36s14.24,39.42,28.69,45.12c1.62,.59,3.2,1.25,4.75,2l17.33,9-20.28-7.07c-1-.36-2.06-.68-3.11-1-1.77-.51-5.85-2.14-10.07-6.88-2.53-2.91-4.5-6.26-5.8-9.89l-11.51-31.28Z"></path>
      </g>
      <g>
        <path d="M414.73,651.03c-11.42,2.24-33.68,2-51.65,1.4-15.18-.53-27.31-1.4-27.31-1.4-2.74-13.7,8.22-19.22,8.22-19.22l25.57-7.4c1.37,.43,2.87,.04,3.86-1,1.79-.02,3.42,1.03,4.15,2.67,.21,.36,.38,.73,.51,1.12,8.05,10.43,28.93,17,28.93,17,6.85,2.67,7.72,6.83,7.72,6.83Z" fill="#c39ad5"></path>
        <path d="M385.26,653.35c-6.51,0-13.9-.14-22.2-.42-15.02-.52-27.21-1.39-27.33-1.4l-.38-.03-.07-.37c-2.78-13.91,8.37-19.71,8.49-19.76l25.8-7.48,.14,.05c1.18,.37,2.5,.03,3.35-.87l.15-.15h.21s.03,0,.04,0c1.98,0,3.77,1.16,4.57,2.97,.19,.31,.36,.69,.5,1.08,7.9,10.15,28.43,16.7,28.63,16.76,7.05,2.75,8.02,7.02,8.06,7.2l.1,.5-.5,.1c-6.22,1.22-15.97,1.83-29.56,1.83Zm-49.08-2.79c2.18,.15,13.4,.9,26.91,1.37,24.69,.82,41.83,.39,50.97-1.28-.47-1.13-2.13-3.99-7.24-5.98-.83-.26-21.09-6.73-29.14-17.16l-.08-.15c-.12-.36-.28-.7-.47-1.03-.64-1.44-2-2.36-3.51-2.42-1.08,1.02-2.63,1.41-4.06,1.02l-25.43,7.36c-.34,.18-10.31,5.39-7.94,18.27Z" fill="#002346"></path>
      </g>
      <g>
        <path d="M414.73,651.03c-.51,6.85-6.31,6.85-6.31,6.85h-63.06c-11,0-9.59-6.85-9.59-6.85,0,0,12.13,.87,27.31,1.4,17.97,.6,40.23,.79,51.65-1.4Z" fill="#fff"></path>
        <path d="M408.42,658.38h-63.06c-4.27,0-7.26-1.01-8.88-3-1.67-2.05-1.22-4.36-1.2-4.45l.09-.43,.44,.03c.12,0,12.3,.88,27.29,1.4,25.03,.84,42.37,.37,51.54-1.39l.64-.12-.05,.65c-.54,7.23-6.75,7.31-6.81,7.31Zm-72.2-6.82c-.03,.67,.07,2,1.05,3.2,1.43,1.74,4.15,2.62,8.09,2.62h63.06c.21,0,4.98-.09,5.74-5.74-9.4,1.67-26.58,2.1-51.1,1.29-13.33-.47-24.44-1.2-26.85-1.37Z" fill="#002346"></path>
      </g>
      <g>
        <path d="M316.12,652.35c-.5,6.85-6.3,6.85-6.3,6.85h-63.1c-11,0-9.59-6.85-9.59-6.85,0,0,12.12,.87,27.3,1.4,17.98,.64,40.24,.84,51.69-1.4Z" fill="#fff"></path>
        <path d="M309.82,659.7h-63.1c-4.27,0-7.26-1.01-8.88-3-1.67-2.05-1.22-4.36-1.2-4.45l.09-.43,.44,.03c.12,0,12.29,.88,27.28,1.4,17.16,.61,40.04,.86,51.58-1.39l.64-.13-.05,.65c-.53,7.23-6.74,7.31-6.8,7.31Zm-72.24-6.82c-.03,.67,.07,2,1.05,3.2,1.43,1.74,4.15,2.62,8.09,2.62h63.1c.21,0,4.98-.09,5.73-5.73-11.82,2.14-34.25,1.89-51.14,1.29-13.33-.47-24.43-1.2-26.83-1.37Z" fill="#002346"></path>
      </g>
      <g>
        <path d="M363.79,353.68l7.18,2.3c11.9,3.66,19.22,0,19.22,0,7.84,5,12.77-2.3,12.77-2.3,8.27,4.11,8.72-.25,8.44-2.69-.12-.86-.65-1.6-1.42-2-4.29-2.23-8.09-5.29-11.19-9-5.48-4.11-3.61-12.13-3.61-12.13,3.23-10.76,0-11.33,0-11.33l-14.2,13.87c-5.48,4.11-15.37,2.28-15.37,2.28l-1.07,18.27c-.11,.94-.37,1.86-.75,2.73Z" fill="#f2b3c1"></path>
        <path d="M395.56,358.23c-1.6,0-3.42-.46-5.41-1.68-1.43,.62-8.47,3.25-19.33-.09l-7.71-2.47,.22-.51c.36-.83,.6-1.7,.71-2.59l1.1-18.8,.56,.1c.1,.02,9.74,1.74,14.98-2.19l14.33-14.01,.25,.04c.11,.02,.68,.16,1.17,.94,.78,1.26,1.27,4.19-.78,11.02,0,.05-1.72,7.72,3.43,11.59l.08,.08c3.07,3.68,6.79,6.66,11.04,8.88,.91,.47,1.54,1.36,1.68,2.37,.24,2.08-.22,3.58-1.33,4.36-1.48,1.04-3.93,.72-7.46-.97-.82,1.02-3.52,3.92-7.54,3.92Zm-5.34-2.82l.24,.15c7.32,4.67,11.9-1.88,12.09-2.16l.25-.36,.39,.19c4.14,2.06,5.99,1.81,6.81,1.23,1-.7,1.05-2.25,.91-3.42-.1-.68-.53-1.29-1.15-1.61-4.35-2.27-8.16-5.32-11.31-9.08-5.62-4.27-3.83-12.27-3.75-12.61,2.01-6.69,1.45-9.23,.94-10.15-.13-.23-.26-.37-.36-.46l-13.94,13.62c-4.94,3.71-13.04,2.83-15.25,2.5l-1.04,17.72c-.1,.83-.3,1.63-.58,2.39l6.67,2.13c11.54,3.55,18.77,.06,18.84,.03l.25-.13Z" fill="#002346"></path>
      </g>
      <g>
        <path d="M426.19,341.35c-6.85,5.48-16.22,7.63-16.22,7.63-8-4.71-11.18-9-11.18-9-4.11-2.74-3.92-9.36-3.92-9.36-3.74-1-6-2.53-7.24-4-1.15-1.2-1.83-2.77-1.91-4.43h36.4c-1.41,9.57,4.07,19.16,4.07,19.16Z" fill="#f2b3c1"></path>
        <path d="M409.89,349.51l-.17-.1c-7.54-4.44-10.81-8.46-11.27-9.06-3.68-2.52-4.04-7.84-4.07-9.35-4.01-1.14-6.08-2.83-7.12-4.06-1.21-1.26-1.94-2.95-2.03-4.73l-.02-.52h37.5l-.08,.57c-1.37,9.29,3.96,18.74,4.01,18.84l.21,.37-.33,.27c-6.86,5.49-16.33,7.71-16.42,7.73l-.19,.04Zm-23.62-26.82c.18,1.34,.78,2.6,1.72,3.58,1,1.19,3.01,2.79,7.01,3.86l.38,.1v.39c-.01,.06-.14,6.38,3.69,8.93l.12,.12s3.18,4.21,10.86,8.76c1.34-.33,9.39-2.49,15.5-7.23-.99-1.86-5.02-10.06-4-18.53h-35.28Z" fill="#002346"></path>
      </g>
      <g>
        <path d="M627.59,630.43c-.35,.68-.95,1.2-1.67,1.45-4.23,1.69-13.92-2.07-17.51-3.59l-1.37-.6c-8.22-5.48-11-2.74-11-2.74-13.7,5.48-12.33-4.51-12.33-4.51v-10.95c0-14.57-3.45-28.95-10.06-41.94-6.22-12.22-11.86-20.69-11.86-20.69,0,13.1-1.55,21.47-3,26.43-1.71,5.84-2.48,11.91-2.48,17.99v39.12c-.08,.14-.17,.26-.25,.4-.87,1.43-1.87,2.77-3,4-2.22,2.63-5.35,4.32-8.77,4.74-8.9,.92-17.73-8.15-22.11-13.52-.1-.12-.2-.24-.29-.36-1.66-2.07-2.6-4.62-2.67-7.27l-1.27-48.24c-5.48-38.36-6.94-151.73-6.94-151.73-1.45-39.38,1.72-52,1.72-52v-34.19c4,2.69,13.44-.48,13.44-.48,9.59,6.85,39.73,6.85,39.73,6.85l-4.11,5.48c-2.3,2.3-1.7,5.09-.23,7.54,1.54,2.36,3.47,4.44,5.71,6.16,9.59,9.59,13.7,4.11,13.7,4.11l8.26-10.87c1.23,3.69,2.04,7.5,2.4,11.37,1.52,14.69-2.17,28.87-2.17,28.87-5.26,28-.23,63.79-.23,63.79,2.54,8.92,3.92,18.13,4.11,27.4,0,7.67,1.33,10.64,2.14,11.73,1.1,1.5,2.7,4.09,3.52,5.75,2.32,4.71,3.91,9.75,4.73,14.95,.73,4.68,1.72,9.31,3.22,13.81l.1,.31c15.08,42.51,20.55,101.42,20.55,101.42Z" fill="#c39ad5"></path>
        <path d="M543.02,640.1c-8.66,0-16.95-8.51-21.23-13.77l-.29-.36c-1.72-2.14-2.71-4.83-2.78-7.57l-1.27-48.24c-5.42-37.89-6.93-150.6-6.94-151.74-1.38-37.59,1.48-51.03,1.72-52.06v-35.07l.78,.52c3.75,2.53,12.91-.51,13-.54l.24-.08,.21,.15c9.35,6.68,39.14,6.76,39.44,6.76h1l-4.71,6.28c-1.83,1.84-1.89,4.17-.2,6.98,1.51,2.3,3.39,4.33,5.59,6.02,4.83,4.82,8.13,5.67,10.04,5.55,2-.13,2.92-1.3,2.96-1.35l8.83-11.62,.3,.9c1.24,3.71,2.06,7.58,2.42,11.48,1.51,14.61-2.15,28.9-2.18,29.04-5.18,27.56-.27,63.24-.22,63.59,2.54,8.89,3.93,18.15,4.11,27.46,0,7.55,1.28,10.41,2.04,11.45,1.15,1.56,2.75,4.18,3.56,5.83,2.35,4.76,3.95,9.84,4.77,15.09,.82,5.24,1.86,9.73,3.2,13.73l.1,.31c14.92,42.07,20.52,100.94,20.57,101.53v.15s-.05,.13-.05,.13c-.41,.79-1.1,1.4-1.95,1.69-4.35,1.74-13.95-1.94-17.87-3.6l-1.38-.6c-7.76-5.17-10.43-2.86-10.45-2.84l-.16,.1c-5.13,2.05-8.84,2.22-11.03,.51-2.45-1.92-2-5.41-1.98-5.55v-10.88c0-14.42-3.46-28.84-10.01-41.71-4.68-9.21-9.08-16.34-10.92-19.24-.13,12.46-1.69,20.38-3.01,24.89-1.63,5.6-2.46,11.6-2.46,17.85v39.25l-.07,.12c-.04,.08-.09,.15-.14,.22-.04,.06-.08,.12-.11,.18-.89,1.46-1.92,2.84-3.07,4.09-2.3,2.72-5.53,4.46-9.08,4.9-.44,.05-.89,.07-1.33,.07Zm-29.79-307.02l-.02,33.46c-.03,.13-3.13,13.05-1.71,51.86,.02,1.15,1.52,113.79,6.94,151.68l1.27,48.29c.07,2.52,.98,4.99,2.56,6.97l.29,.36c4.38,5.36,13.01,14.21,21.67,13.34,3.29-.41,6.29-2.03,8.44-4.57,1.12-1.22,2.1-2.54,2.95-3.94,.04-.07,.09-.14,.14-.22,.01-.02,.03-.04,.04-.06v-38.98c0-6.34,.84-12.44,2.5-18.13,1.36-4.65,2.98-12.98,2.98-26.29v-1.65l.92,1.37c.06,.08,5.73,8.63,11.89,20.74,6.62,13.01,10.11,27.59,10.11,42.17v10.95c0,.1-.39,3.15,1.61,4.7,1.86,1.44,5.3,1.23,9.96-.63,.57-.45,3.76-2.42,11.54,2.76l1.29,.56c2.97,1.26,12.98,5.24,17.12,3.58,.58-.2,1.04-.59,1.34-1.09-.33-3.37-6-60.24-20.51-101.15l-.11-.32c-1.35-4.05-2.41-8.6-3.24-13.89-.8-5.15-2.38-10.13-4.68-14.8-.79-1.61-2.35-4.16-3.47-5.68-.83-1.13-2.24-4.2-2.24-12.03-.19-9.21-1.56-18.39-4.09-27.26-.06-.43-5-36.26,.22-64.02,.04-.17,3.66-14.3,2.16-28.73-.33-3.52-1.03-6.99-2.08-10.36l-7.68,10.11c-.05,.06-1.2,1.57-3.65,1.74-3.09,.2-6.73-1.73-10.8-5.8-2.24-1.71-4.2-3.82-5.78-6.24-1.93-3.22-1.83-6.04,.29-8.17l3.47-4.63c-5.34-.06-29.9-.69-38.82-6.79-1.45,.46-8.78,2.62-12.86,.77Z" fill="#002346"></path>
      </g>
      <g>
        <path d="M521.26,392.61l14.54,57.21s1.37,3.88,5.48,28.54c0,0,6.85,45.21,20.55,68.5" fill="#c39ad5"></path>
        <path d="M561.4,547.11c-13.59-23.11-20.54-68.23-20.61-68.68-4.03-24.21-5.44-28.41-5.46-28.45l-14.55-57.25,.97-.25,14.54,57.21c.04,.12,1.42,4.16,5.49,28.58,.07,.46,6.99,45.39,20.49,68.33l-.86,.51Z" fill="#002346"></path>
      </g>
      <g>
        <path d="M607.04,627.69c-3.36-1.26-7.22-1-11,0h0v-2.76s2.78-2.72,11,2.76Z" fill="#f2b3c1"></path>
        <path d="M610.93,629.68l-4.07-1.53c-2.92-1.09-6.52-1.09-10.7,.02l-.63,.17v-3.62l.15-.15c.13-.12,3.17-2.94,11.63,2.7l3.61,2.41Zm-14.39-4.5v1.86c2.73-.66,5.22-.86,7.46-.59-4.73-2.47-6.9-1.6-7.46-1.27Z" fill="#002346"></path>
      </g>
      <g>
        <path d="M554.46,661.86l-84.42-2.66c-.95-1.13-1.4-2.6-1.25-4.07,.27-1.85,1.9-4,7-5.55,4.91-1.46,9.67-3.42,14.18-5.85l32.25-17.7c4.38,5.37,13.21,14.44,22.11,13.52,3.42-.42,6.55-2.11,8.77-4.74,.08,.7,2.21,21.57,1.36,27.05Z" fill="#59cf8c"></path>
        <path d="M554.89,662.37l-85.09-2.68-.14-.17c-1.03-1.23-1.52-2.85-1.36-4.44,.38-2.61,2.85-4.61,7.35-5.98,4.88-1.45,9.61-3.4,14.09-5.81l32.61-17.9,.26,.32c4.38,5.37,13.01,14.23,21.67,13.34,3.29-.41,6.29-2.03,8.44-4.57l.75-.88,.13,1.15c.02,.21,2.23,21.58,1.36,27.18l-.07,.44Zm-84.6-3.67l83.74,2.64c.59-5.27-.88-21.06-1.31-25.38-2.23,2.25-5.15,3.69-8.32,4.08-8.96,.92-17.71-7.83-22.29-13.38l-31.89,17.5c-4.54,2.44-9.34,4.42-14.28,5.89-4.04,1.23-6.34,3.01-6.65,5.14-.12,1.23,.24,2.5,1,3.5Z" fill="#002346"></path>
      </g>
      <g>
        <path d="M572.79,192.03c-2.66,1.78-9.93,3.55-14.72,4.57-2.6,.56-4.46,.91-4.46,.91-6.92,.84-13.28,4.18-17.89,9.36-.1,.11-.27-.02-.2-.15,2.12-3.71,3.61-7.75,4.39-11.96,1.37-1.37,1.6-9.24,1.6-9.24l16.21-22.27,8.6-2.74,4.8,13,1.44,3.9,.23,14.62Z" fill="#f2b3c1"></path>
        <path d="M535.63,207.41c-.13,0-.25-.04-.36-.12-.26-.19-.34-.54-.18-.82,2.1-3.67,3.56-7.64,4.33-11.8l.03-.15,.11-.11c.9-.9,1.37-5.94,1.45-8.9v-.15s16.4-22.53,16.4-22.53l9.21-2.93,6.44,17.51,.23,14.89-.23,.15c-2.66,1.78-9.57,3.51-14.89,4.64-2.61,.56-4.47,.91-4.47,.91-6.82,.83-13.06,4.09-17.61,9.2-.12,.14-.29,.21-.47,.21Zm-.28-.88s0,0,0,0c0,0,0,0,0,0Zm5.03-11.55c-.64,3.36-1.71,6.6-3.2,9.67,4.49-4.21,10.21-6.89,16.37-7.64,0,0,1.84-.35,4.42-.9,4.17-.89,11.47-2.62,14.32-4.35l-.22-14.26-6.04-16.37-7.99,2.54-16.02,22.01c-.05,1.6-.34,7.69-1.63,9.3Z" fill="#002346"></path>
      </g>
      <g>
        <path d="M328.77,283.36c-16.29-51.61-48.07-76.42-48.07-76.42l3.28-1.91c3.19-1.76,6.17-3.88,8.88-6.31,3.84-3.63,6.6,2.16,6.6,2.16,3.43,3.39,8.91,13.06,8.91,13.06,11.02,19.03,17.63,52.68,20.4,69.42Z" fill="#59cf8c"></path>
        <path d="M328.29,283.51c-16.05-50.85-47.58-75.93-47.9-76.18l-.58-.46,3.92-2.28c3.16-1.74,6.12-3.84,8.8-6.25,1.12-1.06,2.29-1.49,3.47-1.27,2.21,.41,3.62,3,3.88,3.5,3.44,3.45,8.71,12.71,8.93,13.11,10.9,18.81,17.49,51.67,20.46,69.58l-.97,.23Zm-46.72-76.5c4.16,3.49,30.22,26.59,45.58,69.95-3.35-18.48-9.6-46.17-19.22-62.77-.06-.1-5.49-9.65-8.83-12.96l-.1-.14s-1.31-2.68-3.2-3.03c-.85-.16-1.72,.19-2.61,1.02-2.74,2.47-5.76,4.61-8.98,6.38l-2.65,1.54Z" fill="#002346"></path>
      </g>
      <g>
        <path d="M360.4,302.17c-1.12-7.19-2.09-13.28-2.71-17,0,0-14.41-65.57-25-79.37l-2.11-6s8.39,1.62,22.13,11.15c-.02,0,10.41,63.01,7.69,91.22Z" fill="#59cf8c"></path>
        <path d="M360.52,306.17l-.61-3.92c-1.13-7.28-2.1-13.31-2.71-17-.14-.63-14.5-65.59-24.9-79.15l-.08-.14-2.4-6.82,.86,.17c.35,.07,8.65,1.75,22.32,11.23l.67,.47-.41,.22s.01,.09,.02,.15c2.39,15.02,10.01,65.98,7.62,90.85l-.38,3.95Zm-27.38-100.61c10.53,13.86,24.45,76.83,25.04,79.5,.49,2.94,1.2,7.34,2.03,12.65,1.25-26.81-6.31-76.1-7.92-86.19-.02-.11-.03-.2-.04-.29-10.89-7.52-18.43-10.04-20.89-10.73l1.78,5.05Z" fill="#002346"></path>
      </g>
      <g>
        <path d="M274.12,277.4s17.81,48.88,32.88,51.62l38.71,20.06s17.46,14.19,18.83,1.86l1.37-21.91s-23.59-11.47-37.14-20.8c0,0-4.58-6.15-9-3.81-.1,.07-.24,.04-.3-.07-.05-.07-.05-.17,0-.24,1.39-2,3.61-6.22,2-11,0,0-11.24-32.5-11.52-42.15" fill="#c39ad5"></path>
        <path d="M359.81,356.47c-5.59,0-13.64-6.38-14.38-6.97l-38.6-20c-15.16-2.9-32.46-49.92-33.19-51.93-.09-.26,.04-.55,.3-.64,.26-.09,.55,.04,.64,.3,.18,.49,17.88,48.64,32.5,51.3,.05,0,.1,.03,.14,.05l38.71,20.06s.06,.04,.09,.06c.1,.08,10.56,8.51,15.52,6.47,1.4-.58,2.24-2.02,2.5-4.28l1.35-21.55c-2.8-1.37-24.3-12.01-36.9-20.69-.04-.03-.08-.07-.12-.11-.04-.06-4.38-5.77-8.37-3.67-.3,.19-.74,.09-.96-.24-.16-.25-.15-.56,.01-.8,1.38-1.99,3.47-6,1.94-10.56-.46-1.33-11.27-32.68-11.55-42.29,0-.28,.21-.51,.49-.51,.25,.01,.51,.21,.51,.49,.27,9.46,11.38,41.68,11.49,42,1.49,4.43-.13,8.36-1.56,10.68,4.25-1.36,8.21,3.56,8.74,4.24,13.38,9.19,36.77,20.6,37.01,20.72,.18,.09,.29,.28,.28,.48l-1.37,21.91c-.3,2.68-1.34,4.4-3.11,5.12-.64,.26-1.35,.38-2.11,.38Zm-40.27-52.5s-.03,.01-.04,.02c.01,0,.03-.02,.04-.02Z" fill="#002346"></path>
      </g>
      <g>
        <rect x="298.29" y="127.19" width="43.95" height="68.56" rx="21.98" ry="21.98" transform="translate(-31.74 92.67) rotate(-15.7)" fill="#f2b3c1"></rect>
        <path d="M323.56,195.81c-3.8,0-7.56-.97-10.97-2.89-5.23-2.94-9.01-7.74-10.64-13.52l-6.66-23.69c-3.35-11.93,3.63-24.37,15.56-27.72,11.93-3.35,24.36,3.63,27.72,15.56l6.66,23.69c1.62,5.78,.9,11.85-2.04,17.08-2.94,5.24-7.74,9.01-13.52,10.64-2.02,.57-4.07,.85-6.12,.85Zm-6.63-67.65c-1.92,0-3.87,.26-5.8,.8-11.4,3.2-18.07,15.08-14.86,26.48l6.66,23.69c1.55,5.52,5.16,10.11,10.16,12.92,5,2.81,10.8,3.5,16.32,1.95h0c5.52-1.55,10.11-5.16,12.92-10.16,2.81-5,3.5-10.8,1.95-16.32l-6.66-23.69c-2.66-9.46-11.3-15.67-20.68-15.67Z" fill="#002346"></path>
      </g>
      <g>
        <path d="M294.46,165.14s-12.12-11.48-2.53-22.44c0,0-.53-2.74-3.69,0,0,0-.42-5.48,7.8-2.74,0,0-1.37-11,11-15.07,0,0-2.74,4.11,2.74,2.74,0,0,14.76-7.88,25.1-6.94,2.9,.26,5.45,2.01,6.73,4.62,2.95,6,7.77,18.59-2.81,19.84-1.56-2.72-3.28-5.35-5.16-7.86,0,0,2.11,7.9-21.38,8.14-1.11,0-2.17,.46-2.92,1.28-.89,1-1.64,2.75-.93,5.58,0,0,1.37,4.11-2.74,5.48,0,0,2.25,10.29-.24,14l-10.97-6.63Z" fill="#002346"></path>
        <path d="M305.58,172.44l-11.46-6.94c-.12-.12-12.2-11.79-2.75-22.92-.08-.2-.24-.47-.52-.56-.29-.1-.96-.09-2.28,1.06l-.75,.65-.08-.99c0-.08-.13-1.99,1.38-3.18,1.34-1.05,3.49-1.15,6.38-.29-.04-2.62,.67-11.33,11.38-14.85l1.37-.45-.8,1.2c-.37,.56-.79,1.57-.51,1.96,.1,.14,.58,.55,2.66,.04,1.15-.61,15.17-7.89,25.33-6.97,3.05,.27,5.78,2.15,7.13,4.9,2.14,4.35,5.35,12.34,2.8,17.01-1.09,2.01-3.11,3.2-6,3.54l-.33,.04-.16-.29c-1.31-2.29-2.75-4.53-4.3-6.68-.13,.52-.39,1.14-.88,1.79-1.82,2.39-6.93,5.28-20.92,5.42h-.02c-.97,0-1.89,.41-2.53,1.12-.75,.84-1.5,2.41-.81,5.12,.5,1.49,.56,4.6-2.65,5.92,.4,2.03,1.91,10.51-.4,13.96l-.27,.4Zm-10.81-7.7l10.49,6.34c1.95-3.8-.05-13.11-.07-13.2l-.1-.44,.43-.14c3.58-1.19,2.47-4.7,2.42-4.85-.8-3.17,.12-5.05,1.03-6.07,.84-.92,2.03-1.45,3.27-1.45h.03c13.52-.14,18.39-2.79,20.1-4.98,1.06-1.37,.81-2.49,.8-2.53l-.58-2.39,1.47,1.96c1.81,2.43,3.5,4.99,5.03,7.62,2.38-.35,4.03-1.35,4.92-2.98,2.33-4.28-.77-11.92-2.82-16.1-1.2-2.44-3.62-4.1-6.33-4.34-10.07-.92-24.67,6.81-24.82,6.88l-.11,.04c-1.99,.5-3.23,.36-3.77-.42-.4-.56-.29-1.3-.08-1.92-10.59,4.15-9.56,13.7-9.51,14.12l.1,.79-.75-.25c-2.86-.95-4.98-.99-6.14-.09-.46,.36-.71,.82-.85,1.24,.88-.55,1.64-.72,2.28-.5,1,.35,1.23,1.48,1.24,1.53l.05,.24-.16,.18c-8.99,10.27,1.61,20.89,2.46,21.71Z" fill="#002346"></path>
      </g>
      <g>
        <ellipse cx="299.47" cy="170.81" rx="4.8" ry="7.54" transform="translate(-37.91 241.72) rotate(-41.57)" fill="#f2b3c1"></ellipse>
        <path d="M302.08,177.77c-2.1,0-4.62-1.24-6.58-3.45-2.94-3.32-3.56-7.59-1.37-9.53,2.19-1.94,6.36-.82,9.3,2.5,2.94,3.32,3.56,7.59,1.37,9.53-.73,.64-1.67,.95-2.72,.95Zm-5.2-12.96c-.81,0-1.54,.23-2.09,.72-1.77,1.57-1.12,5.22,1.45,8.12s6.11,3.99,7.89,2.41c1.77-1.57,1.12-5.22-1.45-8.12-1.77-2-4-3.14-5.8-3.14Z" fill="#002346"></path>
      </g>
      <g>
        <rect x="521.36" y="123.65" width="40.69" height="63.45" rx="20.13" ry="20.13" transform="translate(88.22 -179.2) rotate(20.42)" fill="#f2b3c1"></rect>
        <path d="M537.84,186.95c-2.39,0-4.81-.42-7.17-1.3h0l-.41-.15c-5.16-1.92-9.27-5.74-11.56-10.75-2.29-5.01-2.5-10.61-.57-15.78l8.09-21.74c1.92-5.16,5.74-9.27,10.75-11.56,5.01-2.29,10.61-2.5,15.78-.57l.41,.15c5.16,1.92,9.27,5.74,11.56,10.75,2.29,5.01,2.5,10.61,.57,15.78l-8.09,21.74c-3.09,8.29-10.98,13.43-19.35,13.43Zm-6.82-2.23c10.14,3.77,21.47-1.41,25.24-11.55l8.09-21.74c1.83-4.91,1.63-10.24-.55-15.01s-6.09-8.4-11-10.23l-.41-.15c-4.91-1.83-10.24-1.63-15.01,.55-4.77,2.18-8.4,6.09-10.23,11l-8.09,21.74c-1.83,4.91-1.63,10.24,.55,15.01s6.09,8.4,11,10.23l.41,.15Z" fill="#002346"></path>
      </g>
      <g>
        <path d="M585.63,144.13c-.56,8.81-2.11,17.53-4.62,26v9.59s-4.11,4.11-6.85-2.74c-.52,.2-1.06,.37-1.6,.5-1.57,.37-4,.65-5.77-.6-1.47-1-2.54-3-2.45-6.66,0,0-2.83-15-4.05-15.07l-6.33,11s-5.83-.09-3.09-12.42c0,0,2.85-8.54,.85-13.83-1.14-2.75-4.29-4.06-7.04-2.93-.04,.02-.09,.04-.13,.06-2.68,1.1-7.31,2.27-10.93-.76h0c-.88-.74-1.62-1.63-2.19-2.62,0,0-5.16,5.01-6.31,8.38,0,0-3.78-12.64,3.62-19.88,.8-.77,2.02-.94,3-.41,2.15,1.14,6.88,2.67,14.4,.22,.79-.26,1.63-.58,2.49-.93l.47-.19s12.77-6.86,19.62,2.74c-.04-.06,18.78-2.68,16.91,20.55Z" fill="#002346"></path>
        <path d="M578.23,181.44c-.22,0-.45-.02-.68-.07-1.47-.3-2.7-1.57-3.67-3.76-.4,.14-.8,.25-1.21,.35-1.78,.42-4.3,.64-6.17-.68-1.84-1.25-2.74-3.62-2.66-7.03-1.14-6.01-2.65-12.49-3.47-14.25l-6.12,10.64h-.29c-.06,0-1.6-.05-2.82-1.6-1.7-2.16-1.95-6-.75-11.43,.04-.13,2.78-8.48,.87-13.54-1.02-2.48-3.89-3.67-6.38-2.64l-.12,.05c-2.63,1.08-7.59,2.4-11.46-.83-.76-.64-1.42-1.38-1.96-2.2-1.26,1.28-4.84,5.09-5.74,7.74l-.5,1.48-.45-1.5c-.16-.53-3.78-13.01,3.75-20.38,.97-.93,2.41-1.13,3.59-.49,2.07,1.1,6.64,2.58,14.01,.19,.72-.24,1.52-.54,2.46-.92l.47-.19c.08-.05,12.98-6.82,20.05,2.68,1.39-.23,4.8-.17,7.98,1.1,4.77,1.91,10.24,6.92,9.19,20.01-.56,8.81-2.12,17.57-4.62,26.04v9.72l-.15,.15c-.06,.06-1.39,1.37-3.13,1.37Zm-3.79-5.11l.18,.46c.86,2.14,1.91,3.35,3.13,3.6,1.25,.26,2.37-.57,2.76-.9l.02-9.51c2.49-8.42,4.04-17.13,4.6-25.89h0c.62-7.74-1-13.36-4.81-16.72-4.33-3.82-10.04-3.47-11.25-3.34l-.23,.58-.53-.74c-6.51-9.12-18.47-2.86-18.98-2.59l-.52,.21c-.95,.39-1.78,.7-2.52,.94-7.72,2.51-12.58,.92-14.79-.25-.8-.43-1.77-.3-2.42,.33-5.67,5.55-4.52,14.54-3.82,17.98,1.76-3.25,5.63-7.02,5.81-7.2l.46-.45,.32,.56c.54,.95,1.24,1.78,2.08,2.49,3.28,2.75,7.48,1.89,10.42,.68l.14-.06c3-1.24,6.45,.2,7.69,3.2,2.04,5.41-.72,13.82-.84,14.18-1.4,6.33-.47,9.23,.57,10.55,.65,.82,1.39,1.09,1.78,1.17l6.32-10.97,.31,.02c.4,.02,1.61,.09,4.51,15.48v.05s0,.05,0,.05c-.08,3.08,.67,5.18,2.23,6.23,1.58,1.11,3.79,.9,5.37,.53,.52-.12,1.04-.28,1.53-.48l.46-.18Z" fill="#002346"></path>
      </g>
      <g opacity=".2">
        <path d="M581.01,179.69s-4.11,4.11-6.85-2.74c-.52,.2-1.06,.37-1.6,.5,0,0-1.14-10.09,3-16.94-.03,0-1.44,20.52,5.45,19.18Z"></path>
      </g>
      <g>
        <ellipse cx="559.05" cy="162.54" rx="7.54" ry="5.48" transform="translate(178.43 603.09) rotate(-65.39)" fill="#f2b3c1"></ellipse>
        <path d="M557.63,170.26c-.66,0-1.32-.13-1.93-.41-3-1.37-3.93-5.77-2.09-9.8h0c1.85-4.03,5.79-6.2,8.79-4.82,3,1.37,3.93,5.77,2.09,9.8-1.47,3.21-4.27,5.23-6.86,5.23Zm-3.11-9.8c-1.62,3.53-.9,7.33,1.6,8.48,2.5,1.14,5.84-.8,7.46-4.33,1.62-3.53,.9-7.33-1.6-8.48-2.49-1.14-5.84,.8-7.46,4.33h0Z" fill="#002346"></path>
      </g>
      <g>
        <path d="M575.24,363.46l-3.97,13.82c-.09,.3-.29,1.01-.58,1.94-13.58-.17-21.48-6.12-25.56-10.66l4.35-8.62c-4.56,1.07-9.33,.72-13.68-1-1.04-.38-1.57-1.52-1.2-2.56,.18-.48,.53-.88,.99-1.11,4.41-2.46,13.89-3.64,13.89-3.64,3.83,.23,7.66-.48,11.16-2.06,4.28,8.22,14.6,13.89,14.6,13.89Z" fill="#f2b3c1"></path>
        <path d="M571.06,379.73h-.37c-13.54-.17-21.57-5.99-25.93-10.83l-.23-.25,4.03-8c-4.35,.82-8.81,.4-12.95-1.24-1.27-.46-1.95-1.9-1.49-3.19,.23-.62,.67-1.11,1.24-1.39,4.42-2.47,13.66-3.64,14.05-3.69,3.82,.22,7.6-.48,11.02-2.02l.43-.19,.22,.42c4.16,7.99,14.3,13.63,14.4,13.68l.35,.19-4.18,14.53c-.11,.37-.27,.94-.49,1.62l-.11,.36Zm-25.33-11.25c4.23,4.6,11.87,9.98,24.59,10.24,.16-.52,.28-.95,.37-1.25l.1-.33,3.86-13.44c-1.84-1.07-10.23-6.2-14.23-13.49-3.45,1.48-7.23,2.14-10.97,1.92,0,0-9.34,1.19-13.62,3.58-.36,.18-.63,.48-.77,.85-.27,.77,.13,1.63,.9,1.91,4.29,1.7,8.92,2.03,13.39,.98l1.04-.25-4.68,9.27Z" fill="#002346"></path>
      </g>
      <g>
        <path d="M369.56,624.36c-7.32,10.37-25.57,7.4-25.57,7.4v-.73c.47-.18,.93-.39,1.37-.62,0,0,8.22-12.33,21.92-6.85,.71,.38,1.48,.65,2.28,.8Z" fill="#f2b3c1"></path>
        <path d="M349.95,632.68c-3.35,0-5.77-.38-6.04-.42l-.42-.07v-1.5l.32-.12c.41-.16,.82-.34,1.21-.54,.89-1.23,9.24-12.21,22.44-6.93,.72,.38,1.44,.63,2.18,.77l.77,.14-.45,.64c-4.78,6.78-13.93,8.03-20.02,8.03Zm-5.38-1.34c2.89,.36,17.51,1.72,24.13-6.66-.58-.16-1.13-.39-1.66-.67-13.1-5.24-20.94,6.2-21.27,6.69l-.07,.11-.11,.06c-.33,.17-.68,.33-1.02,.48Z" fill="#002346"></path>
      </g>
      <g>
        <path d="M243.36,631.19s-3.49,4.72,3.36,3.35c0,0,14.85-.88,21.12-6.6,0,0-12.72,4.02-24.48,3.25Z" fill="#f2b3c1"></path>
        <path d="M244.58,635.29c-1.18,0-1.96-.31-2.35-.93-.82-1.3,.57-3.25,.73-3.47l.16-.22,.27,.02c11.53,.77,24.17-3.19,24.3-3.23l2.17-.68-1.68,1.53c-6.33,5.77-20.81,6.69-21.43,6.73-.83,.17-1.55,.25-2.17,.25Zm-.97-3.58c-.38,.59-.85,1.62-.54,2.12,.16,.25,.82,.77,3.55,.23,.19-.02,11.94-.76,18.74-4.9-4.32,1.11-13.29,3.06-21.75,2.56Z" fill="#002346"></path>
      </g>
      <g>
        <path d="M619.37,311.21l-18.44,24.37h0l-11.7,15.45-8.22,10.86s-4.11,5.48-13.7-4.11c-2.24-1.72-4.17-3.8-5.71-6.16-1.47-2.45-2.07-5.24,.23-7.54l4.11-5.48s-18.28,0-30.9-3.24c-5.76-1.48-11.68-2.07-17.62-2.05-1.78,0-3.46-.28-4.65-1.08-1.26-.85-2-2.29-1.63-4.59,.15-4.14-.28-3.04,.48-7.11l.76-4.48c.04-.22-.23-.37-.39-.21-2.78,2.67-17.17,14.59-59.36,21.95h-.25c-7.75,1.34-16.44,2.53-26.17,3.49,0,0-5.48-6.85-4.11-19.18,0,0-2.54-5.81,11.75-5.64,0,0,41.69-8.06,59.5-39.57l15.56-22.82c3.07-4.5,5.03-9.65,5.74-15.05,1.12-8.42,3.8-21.52,9.95-27.81,.5-.53,1.04-1.02,1.63-1.45,1.55-2.64,2.93-5.39,4.11-8.22,1.56-3.98,5.32-6.66,9.59-6.85,0,0-1.07,6.34-4.1,11.59,.71,.53-.45-.34,.26,.19,2.08-2.2,4.47-4.09,7.1-5.59,3.2-1.86,6.76-3.04,10.44-3.45,0,0,15.07-2.74,19.18-5.48,0,0,4.11-2.74,8.22,4.11,0,0,2.3,3.07,4.62,6.34,.76,1.1,1.54,2.22,2.23,3.25,0,0,5.48,6.85,12.33,26,0,0,4.11,11,13.7,28.77l11,21.92s8.21,9.69-5.54,28.87Z" fill="#59cf8c"></path>
        <path d="M577.28,363.95c-2.99,0-6.46-1.95-10.33-5.82-2.24-1.71-4.2-3.83-5.77-6.24-1.94-3.22-1.83-6.04,.29-8.17l3.47-4.64c-3.99-.06-19.17-.46-30.03-3.24-5.4-1.38-11.13-2.05-17.5-2.04h-.04c-2.1,0-3.75-.39-4.89-1.17-1.09-.74-2.3-2.22-1.84-5.08,.05-1.37,.03-2.18,.02-2.78-.03-1.17-.04-1.65,.47-4.35l.63-3.71c-3.74,3.3-18.98,14.56-59.05,21.55h-.34c-8.03,1.41-16.85,2.58-26.12,3.5l-.27,.03-.17-.21c-.23-.29-5.56-7.11-4.23-19.43-.14-.41-.44-1.67,.42-2.97,1.47-2.22,5.46-3.29,11.79-3.24,1.64-.33,41.89-8.85,59.11-39.32l15.58-22.86c3.01-4.41,4.96-9.54,5.66-14.83,1.25-9.39,4.01-21.88,10.09-28.09,.48-.52,1.03-1.01,1.61-1.44,1.52-2.59,2.87-5.3,4.03-8.07,1.63-4.15,5.57-6.96,10.03-7.16l.62-.03-.1,.61c-.04,.23-.87,5.07-3.14,9.81,1.72-1.59,3.62-2.97,5.66-4.14,3.28-1.91,6.86-3.09,10.63-3.51,.12-.02,14.98-2.75,18.96-5.4,.06-.04,1.46-.95,3.46-.5,2,.45,3.83,2.05,5.46,4.77h0s2.31,3.08,4.6,6.31l.37,.54c.64,.93,1.28,1.86,1.86,2.72,.2,.25,5.59,7.1,12.39,26.11,.04,.1,4.21,11.17,13.67,28.7l10.98,21.88c.69,.86,7.91,10.65-5.56,29.44h0s-38.36,50.69-38.36,50.69c-.05,.06-1.2,1.57-3.65,1.74-.16,.01-.32,.02-.48,.02Zm-59.66-31.14c6.38,0,12.12,.68,17.54,2.07,12.41,3.18,30.59,3.22,30.77,3.22h1l-4.71,6.28c-1.83,1.84-1.89,4.17-.2,6.98,1.5,2.3,3.39,4.33,5.59,6.02,4.83,4.82,8.12,5.7,10.04,5.55,2-.13,2.92-1.3,2.96-1.35l38.36-50.67c13.32-18.59,5.64-28.16,5.56-28.25l-.06-.1-11-21.92c-9.49-17.58-13.68-28.71-13.72-28.82-6.73-18.83-12.2-25.79-12.25-25.86-.6-.9-1.24-1.82-1.88-2.74l-.37-.54c-2.29-3.22-4.59-6.29-4.61-6.32-1.5-2.5-3.12-3.95-4.83-4.35-1.58-.36-2.67,.32-2.71,.35-4.15,2.76-18.75,5.44-19.37,5.55-3.67,.41-7.11,1.55-10.28,3.39-2.6,1.48-4.95,3.33-6.99,5.5l-.31,.33-.36-.27s-.04-.03-.07-.05l-.07-.05s-.03-.02-.04-.03l-.43-.33,.22-.38c2.4-4.16,3.56-9.07,3.92-10.79-3.8,.4-7.1,2.89-8.51,6.49-1.19,2.85-2.58,5.64-4.14,8.29l-.13,.15c-.56,.41-1.09,.88-1.56,1.39-6.2,6.34-8.81,19.97-9.82,27.54-.71,5.45-2.73,10.73-5.82,15.26l-15.56,22.82c-17.7,31.31-59.4,39.7-59.82,39.78h-.05s-.05,0-.05,0c-7.5-.11-10.1,1.46-10.99,2.77-.74,1.09-.32,2.13-.3,2.17l.05,.12v.13c-1.21,10.78,2.96,17.36,3.83,18.6,9.14-.91,17.84-2.07,25.85-3.46h.34c42.23-7.38,56.57-19.47,59.02-21.82,.23-.22,.57-.27,.85-.12,.28,.15,.43,.46,.38,.77l-.76,4.48c-.48,2.6-.48,3.02-.45,4.15,.01,.6,.03,1.43-.02,2.9-.31,1.94,.17,3.32,1.41,4.16,.98,.66,2.43,1,4.33,1,.08,0,.16,0,.24,0Z" fill="#002346"></path>
      </g>
      <g>
        <path d="M585.63,202.47c-17.31-1.88-33.39,10.69-33.39,10.69-11,8.81-9.07,0-9.07,0v-12.21c3.2-1.86,6.76-3.04,10.44-3.45,0,0,15.07-2.74,19.18-5.48,0,0,4.11-2.74,8.22,4.11,0,0,2.3,3.07,4.62,6.34Z" fill="#c39ad5"></path>
        <path d="M545,217.58c-.5,0-.92-.11-1.28-.34-1.59-.99-1.13-3.69-1.04-4.13v-12.45l.25-.14c3.28-1.91,6.86-3.09,10.64-3.51,.12-.02,14.98-2.75,18.96-5.4,.06-.04,1.46-.95,3.46-.5,2,.45,3.83,2.05,5.46,4.77h0s2.31,3.08,4.6,6.31l.64,.91-1.1-.12c-16.91-1.83-32.87,10.46-33.03,10.59-3.36,2.69-5.85,4.02-7.55,4.02Zm-1.33-16.34v12.03c-.16,.68-.34,2.56,.57,3.12,.67,.42,2.55,.49,7.69-3.62,.16-.13,15.77-12.16,32.66-10.9-2.06-2.88-3.96-5.42-3.98-5.44-1.51-2.51-3.14-3.96-4.85-4.35-1.59-.35-2.68,.35-2.69,.36-4.15,2.77-18.75,5.44-19.37,5.56-3.57,.4-6.94,1.49-10.03,3.25Z" fill="#002346"></path>
      </g>
      <g>
        <path d="M539.91,194.76s3.49,1.32-.29,6.77c-.05,.06-4.87,6.47-4.9,6.54l-.11,.15s-6.18,5.87-10,3.06c.5-.53,1.04-1.02,1.63-1.45,1.55-2.64,2.93-5.39,4.11-8.22,1.56-3.97,5.3-6.65,9.56-6.85Z" fill="#c39ad5"></path>
        <path d="M527.02,212.55c-.95,0-1.87-.25-2.71-.86l-.45-.33,.38-.41c.49-.53,1.04-1.02,1.62-1.45,1.52-2.59,2.87-5.3,4.03-8.07,1.62-4.14,5.55-6.95,10-7.16h.1s.1,.03,.1,.03c.05,.02,1.21,.47,1.64,1.85,.46,1.48-.11,3.39-1.69,5.68-.24,.31-4.74,6.31-4.89,6.53l-.12,.17c-.26,.25-4.29,4.03-7.99,4.03Zm-1.62-1.36c3.48,1.71,8.8-3.27,8.86-3.33l.05-.08c.02-.07,4.87-6.5,4.92-6.56,1.35-1.95,1.89-3.61,1.54-4.76-.22-.74-.75-1.08-.96-1.19-4.01,.23-7.53,2.78-9,6.53-1.19,2.85-2.58,5.64-4.14,8.29l-.13,.15c-.4,.29-.77,.61-1.13,.95Z" fill="#002346"></path>
      </g>
      <path d="M512.51,315.81s-.02,0-.04,0c-.28-.02-.48-.26-.46-.54l3.61-49.28c.02-.28,.25-.49,.54-.46,.28,.02,.48,.26,.46,.54l-3.61,49.28c-.02,.26-.24,.46-.5,.46Z" fill="#002346"></path>
      <path d="M565.94,339.11c-.08,0-.16-.02-.24-.06-.24-.13-.33-.43-.2-.68l25.56-47.71-19.09-36.27c-.13-.24-.03-.55,.21-.67,.24-.13,.55-.04,.68,.21l19.21,36.5c.08,.15,.08,.32,0,.47l-25.69,47.94c-.09,.17-.26,.26-.44,.26Z" fill="#002346"></path>
      <path d="M571.41,379.73c-.24,0-.49,0-.73,0-.28,0-.5-.23-.49-.51,0-.27,.23-.49,.5-.49h0c3.19,.05,6.62-.24,10.19-.87,.27-.06,.53,.13,.58,.41,.05,.27-.13,.53-.41,.58-3.36,.59-6.6,.89-9.65,.89Z" fill="#002346"></path>
      <path d="M545.13,369.06c-.14,0-.27-.06-.37-.17-2.55-2.85-3.62-5.14-3.66-5.23-.12-.25,0-.55,.24-.66,.25-.12,.55,0,.66,.25,.01,.02,1.06,2.25,3.5,4.99,.18,.21,.17,.52-.04,.71-.1,.08-.21,.13-.33,.13Z" fill="#002346"></path>
      <path d="M401.39,331.83c-4.18,0-6.52-.69-6.66-.73-.26-.08-.41-.36-.33-.62,.08-.26,.36-.41,.62-.33,.05,.02,5.24,1.53,14.01-.01,.27-.06,.53,.13,.58,.41,.05,.27-.13,.53-.41,.58-3.05,.54-5.67,.72-7.81,.72Z" fill="#002346"></path>
      <path d="M402.96,354.18c-.07,0-.14-.01-.21-.04-.24-.11-6.02-2.78-10.05-8.83-.15-.23-.09-.54,.14-.69,.23-.15,.54-.09,.69,.14,3.88,5.81,9.57,8.45,9.63,8.47,.25,.11,.36,.41,.25,.66-.08,.18-.27,.29-.46,.29Z" fill="#002346"></path>
      <path d="M390.2,356.48s-.09,0-.13-.02c-.21-.06-.91-.41-2.8-2.44-.19-.2-.18-.52,.02-.71,.2-.19,.52-.18,.71,.02,1.77,1.9,2.35,2.16,2.37,2.17,.27,.07,.41,.34,.33,.61-.06,.22-.27,.37-.5,.37Z" fill="#002346"></path>
    </g>
    <g>
      <g>
        <path d="M147.07,386.52s15.97-13.43,34.09-.36c0,0,11.38,8.85,3.79,16.44,0,0-8.01,5.48-19.81-3.79,0,0-12.54-10.24-18.07-12.29Z" fill="#7cd295"></path>
        <path d="M178.55,404.6c-3.51,0-8.21-1.17-13.67-5.46-.13-.11-12.56-10.22-17.96-12.22l-.69-.25,.56-.47c.16-.14,16.43-13.49,34.61-.38,.27,.21,6.21,4.89,6.56,10.51,.15,2.41-.76,4.62-2.72,6.58-.08,.06-2.56,1.7-6.71,1.7Zm-30.63-18.19c5.79,2.54,17,11.67,17.49,12.07,11.42,8.97,19.22,3.83,19.3,3.77,1.71-1.72,2.54-3.71,2.41-5.87-.32-5.23-6.16-9.84-6.22-9.88-15.73-11.34-29.98-2.27-32.98-.09Z" fill="#002346"></path>
      </g>
      <g>
        <path d="M129.42,379.96s17.6-24.57,7.06-48.59c0,0-11.8-23.6,2.11-30.77,0,0,17.28-7.17,26.55,18.12,0,0,12.43,36.91-35.72,61.24Z" fill="#7cd295"></path>
        <path d="M128.07,381.12l1.01-1.41c.17-.24,17.33-24.65,7.02-48.18-.11-.22-11.82-24.04,2.3-31.32,.28-.12,6.12-2.47,12.92,.51,6.08,2.66,10.86,8.67,14.23,17.85,.03,.1,3.12,9.5,.21,21.74-2.68,11.28-11.12,27.38-36.14,40.02l-1.54,.78Zm16.12-81.03c-3.2,0-5.4,.89-5.43,.9-13.34,6.88-2.01,29.95-1.89,30.19,9.11,20.77-2.74,42.15-6.2,47.67,23.6-12.36,31.66-27.8,34.26-38.68,2.87-12.02-.14-21.22-.18-21.31-3.28-8.94-7.91-14.78-13.77-17.35-2.47-1.08-4.82-1.42-6.79-1.42Z" fill="#002346"></path>
      </g>
      <g>
        <path d="M84.68,309.15c-4.37,2.15-7.24,6.59-7.17,11.46,.09,6.09,3.82,14.47,21.46,19.18,0,0,20.68,5.12,22.99,20.48,0,0,5.71-19.02-4.02-37.19-3.73-6.96-9.93-12.34-17.49-14.63-4.74-1.44-10.41-1.93-15.76,.71Z" fill="#7cd295"></path>
        <path d="M121.82,362.21l-.28-1.88c-2.24-14.89-22.46-20.08-22.67-20.13-17.83-4.77-21.69-13.29-21.78-19.59-.07-4.94,2.84-9.59,7.41-11.84h0c4.67-2.3,10.08-2.55,16.07-.73,7.54,2.29,13.84,7.56,17.74,14.84,9.7,18.11,4.11,37.32,4.06,37.51l-.55,1.82Zm-28.81-54.52c-2.92,0-5.64,.62-8.13,1.85h0c-4.28,2.11-7,6.45-6.93,11.07,.09,6.01,3.83,14.15,21.14,18.78,.19,.05,19.28,4.93,22.91,18.94,1.11-5.17,3.37-20.47-4.43-35.04-3.79-7.08-9.91-12.21-17.23-14.43-2.56-.78-5-1.16-7.32-1.16Z" fill="#002346"></path>
      </g>
      <g>
        <path d="M83.7,372.35c1.06,2.02,3.03,4.27,6.42,6.64,0,0,13.31,7.72,16.77,18.61,0,0-.33-17.77-10.45-31.26,0,0-.88-1.66-2.68-2.96-5.96-4.29-13.47,2.46-10.06,8.96Z" fill="#7cd295"></path>
        <path d="M107.37,400.52l-.89-2.79c-3.37-10.61-16.45-18.3-16.58-18.37-3.16-2.21-5.36-4.5-6.58-6.82h0c-1.91-3.63-.53-7.19,1.69-9.12,2.62-2.28,6.15-2.43,8.99-.39,1.86,1.34,2.77,3.03,2.81,3.11,10.05,13.39,10.5,31.27,10.5,31.45l.05,2.92Zm-17.59-38.06c-1.68,0-3.18,.71-4.2,1.61-1.82,1.58-3.3,4.64-1.49,8.08h0c1.15,2.2,3.27,4.38,6.28,6.49,.48,.27,11.44,6.72,15.91,16.23-.54-5.49-2.59-18.16-10.17-28.27-.04-.07-.9-1.65-2.59-2.87-1.26-.91-2.54-1.27-3.73-1.27Z" fill="#002346"></path>
      </g>
      <g>
        <polygon points="99.81 414.41 102.05 458.46 139.43 458.46 141.96 414.83 99.81 414.41" fill="#fff"></polygon>
        <path d="M139.43,458.88h-37.38c-.23,0-.41-.18-.42-.4l-2.24-44.05c0-.12,.04-.23,.12-.32,.08-.08,.18-.13,.31-.13l42.15,.42c.12,0,.23,.05,.31,.14,.08,.08,.12,.2,.11,.31l-2.53,43.63c-.01,.22-.2,.4-.42,.4Zm-36.98-.85h36.58l2.48-42.78-41.25-.41,2.2,43.19Z" fill="#002346"></path>
      </g>
      <path d="M128.9,414.62s-.02,0-.03,0c-.23-.02-.41-.22-.39-.46,.01-.17,1.46-17.56,13.42-25.66,7.08-4.8,16.37-5.44,27.6-1.9,.22,.07,.35,.31,.28,.53s-.31,.35-.53,.28c-10.97-3.45-20.01-2.85-26.86,1.79-11.62,7.86-13.04,24.85-13.05,25.02-.02,.22-.2,.39-.42,.39Z" fill="#002346"></path>
      <path d="M122.41,414.33c-.19,0-.36-.12-.41-.31-6.62-23.68,9.41-37.4,12.7-39.92,.98-.75,2.13-1.64,3.23-2.59,29.12-25.06,12.28-53.13,12.1-53.41-.12-.2-.06-.46,.14-.59,.2-.12,.46-.06,.59,.14,.18,.29,17.41,28.95-12.27,54.5-1.12,.97-2.28,1.87-3.27,2.62-3.21,2.45-18.87,15.86-12.39,39.01,.06,.23-.07,.46-.3,.52-.04,.01-.08,.02-.12,.02Z" fill="#002346"></path>
      <path d="M119.37,414.64c-.14,0-.28-.07-.36-.2-10.3-16.6-2.62-37.75-.02-43.83,.65-1.53,1.12-2.81,1.45-4.03,7.24-26.06-14.76-41.87-14.98-42.03-.19-.13-.24-.4-.1-.59,.13-.19,.4-.24,.59-.1,.23,.16,22.71,16.3,15.31,42.95-.35,1.25-.82,2.57-1.49,4.14-2.56,5.99-10.12,26.8-.04,43.05,.12,.2,.06,.46-.14,.59-.07,.04-.15,.06-.22,.06Z" fill="#002346"></path>
      <path d="M108.54,414.38s-.01,0-.02,0c-.23,0-.42-.21-.41-.44,1.12-27.68-15.12-38.69-15.28-38.8-.2-.13-.25-.39-.12-.59,.13-.2,.39-.25,.59-.12,.17,.11,16.8,11.36,15.66,39.54,0,.23-.2,.41-.42,.41Z" fill="#002346"></path>
    </g>
  </g>
</svg>
