<?xml version="1.0" encoding="UTF-8"?>
<svg xmlns="http://www.w3.org/2000/svg" id="a" width="865.76" height="682.89" viewBox="0 0 865.76 682.89">
  <circle cx="574.62" cy="138.3" r="67.12" fill="#59cf8c" stroke="#002346" stroke-miterlimit="10"></circle>
  <circle cx="574.64" cy="138.3" r="55.23" fill="#fff" stroke="#002346" stroke-miterlimit="10"></circle>
  <path d="M588.3,184.38l-3.9-10.74c-6.77,2.34-14.41,2.96-19.43,1.77l.19-8.13c6.15,1.14,12.48,.62,18.36-1.5,8.24-3,12.22-9.37,10-15.42-2.23-6.05-7.95-7.83-17.69-7.88-13.38,0-22.46-2.18-25.82-11.42-3.2-8.82,1.2-18.01,11.3-23.48l-3.9-10.74,7.14-2.61,3.76,10.31c5.26-1.88,10.89-2.48,16.42-1.76l-.36,8.07c-5.37-.8-10.85-.22-15.92,1.7-8.92,3.24-10.51,9.35-8.97,13.59,2.01,5.53,7.3,6.74,18.78,6.9,13.57,.11,21.61,3.44,25.05,12.85,3.06,8.38-.47,18.56-11.75,24.72l4.01,11.05-7.25,2.71Z" fill="#59cf8c" stroke="#002346" stroke-miterlimit="10"></path>
  <path d="M534.12,207.23s-.57-4.92-3.73-8.53c0,0-10.38-8.12-7.22-12.18,0,0-1.81-2.26-.45-4.96l7.67-12.18s1.81-2.26,3.61-.45c0,0,3.16-2.26,4.06,.9,0,0,3.16,1.35,1.35,6.32l-2.63,5.63c-.29,.62,0,1.35,.64,1.61h0c.6,.24,1.29-.05,1.54-.65l1.08-2.6c.36-.87,1.46-1.15,2.19-.56h0c.47,.38,.65,1.01,.45,1.58l-4.17,11.69,5.08,11.24-9.48,3.16Z" fill="#f1b2c0" stroke="#002346" stroke-miterlimit="10"></path>
  <path d="M523.18,186.51s-1.35,4.51,3.16,4.96c0,0,0,2.26,4.51,1.81,0,0,1.35,3.61,6.77,.9" fill="none" stroke="#002346" stroke-linecap="round" stroke-linejoin="round"></path>
  <path d="M654.79,637.2l-.19,4.71c-.08,1.99,1.51,3.65,3.5,3.65h28.04c1.94,0,3.51-1.57,3.51-3.51v-3.26l-15.79-5.42-19.07,3.82Z" fill="#fff" stroke="#002346" stroke-miterlimit="10"></path>
  <polygon points="668.89 592.77 668.44 610.82 685.59 623 686.94 619.84 686.49 612.17 689.6 591.78 668.89 592.77" fill="#f1b2c0" stroke="#002346" stroke-miterlimit="10"></polygon>
  <polygon points="613.64 601.98 613.34 608.26 617.44 624.81 637.75 617.59 636.63 597.4 613.64 601.98" fill="#f1b2c0" stroke="#002346" stroke-miterlimit="10"></polygon>
  <path d="M646.32,144.2l5.42-12.64s37.69,11.31,65.06,30.69c1.94,1.38,3.11,3.6,3.12,5.98,0,10.37-.62,40.91-7.44,73.27l-17.87-31.87,2.71-30.24-50.99-35.2Z" fill="#c39ad5" stroke="#002346" stroke-miterlimit="10"></path>
  <path d="M705.9,303.5l3.75,26.68c.18,1.25-.63,2.42-1.86,2.7l-5.09,1.17c-.14-.7-.27-1.41-.41-2.13h0c0-4.43-3.52-8.06-7.95-8.2-10.3-.31-30.23,1.98-57.45,18.41-2.02,1.22-3.43,3.26-3.84,5.58l-.44,2.47h0c-1.52,.35-2.97-.8-2.97-2.37v-9.58l.39-18.42c.04-1.84-.3-3.67-1-5.37l-3-7.34-40.62-8.12v-42.87l37,4.06,18.05-8.12,28.43-9.93,15.79-8.12,9.93-24.37,25.72,45.13-14.44,48.74Z" fill="#59cf8c" stroke="#002346" stroke-miterlimit="10"></path>
  <path d="M642.26,256.56l11.46,38.88c.32,1.1,1.89,1.06,2.17-.05l11.64-47.41s-9.48,7.22-25.27,8.57Z" fill="#c39ad5" stroke="#002346" stroke-miterlimit="10"></path>
  <line x1="591.27" y1="258.82" x2="592.11" y2="300.26" fill="none" stroke="#002346" stroke-linecap="round" stroke-linejoin="round"></line>
  <path d="M623.31,276.42l.37,12.81c.05,1.65-.1,3.3-.43,4.91-.6,2.89-1.06,8.49,2.77,12.96" fill="none" stroke="#002346" stroke-linecap="round" stroke-linejoin="round"></path>
  <path d="M684.68,234s-.9,10.83,2.26,17.6" fill="none" stroke="#002346" stroke-linecap="round" stroke-linejoin="round"></path>
  <line x1="690.67" y1="220.27" x2="713.57" y2="258.37" fill="none" stroke="#002346" stroke-linecap="round" stroke-linejoin="round"></line>
  <path d="M707.25,271.46s-4.51,17.6-1.35,32.04" fill="none" stroke="#002346" stroke-linecap="round" stroke-linejoin="round"></path>
  <path d="M709.96,425.34l-11.73,166.97-31.59,1.81-4.51-162.01-22.56,62.28,5.42,101.54-35.2,6.77-14.98-113.38c-.54-4.09-.19-8.25,1.03-12.18l33.35-107.74,3.43-19.19,.44-2.47c.42-2.33,1.82-4.36,3.84-5.58,27.24-16.45,47.18-18.72,57.48-18.41,4.36,.13,7.92,3.84,7.92,8.2h0c.14,.71,.28,1.42,.41,2.13,11.23,58.68,7.26,91.29,7.26,91.29Z" fill="#c39ad5" stroke="#002346" stroke-miterlimit="10"></path>
  <line x1="662.12" y1="432.11" x2="660.77" y2="373.9" fill="none" stroke="#002346" stroke-linecap="round" stroke-linejoin="round"></line>
  <path d="M682.09,612.66c-2.89-4.26-8.73-5.57-13.07-2.8-1.15,.73-1.93,1.41-3.28,5.02,0,0-2.41,6.44-4.69,11.65-.97,2.22-3.03,5.55-4.67,7.32-.73,.79-1.46,1.92-1.58,3.35-.09,1.07,.62,2.03,1.66,2.27,1.94,.46,6.29,.93,16.05,.67,0,0,11.73,0,17.15-1.35l-2.16-18.11c-.06-.5-.44-.9-.94-.98l-1.87-.31s-.47-3.59-2.6-6.73Z" fill="#59cf8c" stroke="#002346" stroke-miterlimit="10"></path>
  <path d="M684.68,619.39c0,.45-2.71,13.09-2.71,13.09" fill="none" stroke="#002346" stroke-linecap="round" stroke-linejoin="round"></path>
  <path d="M567.8,639.25l-.18-2.12c-.16-1.88,1.11-3.59,2.96-3.98h0c3.52-.74,6.87-2.16,9.86-4.16l28.41-19.06c1.34-.9,2.87-1.5,4.47-1.67s3.49,.06,4.27,1.69c.21,.43,.29,.9,.29,1.38v8.52l19.86-2.26,2.26,21.66h-72.2Z" fill="#59cf8c" stroke="#002346" stroke-miterlimit="10"></path>
  <line x1="603.45" y1="631.13" x2="618.01" y2="619.45" fill="none" stroke="#002346" stroke-linecap="round" stroke-linejoin="round"></line>
  <path d="M638.4,623.82s-10.29,6.3-12.69,15.6" fill="none" stroke="#002346" stroke-linecap="round" stroke-linejoin="round"></path>
  <path d="M567.8,639.25v3.53c0,1.79,1.45,3.23,3.23,3.23h65.74c1.79,0,3.23-1.45,3.23-3.23v-3.53h-72.2Z" fill="#fff" stroke="#002346" stroke-miterlimit="10"></path>
  <path d="M659.13,134.12s.45,8.12-5.58,13.23" fill="none" stroke="#002346" stroke-linecap="round" stroke-linejoin="round"></path>
  <line x1="697.32" y1="179.4" x2="702.28" y2="182.55" fill="none" stroke="#002346" stroke-linecap="round" stroke-linejoin="round"></line>
  <path d="M533.5,207.37l12.18-4.51,24.52,49.05c.76,1.52,2.16,2.61,3.81,2.99l11.38,2.57v25.72l-26.15-8.17c-1.72-.54-3.07-1.86-3.66-3.56l-22.08-64.09Z" fill="#c39ad5" stroke="#002346" stroke-miterlimit="10"></path>
  <path d="M538.47,214.59s7.02-2.16,10.55-4.66" fill="none" stroke="#002346" stroke-linecap="round" stroke-linejoin="round"></path>
  <path d="M644.97,235.81l1.35,5.05c.29,1.09,.1,2.26-.53,3.2l-5.33,8,1.81,4.51s14.89-.9,25.27-8.57l1.35-5.87h-1.22c-1.16,0-2.19-.74-2.56-1.83l-6.41-18.8-10.11,6.65-3.61,7.67Z" fill="#f1b2c0" stroke="#002346" stroke-miterlimit="10"></path>
  <rect x="624.06" y="190.12" width="33.39" height="47.34" rx="16.7" ry="16.7" transform="translate(-25.99 105.53) rotate(-9.23)" fill="#f1b2c0" stroke="#002346" stroke-miterlimit="10"></rect>
  <path d="M646.94,142.7l-7.89-12.49c-.18-.29-.58-.35-.83-.12l-3.32,3.02c-.66,.6-1.67,.62-2.35,.05h0c-.81-.68-.87-1.9-.12-2.65l1.99-1.99c.39-.39,.44-1.02,.1-1.46h0c-.41-.54-1.2-.6-1.68-.12l-1.8,1.8c-3.61,3.16-4.51,.45-4.51,.45-.45,.23-.87,.37-1.27,.46-2.22,.48-3.66-2.3-2.05-3.91l8.47-8.47c.41-.41,.46-1.06,.11-1.52h0c-.4-.54-1.18-.62-1.69-.19l-4.18,3.58c-.67,.58-1.68,.54-2.31-.09h0c-.64-.64-.67-1.67-.06-2.34l4.56-5.04c1.66-1.84,4.45-2.1,6.43-.62l1.92,1.44c9.93-1.35,7.67,3.61,7.67,3.61,1.28,1.59,1.2,3.19,1.04,3.99-.07,.38-.04,.77,.1,1.13l2.96,7.4c.27,.67,.7,1.27,1.26,1.73l1.98,1.96-4.51,10.38Z" fill="#f1b2c0" stroke="#002346" stroke-miterlimit="10"></path>
  <line x1="626.52" y1="129.2" x2="632.95" y2="122.84" fill="none" stroke="#002346" stroke-linecap="round" stroke-linejoin="round"></line>
  <line x1="534.01" y1="168.91" x2="527.36" y2="180.15" fill="none" stroke="#002346" stroke-linecap="round" stroke-linejoin="round"></line>
  <line x1="538.07" y1="169.82" x2="531.87" y2="181.96" fill="none" stroke="#002346" stroke-linecap="round" stroke-linejoin="round"></line>
  <path d="M185.91,641.05s0,1.42-.68,2.9c-.58,1.26-1.85,2.07-3.24,2.07h-29.08c-2.92,0-5.6-1.71-6.72-4.4-1.03-2.49-1.24-6.35,.92-12.29l6.59-20.2,2.09,.12,30.13,31.82Z" fill="#fff" stroke="#002346" stroke-miterlimit="10"></path>
  <path d="M269.84,636.54v3.97c0,1.79,1.45,3.25,3.25,3.25h53.08c1.79,0,3.25-1.45,3.25-3.25v-3.97h-59.57Z" fill="#fff" stroke="#002346" stroke-miterlimit="10"></path>
  <polygon points="274.46 607.8 274.81 617.14 278.87 626.61 291.5 626.16 298.22 611.4 298.49 608.07 274.46 607.8" fill="#f1b2c0" stroke="#002346" stroke-miterlimit="10"></polygon>
  <polygon points="231.48 346.37 210.27 431.66 169.21 553.05 152.06 609.01 205.43 612.62 254.95 475.89 259.85 607.66 311.68 608.11 311.36 432.56 311.36 357.2 278.87 352.69 231.48 346.37" fill="#59cf8c" stroke="#002346" stroke-miterlimit="10"></polygon>
  <line x1="281.58" y1="378.41" x2="254.95" y2="475.89" fill="none" stroke="#002346" stroke-linecap="round" stroke-linejoin="round"></line>
  <path d="M288.8,385.18s-5.87,10.31-13.09,15.09" fill="none" stroke="#002346" stroke-linecap="round" stroke-linejoin="round"></path>
  <path d="M370.48,290.86l-10.38-31.14,10.38-5.87s-7.22-1.35-13.99-8.12l-10.83,1.81s-46.93-13.09-65.89-22.11c0,0,1.16-11.64-25.15-25.45,0,0-9.96-4.83-16.7-3.93-2.79,.37-4.85,2.78-4.79,5.59,.02,1.15,.19,2.61,.6,4.39,0,0,.9,4.51-2.26,8.12,0,0-7.67,6.32-6.32,14.44,0,0-12.64,7.22-10.38,28.43,0,0,1.59,11.11,6.25,19.93,1.11,2.1,2.03,4.3,2.82,6.54,3.17,9,9.01,29.28,5.79,49.3-.18,1.14-.45,2.27-.79,3.38-.81,2.6-2.19,9.24,3.54,12.46,0,0,29.98,20.86,75.87,11.41,1.86-.38,3.35-1.77,3.88-3.59,1.06-3.64,1.96-10.64-1.23-21.35,0,0-2.26-7.67-1.35-22.11l60.92-22.11Z" fill="#c39ad5" stroke="#002346" stroke-miterlimit="10"></path>
  <path d="M256.3,195.64l-8.12,20.31s18.95,18.05,26.63,21.66c0,0,1-1.81,.87-6.08s-1.49-8.65-3.75-12.41l-2.98-4.97,1.35-11.28-13.99-7.22Z" fill="#f1b2c0" stroke="#002346" stroke-miterlimit="10"></path>
  <path d="M248.18,215.95s-8.7-8.35-9.9-14.05c-.26-1.24,.76-2.37,2.02-2.29,2.21,.14,6.29,.95,12.72,4.22" fill="none" stroke="#002346" stroke-linecap="round" stroke-linejoin="round"></path>
  <path d="M225.17,228.58s7.67-7.22,26.17,10.38" fill="none" stroke="#002346" stroke-linecap="round" stroke-linejoin="round"></path>
  <path d="M253.6,243.03l38.77,23.74c3.52,2.15,7.69,2.97,11.76,2.29l53.26-8.88" fill="none" stroke="#002346" stroke-linecap="round" stroke-linejoin="round"></path>
  <path d="M358.29,294.47s-14.38-16.31-7.41-33.2" fill="none" stroke="#002346" stroke-linecap="round" stroke-linejoin="round"></path>
  <line x1="345.66" y1="247.54" x2="338.89" y2="249.79" fill="none" stroke="#002346" stroke-linecap="round" stroke-linejoin="round"></line>
  <path d="M299.63,257.92s-3.93-19.41-8.51-27.98" fill="none" stroke="#002346" stroke-linecap="round" stroke-linejoin="round"></path>
  <path d="M279.77,225.43s0,2.26-.9,4.51" fill="none" stroke="#002346" stroke-linecap="round" stroke-linejoin="round"></path>
  <path d="M236.9,288.15s42.87,31.59,72.66,24.82" fill="none" stroke="#002346" stroke-linecap="round" stroke-linejoin="round"></path>
  <path d="M155.78,609.23l-6.81,23.71c-1.17,4.06,1.88,8.11,6.11,8.11h30.82s.45-2.26-2.26-5.42c0,0-9.03-11.28-2.07-24.89l-25.8-1.51Z" fill="#c39ad5" stroke="#002346" stroke-miterlimit="10"></path>
  <path d="M274.81,617.14l5.87,4.06s4.96,2.71,4.96-2.71c0,0-.9-6.32,5.42-8.12,0,0,7.49-2.25,9.16,3.83,.63,2.29,1.83,4.39,3.63,5.93,2.15,1.84,5.65,4.24,11.31,6.97,2.06,.99,4.29,1.55,6.57,1.75,3.08,.27,7.69,1.67,7.69,7.69h-59.57s0-3.16,1.81-9.48c0,0,.9-2.71,3.16-9.93Z" fill="#c39ad5" stroke="#002346" stroke-miterlimit="10"></path>
  <circle cx="397.93" cy="193.77" r="67.12" fill="#59cf8c" stroke="#002346" stroke-miterlimit="10"></circle>
  <circle cx="397.94" cy="193.79" r="55.23" fill="#fff" stroke="#002346" stroke-miterlimit="10"></circle>
  <path d="M409.44,170.03c1.48-.04,3.06-.03,4.71,.05,1.26,.04,2.51,.18,3.75,.4l-.09-6.53c-1.22-.29-2.46-.47-3.71-.52-1.67-.11-3.24-.14-4.72-.1-5.34,.11-10.59,1.37-15.4,3.69-4.79,2.35-8.84,5.97-11.7,10.47-1.66,2.6-2.87,5.46-3.59,8.46l-10.17,.5-.1,5.2,9.39-.5c-.14,1.27-.21,2.54-.2,3.82-.02,1.22,.02,2.4,.09,3.55l-9.4,.57-.07,5.29,10.21-.66c.65,3.03,1.84,5.92,3.53,8.51,2.86,4.41,7.03,7.8,11.93,9.7,5.1,1.98,10.6,2.72,16.04,2.16,1.53-.14,3.16-.35,4.89-.68,1.31-.19,2.59-.52,3.82-1l-.1-6.91c-1.25,.41-2.54,.7-3.85,.89-1.7,.26-3.3,.46-4.84,.58-6.03,.72-12.09-1.01-16.82-4.82-2.77-2.35-4.75-5.51-5.67-9.03l24.63-1.59-.06-5.08-25.46,1.54c-.1-1.11-.14-2.25-.14-3.47s.09-2.6,.22-3.82l25.44-1.35-.05-4.97-24.28,1.16c.99-3.46,2.88-6.59,5.49-9.07,4.46-4.07,10.25-6.35,16.29-6.43Z" fill="#59cf8c" stroke="#002346" stroke-miterlimit="10"></path>
  <rect x="250.9" y="154.17" width="37.23" height="53.48" rx="18.61" ry="18.61" transform="translate(-32.84 62.81) rotate(-12.54)" fill="#f1b2c0" stroke="#002346" stroke-miterlimit="10"></rect>
  <g>
    <path d="M359.77,259.65l22.11-11.73,5.28-4.97c1.36-1.28,3.47-1.35,4.91-.15h0c1.59,1.33,1.79,3.7,.43,5.27l-6.56,7.53,8.48,4.44c.69,.36,1.44,.59,2.22,.66,2.66,.24,9.18,.5,15.04-1.77,1.06-.41,2.27-.12,3,.75h0c.9,1.07,.81,2.65-.21,3.62-1.94,1.84-5.43,4.53-10.02,5.39l-4.96,.9s-1.35,1.81-6.32,2.71c0,0-7.67,4.06-21.66,3.16l-6,1.1-5.74-16.89Z" fill="#f1b2c0" stroke="#002346" stroke-miterlimit="10"></path>
    <line x1="388.65" y1="268.68" x2="399.48" y2="269.58" fill="none" stroke="#002346" stroke-linecap="round" stroke-linejoin="round"></line>
  </g>
  <path d="M352.75,126.68c14.84-51.85,62.6-89.8,119.23-89.8,15.65,0,30.62,2.9,44.41,8.19" fill="none" stroke="#002346" stroke-linecap="round" stroke-linejoin="round"></path>
  <path d="M535.62,267.32c-18.6,11.15-40.37,17.55-63.64,17.55-16.98,0-33.17-3.41-47.91-9.59" fill="none" stroke="#002346" stroke-linecap="round" stroke-linejoin="round"></path>
  <polyline points="517.98 38.87 520.98 46.87 512.98 51.87" fill="none" stroke="#002346" stroke-linecap="round" stroke-linejoin="round"></polyline>
  <polyline points="422.87 281.85 420.01 273.8 428.09 268.94" fill="none" stroke="#002346" stroke-linecap="round" stroke-linejoin="round"></polyline>
  <g>
    <ellipse cx="655.65" cy="187.61" rx="8.68" ry="8.82" transform="translate(-18.82 86.77) rotate(-7.46)" fill="#002346" stroke="#002346" stroke-miterlimit="10"></ellipse>
    <ellipse cx="651.29" cy="193.63" rx="6.67" ry="6.79" transform="translate(-19.64 86.26) rotate(-7.46)" fill="#c39ad5" stroke="#002346" stroke-miterlimit="10"></ellipse>
    <path d="M629.35,203.32c1.79,1.6,5.68,4.11,13.15,5.09,0,0-.61,4.79,5.06,9.33,1.65,1.32,2.8,3.19,3.16,5.29,.57,3.34,1.85,9.39-3.97,13.05,0,0,3.5,.95,8.87-.56,0,0,3.13,3.53,8.61,3.54,2.25,0,4.38-1.27,5.36-3.34,1.31-2.75,2.06-7.75-.78-16.54,0,0-6.32-30.79-23.9-31.71,0,0-8.03-1.7-15.13,1.69-7.16,3.42-10.52,12.7-6.52,21.7l1.33-2.14c1.06-2.08,1.26-2.49,1.89-4.56,.06-.21,.16-.4,.29-.57h0c.63-.84,1.8-.97,2.58-.27Z" fill="#002346" stroke="#002346" stroke-miterlimit="10"></path>
  </g>
  <ellipse cx="652.54" cy="213.27" rx="3.5" ry="4.41" transform="translate(-22.18 86.58) rotate(-7.46)" fill="#f1b2c0" stroke="#002346" stroke-miterlimit="10"></ellipse>
  <path d="M256.33,154.1s-15.35,2.46-17.77,18.8c-.88,5.96,.37,12.01,3.24,17.15,2.17,3.89,5.4,8.19,9.45,9.2,1.82,.46,3.58-1.07,3.61-3.06,.03-1.75,1.68-3.19,.46-6.95,0,0-.62-.27-1.4-.93-4.27-3.64-3.02-10.12,2.52-11.03,.22-.04,.34-.05,.34-.05,4.18-.06,5.02-2.04,5.18-3.03,.13-.82,.32-1.64,.67-2.4,1.76-3.82,5.14-3.84,5.14-3.84l15.24-2.78c3.33-.63,5.56-4.03,4.93-7.52h0c-.59-3.25-3.46-5.41-6.58-4.96,0,0-16.22-13.6-25.01,1.39Z" fill="#002346" stroke="#002346" stroke-miterlimit="10"></path>
  <ellipse cx="250.72" cy="188.02" rx="5.3" ry="6.7" transform="translate(-46.38 88.31) rotate(-18.32)" fill="#f1b2c0" stroke="#002346" stroke-miterlimit="10"></ellipse>
</svg>
