<?xml version="1.0" encoding="UTF-8"?>
<svg xmlns="http://www.w3.org/2000/svg" id="a" width="865.76" height="682.89" viewBox="0 0 865.76 682.89">
  <path d="M400.71,643.18l-9.21-25.31c-.18-.52-1.83-5.88-2.12-6.35-1.35-42.42-5.11-169.84-5.11-169.84l-47.16,4.74c13.44,86.48,29.08,149.21,33.75,167.12-.16,.53-.34,5.77-.37,6.33l-.96,20.44c-.18,3.89,1.88,7.65,5.43,9.25,.94,.42,1.96,.7,3.03,.8l16.64,1.63c4.78,.47,8.21-4.5,6.08-8.81Z" fill="#f0b1bf" stroke="#002346" stroke-miterlimit="10"></path>
  <path d="M275.73,291.95h-32.96v9.13h-13.49c-2.37,0-4.29,1.92-4.29,4.29v20.08c0,2.37,1.92,4.28,4.28,4.28h13.49v8h32.96v-45.77Zm-46.45,35.29c-.99,0-1.8-.8-1.8-1.79v-20.08c0-.99,.81-1.8,1.8-1.8h13.49v23.67h-13.49Z" fill="#59cf8c" stroke="#002346" stroke-linecap="round" stroke-linejoin="round"></path>
  <path d="M268.08,312.09c0-2.44-1.98-4.43-4.43-4.43s-4.43,1.98-4.43,4.43c0-2.44-1.98-4.43-4.43-4.43s-4.43,1.98-4.43,4.43c0,0-.86,6.89,8.85,11.05,9.71-4.16,8.85-11.05,8.85-11.05Z" fill="#fff" stroke="#002346" stroke-miterlimit="10"></path>
  <path d="M506.32,580.66h65.3v54.63c0,8.46-6.87,15.32-15.32,15.32h-34.65c-8.46,0-15.32-6.87-15.32-15.32v-54.63h0Z" fill="#fff" stroke="#002346" stroke-miterlimit="10"></path>
  <path d="M582.35,580.66h-86.76c0-4.89,3.97-8.86,8.86-8.86h69.05c4.89,0,8.86,3.97,8.86,8.86h0Z" fill="#59cf8c" stroke="#002346" stroke-linecap="round" stroke-linejoin="round"></path>
  <path d="M455.14,314.83l-41.52,27.67-11.6-14.55,33.51-26.07c.64-.5,.9-1.35,.65-2.12l-7.49-22.92,22.75-3.69,8.52,26.07s3.82,10.57-4.82,15.61Z" fill="#f0b1bf" stroke="#002346" stroke-miterlimit="10"></path>
  <path d="M406.89,502.15l-13.65,11.08c-4.35,3.53-9.84,5.08-15.44,5.11-2.15,.01-4.17,.91-4.95,3.89-1.94,7.44-.44,12.37-6.15,17.46-5.71,5.09-10.98,12.15-10.36,18.77,0,0-5.44,2.1-3.53,8.55,.3,1.02,1.53,1.45,2.42,.87l64.43-41.91,61.08-33.92c54.58-25.79,18.13-60.69,18.13-60.69l-44.86-46.04-34.54,35.31,43,37.81-55.58,43.73" fill="#f0b1bf" stroke="#002346" stroke-miterlimit="10"></path>
  <path d="M469.31,394.98c-23.43-42.88-51.82-49.84-51.82-49.84h-71.21c-15.95,19.29-25.41,54.71-12.46,101.62l56.48-5.68,1.06-39,22.74,22.35,55.22-29.45Z" fill="#c39ad5" stroke="#002346" stroke-miterlimit="10"></path>
  <path d="M406.6,184.67c-5.11-11.14-6.4-24.11-25.99-23.43-19.59-.69-20.89,12.29-25.99,23.43-5.15,11.24-24.59,12.64-24.59,43.08,0,28.67,45.31,28.05,50.58,27.88,5.26,.17,50.58,.79,50.58-27.88,0-30.44-19.44-31.85-24.59-43.08Z" fill="#002346" stroke="#002346" stroke-miterlimit="10"></path>
  <path d="M330.03,265.2l-15.56-27.72c-2.48,0-126.88,20.24-126.88,20.24h0c-2.32-.12-11.09,.15-17.59,.64h-12.89c-.72,0-1.31,.58-1.31,1.31s.58,1.31,1.31,1.31l8.83,2.03,.23,.46-13.21,.83c-1.03,0-1.86,.83-1.86,1.86s.83,1.86,1.86,1.86l12.99,1.18-14.1,2.88c-1.03,0-1.86,.83-1.86,1.86s.83,1.86,1.86,1.86c.15,0,.29-.02,.43-.06v.06s14.82-.99,14.82-.99l-9.33,4.36c-.1,.04-.2,.08-.29,.13l-.06,.03h0c-.53,.33-.89,.91-.89,1.58,0,1.03,.83,1.86,1.86,1.86,.22,0,.43-.05,.63-.12h0s14.29-4.54,14.29-4.54c1.23-.39,2.51-.56,3.8-.5l4.56,.21s-4.81,5.57-2.98,10.7c.39,1.09,1.85,1.32,2.55,.39l10.42-14.05,3.99-5.02,134.36-4.62Z" fill="#f0b1bf" stroke="#002346" stroke-miterlimit="10"></path>
  <path d="M445.07,249.83c-3.98-7.73-10.01-14.16-17.28-18.88-7.14-4.63-15.25-7.61-23.51-9.53-4.16-.97-8.3-1.85-12.58-1.85h-16.61c-2.73,0-5.49-.28-8.2,.13-16.66,.13-68.92,15.86-68.92,15.86l38.78,42.23,5.02,54.4h76.9l4.87-54.3,32.1-5.45-10.55-22.61Z" fill="#59cf8c" stroke="#002346" stroke-linecap="round" stroke-linejoin="round"></path>
  <path d="M380.98,230.69h0c-6.21,0-11.03-6.08-10.29-12.99l1.39-13.03h17.81l1.39,13.03c.74,6.91-4.08,12.99-10.29,12.99Z" fill="#f0b1bf" stroke="#002346" stroke-miterlimit="10"></path>
  <path d="M315.52,50.33H186.87c-4.41,0-7.98,3.57-7.98,7.98v3.5h144.62v-3.5c0-4.41-3.57-7.98-7.98-7.98Z" fill="#59cf8c" stroke="#002346" stroke-linecap="round" stroke-linejoin="round"></path>
  <g>
    <circle cx="189.88" cy="56.46" r="2.83" fill="#fff" stroke="#002346" stroke-miterlimit="10"></circle>
    <circle cx="197.37" cy="56.46" r="2.83" fill="#fff" stroke="#002346" stroke-miterlimit="10"></circle>
    <circle cx="204.7" cy="56.46" r="2.83" fill="#fff" stroke="#002346" stroke-miterlimit="10"></circle>
  </g>
  <path d="M178.88,61.82v90.51c0,4.41,3.57,7.98,7.98,7.98h82.79l29.74,38.6c1.3,1.68,3.99,.77,3.99-1.36v-37.24h12.14c4.41,0,7.98-3.57,7.98-7.98V61.82H178.88Z" fill="#fff" stroke="#002346" stroke-miterlimit="10"></path>
  <path d="M272.65,97.57c-1.06,0-2.09,.12-3.08,.33-3.02-8.48-11.09-14.56-20.61-14.56-6.83,0-12.93,3.13-16.94,8.03-1.58-.44-3.23-.7-4.95-.7-10.06,0-18.22,8.16-18.22,18.22s8.16,18.22,18.22,18.22h45.57c8.16,0,14.77-6.61,14.77-14.77s-6.61-14.77-14.77-14.77Z" fill="#59cf8c" stroke="#002346" stroke-linecap="round" stroke-linejoin="round"></path>
  <path d="M373.17,30.84h90.39c3.1,0,5.61,2.51,5.61,5.61v2.46h-101.6v-2.46c0-3.1,2.51-5.61,5.61-5.61Z" fill="#59cf8c" stroke="#002346" stroke-linecap="round" stroke-linejoin="round"></path>
  <g>
    <path d="M459.46,35.14c0,1.1,.89,1.99,1.99,1.99s1.99-.89,1.99-1.99-.89-1.99-1.99-1.99-1.99,.89-1.99,1.99Z" fill="#fff" stroke="#002346" stroke-miterlimit="10"></path>
    <path d="M454.19,35.14c0,1.1,.89,1.99,1.99,1.99s1.99-.89,1.99-1.99-.89-1.99-1.99-1.99-1.99,.89-1.99,1.99Z" fill="#fff" stroke="#002346" stroke-miterlimit="10"></path>
    <path d="M449.04,35.14c0,1.1,.89,1.99,1.99,1.99s1.99-.89,1.99-1.99-.89-1.99-1.99-1.99-1.99,.89-1.99,1.99Z" fill="#fff" stroke="#002346" stroke-miterlimit="10"></path>
  </g>
  <path d="M469.17,38.9v63.58c0,3.1-2.51,5.61-5.61,5.61h-58.16l-20.89,27.12c-.91,1.18-2.8,.54-2.8-.95v-26.16h-8.53c-3.1,0-5.61-2.51-5.61-5.61V38.9h101.6Z" fill="#fff" stroke="#002346" stroke-miterlimit="10"></path>
  <rect x="396.34" y="49.15" width="43.53" height="43.53" rx="14.47" ry="14.47" fill="#c39ad5" stroke="#002346" stroke-miterlimit="10"></rect>
  <g>
    <path d="M417.98,74.91l11.47-15.88c.51-.71,.38-1.7-.32-2.25s-1.69-.44-2.26,.22l-12.81,15.01c.89,0,1.78,.26,2.54,.86,.69,.54,1.15,1.26,1.38,2.03Z" fill="#59cf8c" stroke="#002346" stroke-linecap="round" stroke-linejoin="round"></path>
    <path d="M416.67,76.59c-.23-.78-.7-1.49-1.38-2.03-.75-.59-1.65-.86-2.54-.86-1.21,0-2.4,.52-3.21,1.54-.22,.28-.38,.57-.51,.88-1.8,2.81-4.62,4.5-4.62,4.5,5.15,2.69,8.46,1.79,10.16,.8,.4-.2,.76-.46,1.08-.79,.21-.2,.32-.33,.32-.33,.86-1.09,1.06-2.48,.69-3.71Z" fill="#59cf8c" stroke="#002346" stroke-linecap="round" stroke-linejoin="round"></path>
  </g>
  <path d="M452.93,120.52h90.39c3.1,0,5.61,2.51,5.61,5.61v2.46h-101.6v-2.46c0-3.1,2.51-5.61,5.61-5.61Z" fill="#59cf8c" stroke="#002346" stroke-linecap="round" stroke-linejoin="round"></path>
  <g>
    <circle cx="541.21" cy="124.82" r="1.99" fill="#fff" stroke="#002346" stroke-miterlimit="10"></circle>
    <circle cx="535.94" cy="124.82" r="1.99" fill="#fff" stroke="#002346" stroke-miterlimit="10"></circle>
    <path d="M528.8,124.82c0,1.1,.89,1.99,1.99,1.99s1.99-.89,1.99-1.99-.89-1.99-1.99-1.99-1.99,.89-1.99,1.99Z" fill="#fff" stroke="#002346" stroke-miterlimit="10"></path>
  </g>
  <path d="M548.93,128.59v63.58c0,3.1-2.51,5.61-5.61,5.61h-58.16l-20.89,27.12c-.91,1.18-2.8,.54-2.8-.95v-26.16h-8.53c-3.1,0-5.61-2.51-5.61-5.61v-63.58h101.6Z" fill="#fff" stroke="#002346" stroke-miterlimit="10"></path>
  <rect x="476.11" y="138.83" width="43.53" height="43.53" rx="14.47" ry="14.47" fill="#59cf8c" stroke="#002346" stroke-linecap="round" stroke-linejoin="round"></rect>
  <g>
    <path d="M504.01,165.22l1.1-9.21-2-1.32-1.46-.97-2-1.32-8.03,4.63-2.62,14.9c-.04,.23,.26,.35,.39,.15l5.88-8.91c-.35-.74-.23-1.68,.48-2.32,.54-.49,1.34-.63,2.02-.37,1.22,.48,1.63,1.91,.95,2.94-.41,.62-1.1,.92-1.79,.88l-5.86,8.88c-.13,.19,.1,.42,.29,.3l12.67-8.27Z" fill="#c39ad5" stroke="#002346" stroke-miterlimit="10"></path>
    <rect x="501.57" y="149.46" width="6.52" height="3.27" transform="translate(166.66 -253.04) rotate(33.42)" fill="#c39ad5" stroke="#002346" stroke-miterlimit="10"></rect>
  </g>
  <rect x="171.4" y="337.72" width="426.62" height="24.16" fill="#fff" stroke="#002346" stroke-miterlimit="10"></rect>
  <path d="M617.81,345.14H151.62c-2.05,0-3.71-1.66-3.71-3.71h0c0-2.05,1.66-3.71,3.71-3.71h466.19c2.05,0,3.71,1.66,3.71,3.71h0c0,2.05-1.66,3.71-3.71,3.71Z" fill="#e6e6e6" stroke="#002346" stroke-miterlimit="10"></path>
  <polygon points="155.05 652.05 140.54 652.05 202.72 361.88 217.23 361.88 155.05 652.05" fill="#e6e6e6" stroke="#002346" stroke-miterlimit="10"></polygon>
  <polygon points="616.05 652.05 630.56 652.05 568.38 361.88 553.86 361.88 616.05 652.05" fill="#e6e6e6" stroke="#002346" stroke-miterlimit="10"></polygon>
  <g>
    <path d="M624.43,285.18h-40.23s-22.31,53.81,20.12,51.73c42.43,2.08,20.12-51.73,20.12-51.73Z" fill="#59cf8c" stroke="#002346" stroke-linecap="round" stroke-linejoin="round"></path>
    <polygon points="632.44 337.62 576.58 337.62 574.26 334.12 634.37 334.12 632.44 337.62" fill="#fff" stroke="#002346" stroke-miterlimit="10"></polygon>
  </g>
  <path d="M659.23,303.62c4.01-.77,6.63-4.64,5.86-8.65-.77-4.01-4.64-6.63-8.65-5.86,4.01-.77,6.63-4.64,5.86-8.65-.77-4.01-4.64-6.63-8.65-5.86,0,0-11.56,.76-15.33,17.99,9.88,14.61,20.9,11.04,20.9,11.04Z" fill="#7ccf92" stroke="#002346" stroke-miterlimit="10"></path>
  <path d="M624.55,288.42c-3.88-1.27-8.05,.84-9.33,4.71s.84,8.05,4.71,9.33c-3.88-1.27-8.05,.84-9.33,4.71-1.27,3.88,.84,8.05,4.71,9.33,0,0,10.47,4.95,22.14-8.28-1.54-17.57-12.91-19.8-12.91-19.8Z" fill="#7ccf92" stroke="#002346" stroke-miterlimit="10"></path>
  <path d="M658.94,335.51c3.93-1.09,6.23-5.17,5.14-9.1-1.09-3.93-5.17-6.23-9.1-5.14,3.93-1.09,6.23-5.17,5.14-9.1s-5.17-6.23-9.1-5.14c0,0-11.46,1.7-13.82,19.18,11.04,13.76,21.73,9.3,21.73,9.3Z" fill="#7ccf92" stroke="#002346" stroke-miterlimit="10"></path>
  <path d="M614.19,333.06c-3.33,2.36-4.12,6.97-1.76,10.3,2.36,3.33,6.97,4.12,10.3,1.76-3.33,2.36-4.12,6.97-1.76,10.3,2.36,3.33,6.97,4.12,10.3,1.76,0,0,10.21-5.47,6.53-22.72-15.04-9.22-23.59-1.41-23.59-1.41Z" fill="#7ccf92" stroke="#002346" stroke-miterlimit="10"></path>
  <path d="M669.89,358.96c2.77-1.7,3.64-5.32,1.94-8.09-1.7-2.77-5.32-3.64-8.09-1.94,2.77-1.7,3.64-5.32,1.94-8.09-1.7-2.77-5.32-3.64-8.09-1.94,0,0-8.4,3.81-6.37,17.71,11.46,8.11,18.67,2.35,18.67,2.35Z" fill="#7ccf92" stroke="#002346" stroke-miterlimit="10"></path>
  <path d="M656.33,376.23c-.32,2.3,1.29,4.42,3.58,4.74,2.3,.32,4.42-1.29,4.74-3.58-.32,2.3,1.29,4.42,3.58,4.74,2.3,.32,4.42-1.29,4.74-3.58,0,0,1.7-6.36-6.88-11.54-9.67,2.65-9.76,9.24-9.76,9.24Z" fill="#7ccf92" stroke="#002346" stroke-miterlimit="10"></path>
  <path d="M688.93,368.58c1.44-1.82,1.14-4.46-.68-5.9-1.82-1.44-4.46-1.14-5.9,.68,1.44-1.82,1.14-4.46-.68-5.9-1.82-1.44-4.46-1.14-5.9,.68,0,0-4.7,4.61,.05,13.44,9.67,2.64,13.1-2.99,13.1-2.99Z" fill="#7ccf92" stroke="#002346" stroke-miterlimit="10"></path>
  <path d="M704.43,370.5c.67-1.44,.05-3.15-1.38-3.83-1.44-.67-3.15-.05-3.83,1.38,.67-1.44,.05-3.15-1.38-3.83-1.44-.67-3.15-.05-3.83,1.38,0,0-2.41,3.82,2.16,8.95,6.87,.23,8.26-4.06,8.26-4.06Z" fill="#7ccf92" stroke="#002346" stroke-miterlimit="10"></path>
  <path d="M689,384.07c.76,1.4,2.5,1.92,3.9,1.16,1.4-.76,1.92-2.5,1.16-3.9,.76,1.4,2.5,1.92,3.9,1.16,1.4-.76,1.92-2.5,1.16-3.9,0,0-1.64-4.2-8.48-3.57-4.26,5.39-1.64,9.06-1.64,9.06Z" fill="#7ccf92" stroke="#002346" stroke-miterlimit="10"></path>
  <path d="M710.34,382.6c.58,1.07,1.92,1.47,2.99,.89,1.07-.58,1.47-1.92,.89-2.99,.58,1.07,1.92,1.47,2.99,.89,1.07-.58,1.47-1.92,.89-2.99,0,0-1.26-3.22-6.5-2.74-3.27,4.13-1.25,6.94-1.25,6.94Z" fill="#7ccf92" stroke="#002346" stroke-miterlimit="10"></path>
  <path d="M724.51,373.96c.9-.83,.95-2.22,.13-3.12-.83-.9-2.22-.95-3.12-.13,.9-.83,.95-2.22,.13-3.12-.83-.9-2.22-.95-3.12-.13,0,0-2.81,2.01-1.06,6.98,4.81,2.15,7.04-.49,7.04-.49Z" fill="#7ccf92" stroke="#002346" stroke-miterlimit="10"></path>
  <path d="M614.81,257.63c3.01-1.78,4.02-5.66,2.24-8.68-1.78-3.01-5.66-4.02-8.68-2.24,3.01-1.78,4.02-5.66,2.24-8.68-1.78-3.01-5.66-4.02-8.68-2.24,0,0-9.12,3.95-7.19,18.95,12.2,8.95,20.06,2.88,20.06,2.88Z" fill="#7ccf92" stroke="#002346" stroke-miterlimit="10"></path>
  <path d="M580.78,257.33c-3.46,.51-5.85,3.73-5.34,7.19,.51,3.46,3.73,5.85,7.19,5.34-3.46,.51-5.85,3.73-5.34,7.19,.51,3.46,3.73,5.85,7.19,5.34,0,0,9.93-.22,13.81-14.84-7.92-12.89-17.5-10.23-17.5-10.23Z" fill="#7ccf92" stroke="#002346" stroke-miterlimit="10"></path>
  <path d="M574.61,237.18c-2.6,.24-4.5,2.54-4.26,5.14,.24,2.59,2.54,4.5,5.14,4.26-2.6,.24-4.5,2.54-4.26,5.14,.24,2.59,2.54,4.5,5.14,4.26,0,0,7.4,.23,10.85-10.5-5.39-9.9-12.61-8.3-12.61-8.3Z" fill="#7ccf92" stroke="#002346" stroke-miterlimit="10"></path>
  <path d="M597.4,230.38c.7-2.51-.76-5.11-3.27-5.82-2.51-.7-5.11,.76-5.82,3.27,.7-2.51-.76-5.11-3.27-5.82-2.51-.7-5.11,.76-5.82,3.27,0,0-2.87,6.82,5.9,13.9,11.17-1.48,12.27-8.8,12.27-8.8Z" fill="#7ccf92" stroke="#002346" stroke-miterlimit="10"></path>
  <path d="M572.33,214.17c-2.13-1.51-5.07-1.01-6.58,1.12-1.51,2.13-1.01,5.07,1.12,6.58-2.13-1.51-5.07-1.01-6.58,1.12-1.51,2.13-1.01,5.07,1.12,6.58,0,0,5.46,5,15.07-.88,2.37-11.01-4.15-14.52-4.15-14.52Z" fill="#7ccf92" stroke="#002346" stroke-miterlimit="10"></path>
  <polygon points="528.26 320.42 559.41 303.28 559.41 307 528.26 328.31 528.26 320.42" fill="#c39ad5" stroke="#002346" stroke-miterlimit="10"></polygon>
  <path d="M565.32,308.57c.32,.56,.05,1.29-.56,1.51-3.13,1.11-6.71-.16-8.4-3.15-1.69-2.99-.94-6.71,1.62-8.82,.5-.41,1.26-.26,1.58,.3l5.75,10.16Z" fill="#e6e6e6" stroke="#002346" stroke-miterlimit="10"></path>
  <polygon points="533.57 337.55 491.93 337.55 501.3 303.28 525.06 303.28 533.57 337.55" fill="#c39ad5" stroke="#002346" stroke-miterlimit="10"></polygon>
  <path d="M391.32,186.62c-7.6,0-12.22-2.57-15.01-5.97,1.06,3.29,2.45,5.97,2.45,5.97-4.78-2.89-6.35-7.51-6.86-10.15-2.97,2.05-4.92,5.48-4.92,9.36v3.26c-.12,0-.23-.03-.34-.03-2.24,0-4.06,1.82-4.06,4.06s1.82,4.06,4.06,4.06c.12,0,.23-.02,.34-.03v.47c0,7.83,6.17,16.57,14,16.57s14.35-8.74,14.35-16.57v-.43c2.24,0,4.06-1.82,4.06-4.06s-1.82-4.06-4.06-4.06v-2.75c-1.19,.19-2.51,.3-4.01,.3Z" fill="#f0b1bf" stroke="#002346" stroke-miterlimit="10"></path>
  <line x1="350" y1="248.37" x2="336" y2="274.37" fill="none" stroke="#002346" stroke-linecap="round" stroke-linejoin="round"></line>
  <line x1="424.5" y1="273.87" x2="417.5" y2="250.87" fill="none" stroke="#002346" stroke-linecap="round" stroke-linejoin="round"></line>
  <path d="M421.18,343.56h-79.73c-1.5,0-2.75-1.14-2.89-2.64l-6.06-65.3c-.16-1.7,1.18-3.17,2.89-3.17h92.99c1.73,0,3.08,1.5,2.89,3.22l-7.21,65.3c-.16,1.47-1.41,2.59-2.89,2.59Z" fill="#c39ad5" stroke="#002346" stroke-miterlimit="10"></path>
  <circle cx="381.92" cy="308" r="8.1" fill="none" stroke="#002346" stroke-linecap="round" stroke-linejoin="round"></circle>
  <line x1="338.34" y1="336.08" x2="424.23" y2="336.08" fill="none" stroke="#002346" stroke-linecap="round" stroke-linejoin="round"></line>
  <line x1="338.81" y1="281.2" x2="424.97" y2="281.2" fill="none" stroke="#002346" stroke-linecap="round" stroke-linejoin="round"></line>
  <line x1="391.35" y1="402.07" x2="391.35" y2="382.37" fill="none" stroke="#002346" stroke-linecap="round" stroke-linejoin="round"></line>
  <line x1="394.63" y1="651.99" x2="390.5" y2="638.87" fill="none" stroke="#002346" stroke-linecap="round" stroke-linejoin="round"></line>
  <line x1="501" y1="306.37" x2="525.84" y2="306.37" fill="none" stroke="#002346" stroke-linecap="round" stroke-linejoin="round"></line>
  <path d="M499.62,309.46s-8.92-13.36-18.88-6.51c-1.93,1.33-3.4,3.23-4.35,5.38-2.55,5.73-5.17,18.29,16.73,24.22" fill="none" stroke="#002346" stroke-linecap="round" stroke-linejoin="round"></path>
  <g>
    <polyline points="239.27 111.81 248.46 118.61 257 111.81" fill="none" stroke="#002346" stroke-linecap="round" stroke-linejoin="round"></polyline>
    <line x1="248.46" y1="118.61" x2="248.46" y2="96.13" fill="none" stroke="#002346" stroke-linecap="round" stroke-linejoin="round"></line>
  </g>
  <path d="M600.97,284.44s32.28-33.02,34.91-9.29c0,0,1.89,19.75,1.75,43.23,0,0-8.18,62.65,79.84,56.07" fill="none" stroke="#002346" stroke-linecap="round" stroke-linejoin="round"></path>
  <path d="M576.48,228.69s21.81,23.58,26.91,56.88" fill="none" stroke="#002346" stroke-linecap="round" stroke-linejoin="round"></path>
  <path d="M523.46,571.37v-2.9c0-2.82,2.28-5.1,5.1-5.1h20.8c2.82,0,5.1,2.28,5.1,5.1v2.9" fill="none" stroke="#002346" stroke-linecap="round" stroke-linejoin="round"></path>
</svg>
